<svg width="60" height="60" viewBox="0 0 60 60" fill="none" xmlns="http://www.w3.org/2000/svg">
<path d="M27.1438 1.81577C28.1839 -0.605254 31.6164 -0.60525 32.6565 1.81577L39.7956 18.4325C40.099 19.1386 40.6617 19.7013 41.3678 20.0047L57.9845 27.1438C60.4055 28.1839 60.4055 31.6164 57.9845 32.6565L41.3678 39.7956C40.6617 40.099 40.099 40.6617 39.7956 41.3678L32.6565 57.9845C31.6164 60.4055 28.1839 60.4055 27.1438 57.9845L20.0047 41.3678C19.7013 40.6617 19.1386 40.099 18.4325 39.7956L1.81577 32.6565C-0.605254 31.6164 -0.60525 28.1839 1.81577 27.1438L18.4325 20.0047C19.1386 19.7013 19.7013 19.1386 20.0047 18.4325L27.1438 1.81577Z" fill="#FFA681"/>
</svg>
