<svg width="27" height="27" viewBox="0 0 27 27" fill="none" xmlns="http://www.w3.org/2000/svg">
<path fill-rule="evenodd" clip-rule="evenodd" d="M13.3764 6.80371C11.5113 6.80371 9.9993 8.30359 9.9993 10.1537C9.9993 12.0039 11.5113 13.5039 13.3764 13.5039C15.2416 13.5039 16.7535 12.0039 16.7535 10.1537C16.7535 8.30359 15.2416 6.80371 13.3764 6.80371ZM13.3767 11.5381C12.6057 11.5381 11.9807 10.918 11.9807 10.1533C11.9807 9.38854 12.6057 8.76855 13.3767 8.76855C14.1477 8.76855 14.7727 9.38854 14.7727 10.1533C14.7727 10.918 14.1477 11.5381 13.3767 11.5381ZM16.7738 15.2269C16.731 15.261 15.9208 15.8961 14.5688 16.1693L16.6096 18.1756C16.9685 18.531 16.9689 19.1077 16.6106 19.4637C16.2523 19.8196 15.671 19.8202 15.312 19.4647L13.3307 17.5509L11.5312 19.4523C11.351 19.6377 11.1107 19.731 10.8701 19.731C10.6406 19.731 10.411 19.6463 10.2328 19.4758C9.86772 19.1266 9.85714 18.5501 10.2092 18.1879L12.1462 16.1799C10.7563 15.9131 9.91271 15.2615 9.86927 15.2269C9.47365 14.9122 9.4101 14.339 9.72737 13.9465C10.0446 13.5541 10.6225 13.4911 11.0182 13.8057C11.0265 13.8124 11.9089 14.4699 13.3307 14.4709C14.7524 14.4699 15.6166 13.8124 15.6249 13.8057C16.0206 13.4911 16.5985 13.5541 16.9157 13.9465C17.233 14.339 17.1694 14.9122 16.7738 15.2269Z" fill="white"/>
<circle cx="13.2676" cy="13.2676" r="12.8774" stroke="#EAC141" stroke-width="0.780446"/>
</svg>
