<svg width="27" height="27" viewBox="0 0 27 27" fill="none" xmlns="http://www.w3.org/2000/svg">
<path d="M13.9863 7.01013C14.614 7 15.2381 7.006 15.8614 7C15.8992 7.76542 16.1632 8.54508 16.7006 9.08624C17.2369 9.64089 17.9955 9.89478 18.7336 9.98066V11.9941C18.0419 11.9705 17.347 11.8205 16.7193 11.51C16.4459 11.381 16.1913 11.2148 15.942 11.045C15.9387 12.506 15.9477 13.9652 15.933 15.4203C15.8956 16.1194 15.6744 16.815 15.2845 17.3911C14.6571 18.35 13.5683 18.9751 12.4501 18.9946C11.7641 19.0355 11.0789 18.8405 10.4944 18.4812C9.52573 17.8857 8.8441 16.7955 8.74483 15.6255C8.73332 15.3753 8.72936 15.1256 8.73907 14.8814C8.8254 13.93 9.27682 13.0198 9.9775 12.4007C10.7717 11.6795 11.8843 11.336 12.9259 11.5392C12.9356 12.2799 12.9072 13.0198 12.9072 13.7605C12.4313 13.6 11.8753 13.645 11.4595 13.9461C11.1559 14.1513 10.9253 14.4655 10.8052 14.821C10.7059 15.0746 10.7343 15.3562 10.7401 15.6255C10.8541 16.446 11.6109 17.1357 12.4188 17.061C12.9543 17.055 13.4676 16.731 13.7468 16.2566C13.837 16.0905 13.9381 15.9206 13.9435 15.7252C13.9906 14.8308 13.9719 13.9401 13.9777 13.0457C13.9816 11.03 13.9719 9.01986 13.9867 7.0105L13.9863 7.01013Z" fill="white"/>
<circle cx="13.2676" cy="13.2676" r="12.8774" stroke="#EAC141" stroke-width="0.780446"/>
</svg>
