<svg width="95" height="89" viewBox="0 0 95 89" fill="none" xmlns="http://www.w3.org/2000/svg">
<g clip-path="url(#clip0_0_48)">
<path d="M82.3402 0.015625H12.6644C6.06707 0.015625 0 6.00942 0 12.5514V76.4529C0 82.9926 6.06707 88.9142 12.6644 88.9142H81.7075C88.3071 88.9142 94.9954 82.9926 94.9954 76.4529V12.5514C94.9954 6.00942 88.9375 0.015625 82.3402 0.015625Z" fill="url(#paint0_linear_0_48)"/>
<path d="M31.3137 50.5134V68.2534L33.2504 68.6392L33.2708 78.134L26.1547 78.1227L26.1501 69.9611L27.9502 68.8354V52.0091L24.2522 54.019V73.805C24.3728 75.4969 22.6819 78.619 19.4754 78.3776C16.2712 78.1385 15.2107 74.7029 15.2107 72.165C15.2107 69.6295 16.0345 67.6443 17.8551 67.4503C19.678 67.2586 21.0889 69.1106 20.6247 72.0545C20.6042 72.1718 20.9 71.9101 20.9296 71.7951C21.1413 70.9379 21.0434 68.4903 21.0434 68.4903L21.0229 55.7583L17.9552 58.0029L17.9393 51.8715C17.9393 51.8715 22.1881 47.8854 25.3627 45.422C28.5396 42.9586 33.66 39.9922 33.66 39.9922L33.6577 49.575L31.3137 50.5134Z" fill="url(#paint1_linear_0_48)" stroke="#EC1C24" stroke-width="0.471567" stroke-miterlimit="10"/>
<path d="M51.1465 53.9986L54.0344 54.5987V45.943L56.7721 46.3265V66.5028L54.6739 67.2292L54.683 78.1498H62.2179V67.9353L60.1265 66.7216V46.9198L62.4591 47.4364V56.6538L64.9874 57.6193V41.1854C60.3404 38.731 56.1895 37.5896 51.1465 37.1113V53.9986Z" fill="url(#paint2_linear_0_48)" stroke="#EC1C24" stroke-width="0.471567" stroke-miterlimit="10"/>
<path d="M48.8437 71.4565C48.8437 71.4565 49.0758 78.4 41.9073 78.4C35.2462 78.4 35.9221 70.7684 35.9221 70.7684V42.832C36.0632 39.4121 39.1218 36.6938 42.6879 36.6938C47.0345 36.6938 48.8642 39.7144 48.8756 43.3148L48.8437 71.4565ZM45.5462 50.0417C45.5371 46.7437 42.9792 46.5519 42.3192 46.6602C41.6615 46.7707 39.2993 47.3505 39.2993 49.5793C39.2993 49.5793 39.272 63.9558 39.272 65.7221C39.2606 66.7057 39.4563 68.7043 42.5946 68.7043C44.0488 68.7043 45.5462 67.8313 45.5462 64.6957V50.0417Z" fill="url(#paint3_linear_0_48)" stroke="#EC1C24" stroke-width="0.471567" stroke-miterlimit="10"/>
<path d="M78.7373 54.7201V73.6444C78.7373 78.5532 73.4895 78.3546 73.4895 78.3546C70.4901 78.3546 67.0082 74.9258 66.9582 71.5939V48.2977C66.9582 48.2977 67.1106 45.135 69.8734 44.6997C74.7252 43.5762 78.7828 50.601 78.7373 54.7201ZM75.5331 58.528C75.5445 57.6979 75.747 54.2103 74.0288 53.0486C71.5051 51.3386 70.3831 53.3508 70.2966 55.1848L70.308 67.5063C70.308 67.5063 70.1123 70.2765 73.0662 70.7682C75.5035 71.1743 75.5445 68.9049 75.5445 68.9049C75.5445 68.9049 75.5194 59.8116 75.5331 58.528Z" fill="url(#paint4_linear_0_48)" stroke="#EC1C24" stroke-width="0.471567" stroke-miterlimit="10"/>
<path d="M33.8357 14.0156V23.9346C33.8379 24.0429 33.888 26.6935 33.2189 29.3396C31.6396 35.6154 26.2917 39.8316 26.0959 39.9692L26.0686 35.8229C26.0686 35.8229 27.0882 35.5342 27.6503 35.0537C29.0248 33.8739 30.0375 32.2542 30.438 30.9187C28.2784 29.396 26.2052 25.4573 25.6954 22.748L20.3793 36.7433V42.2747L20.946 43.6146L17.6121 46.1592L18.0012 44.2079V14.0066L17.4778 12.7072H27.054C27.5683 12.723 28.0303 12.9622 28.3375 13.3637C28.556 13.6479 28.7904 14.1465 28.6766 14.9044L27.0677 19.1906C27.0677 19.1906 28.5719 27.0522 31.3984 28.4711C31.4735 27.9004 31.5326 27.5372 31.5326 26.4634V14.0179L31.2163 12.696H34.2499L33.8357 14.0156ZM25.04 15.6128C24.9422 15.4278 24.7715 15.3195 24.5234 15.2767L20.2974 15.2789V29.7976L24.9626 17.0204C25.1333 16.3572 25.1993 15.9038 25.04 15.6128ZM43.0888 29.4118C39.5477 28.5975 37.693 25.6197 37.2652 21.6291C36.9966 19.1387 37.4541 17.6949 37.8364 16.8828C38.6101 15.2518 39.5546 15.3082 40.0689 15.3082C40.615 15.3082 41.4047 15.9647 41.4115 15.9647L41.7757 16.2331V12.7298L38.89 12.714C37.206 12.7072 34.4569 15.694 34.6845 21.3336C34.903 26.7274 37.9297 31.0202 42.9818 32.5858L43.2822 32.676L43.3323 29.493L43.0888 29.4118ZM59.5582 28.2681C59.5126 24.2662 58.5819 22.8473 57.9219 21.6404C57.3097 20.5215 55.2457 17.9904 55.2457 17.9904L60.8439 12.7276H55.9967L56.272 13.1223C56.2834 13.1336 57.1686 13.8713 55.0408 15.9399C54.4059 16.558 53.2112 17.5167 52.6877 17.8799L52.7014 14.0089L52.9495 12.7298H49.8522L50.387 14.0089V28.056C49.3083 27.6883 45.5579 27.1582 44.3267 21.6923C43.7737 19.2424 44.2107 17.255 45.3804 15.9579C45.9835 15.2857 46.6093 15.2 47.5742 15.3308C48.3912 15.4413 49.1285 16.1564 49.1285 16.1564L49.0511 12.7433L45.9516 12.7276C45.2734 12.7276 44.3996 13.2351 43.6736 14.0427C42.9386 14.8661 41.7142 16.6572 41.8462 20.0252C42.0101 24.3677 44.1879 27.1266 45.7445 28.5659C48.018 30.6683 52.9745 32.1166 52.9745 32.1166L52.6855 30.4134V22.0983C52.6786 21.284 53.218 19.6192 53.7846 19.3259C54.1761 19.732 56.8614 21.9156 57.1482 27.9162C57.1482 27.9162 57.2051 29.9893 57.2051 30.5691C57.2051 32.0263 57.3894 32.764 57.3894 32.764L60.2909 33.5378C60.2909 33.5378 59.788 31.9519 59.6765 30.6255C59.59 29.5607 59.5582 28.2681 59.5582 28.2681ZM78.2509 40.4767L74.0864 36.8403V21.8886L77.4112 22.6262L77.302 20.711L74.0864 20.129V15.2857H77.0311L77.971 16.4136V12.714H71.2531L71.7811 14.0044V37.1223L71.2372 37.7517L78.7766 45.0494L78.7926 40.4745H78.2509V40.4767ZM70.6933 23.9594C70.6933 23.9617 70.6933 23.9639 70.6933 23.9684C70.6933 23.973 70.6933 23.9775 70.6933 23.9797C70.6933 24 70.6933 24.0226 70.6933 24.0429C70.6933 24.0655 70.6933 24.0858 70.6933 24.1061C70.6933 24.1083 70.6933 24.1128 70.6933 24.1173C70.6933 24.1196 70.6933 24.1264 70.6933 24.1264C70.6409 29.3238 69.9332 35.5838 65.6002 35.5996C61.0852 35.6154 60.498 28.4756 60.5754 24.1782C60.5754 24.1579 60.5777 24.1354 60.5777 24.1151C60.5777 24.097 60.5777 24.0812 60.5754 24.0632C60.5754 24.0542 60.5754 24.0474 60.5754 24.0406C60.5754 24.0316 60.5754 24.0248 60.5754 24.0181C60.5777 24 60.5777 23.9842 60.5777 23.9662C60.5777 23.9481 60.5754 23.9233 60.5754 23.903C60.5003 19.6056 61.0874 12.4659 65.6002 12.4839C69.9332 12.502 70.6409 18.7597 70.6933 23.9594ZM68.1399 24.1173C68.1399 24.0925 68.1399 24.0677 68.1399 24.0429C68.1399 24.0181 68.1399 23.991 68.1399 23.9684C68.1126 21.9743 67.9533 19.0033 67.835 18.119C67.5687 16.1587 66.754 15.315 65.6548 15.315C64.5556 15.315 63.7864 16.1925 63.5088 18.0062C63.2289 19.8222 63.1993 21.7013 63.1948 23.876C63.1925 23.9256 63.1948 23.973 63.1948 24.0226C63.1948 24.0294 63.1948 24.0361 63.1948 24.0451C63.1948 24.0519 63.1948 24.0609 63.1948 24.0677C63.1948 24.1151 63.1925 24.1625 63.1948 24.2121C63.197 26.3867 63.2266 28.2658 63.5088 30.0818C63.7864 31.8955 64.5556 32.7753 65.6548 32.7753C66.754 32.7753 67.5687 31.9316 67.835 29.969C67.9533 29.0847 68.1126 26.1115 68.1399 24.1173Z" fill="#231F20" stroke="#231F20" stroke-width="0.196474" stroke-miterlimit="10"/>
</g>
<defs>
<linearGradient id="paint0_linear_0_48" x1="0" y1="44.4651" x2="94.9962" y2="44.4651" gradientUnits="userSpaceOnUse">
<stop stop-color="#FFF100"/>
<stop offset="1" stop-color="#FFF100"/>
</linearGradient>
<linearGradient id="paint1_linear_0_48" x1="24.4358" y1="78.6879" x2="24.4358" y2="40.065" gradientUnits="userSpaceOnUse">
<stop offset="0.5015" stop-color="#EC1C24"/>
<stop offset="1" stop-color="#F9A51A"/>
</linearGradient>
<linearGradient id="paint2_linear_0_48" x1="58.0663" y1="78.4706" x2="58.0663" y2="37.1857" gradientUnits="userSpaceOnUse">
<stop offset="0.5015" stop-color="#EC1C24"/>
<stop offset="1" stop-color="#F9A51A"/>
</linearGradient>
<linearGradient id="paint3_linear_0_48" x1="42.3905" y1="78.7257" x2="42.3905" y2="36.7748" gradientUnits="userSpaceOnUse">
<stop offset="0.5015" stop-color="#EC1C24"/>
<stop offset="1" stop-color="#F9A51A"/>
</linearGradient>
<linearGradient id="paint4_linear_0_48" x1="72.8486" y1="78.6203" x2="72.8486" y2="44.6436" gradientUnits="userSpaceOnUse">
<stop offset="0.5015" stop-color="#EC1C24"/>
<stop offset="1" stop-color="#F9A51A"/>
</linearGradient>
<clipPath id="clip0_0_48">
<rect width="95" height="89" fill="white"/>
</clipPath>
</defs>
</svg>
