<svg width="414" height="1002" viewBox="0 0 414 1002" fill="none" xmlns="http://www.w3.org/2000/svg">
<path d="M80.5183 -153.346C80.5183 -153.346 85.2618 -135.069 60.4318 -135.069C21.9864 -135.069 7.19972 -174.448 7.19972 -174.448C7.19972 -174.448 15.4861 -141.934 15.4861 -118.826C15.4861 -95.7188 12.5581 -72.018 2.45625 -76.8768C0.406606 -71.453 -1.67232 -52.0743 9.57143 -52.0743C20.8152 -52.0743 27.3155 -87.4419 24.9438 -107.696C32.0297 -78.3175 32.0296 -77.4418 32.0296 -62.0462C32.0296 -46.6505 25.8222 -11.848 7.78531 -20.0966C7.78531 -20.0966 -4.33685 4.42335 16.3645 4.42336C31.0048 4.42336 46.7285 -26.1136 40.8724 -64.6168C41.7801 -65.4925 49.1881 -50.0686 49.1881 -31.5092C49.1881 -12.9497 42.395 29.2541 6.61408 29.2541C6.61408 29.2541 7.19969 53.7741 32.9666 53.7741C58.7335 53.7741 67.2542 -4.701 60.4611 -25.3227C60.4611 -25.3227 105.114 37.1355 105.114 75.9494C105.114 119.876 44.7667 128.718 44.7667 85.6388C44.5543 80.9686 45.8482 76.3499 48.4703 72.4188C51.0923 68.4878 54.9133 65.4379 59.407 63.6894C59.407 63.6894 7.78531 57.7854 7.78531 104.283C7.78531 167.024 117.793 157.334 117.793 89.7348C117.793 59.2826 110.092 45.4972 110.092 45.4972C126.723 74.9042 169.092 93.7179 153.573 130.526C153.573 130.526 157.116 135.215 167.306 135.215C177.496 135.215 203.233 113.831 167.306 73.8308C187.275 82.3054 232.953 108.068 232.953 148.069C232.953 161.148 222.763 159.199 222.763 159.199C225.275 166.243 230.02 172.346 236.326 176.645C242.632 180.944 250.179 183.221 257.9 183.154C285.629 183.154 299.596 148.069 240.332 104.622C279.597 115.922 313.973 150.837 313.973 176.939C313.973 215.894 247.418 221.036 247.418 197.504C226.131 218.041 246.1 246.262 275.381 246.262C295.116 246.262 321.937 222.73 321.937 203.493C327.559 239.793 298.278 268.889 252.161 268.889C216.38 268.889 194.244 237.448 221.475 209.821C221.739 209.595 215.619 205.273 203.38 205.273C191.14 205.273 169.063 212.674 169.063 245.216C169.063 277.759 200.422 311.404 266.655 295.415C266.655 295.415 211.344 323.664 140.397 270.584C140.983 258.324 131.818 254.341 131.818 254.341C138.611 247.759 144.526 244.906 144.526 222.109C144.526 181.883 115.245 172.165 115.245 172.165C115.245 199.849 95.1293 210.979 95.1293 232.363C95.0096 236.779 95.903 241.165 97.7455 245.209C99.5881 249.252 102.334 252.853 105.787 255.753C105.787 255.753 88.9218 246.346 72.3783 246.346C38.647 246.346 16.1888 261.46 7.31682 257.646C7.31682 257.646 22.9819 287.307 64.6775 287.307C78.8471 286.99 92.6377 282.83 104.47 275.302C108.042 280.443 123.034 287.279 133.75 280.443C133.75 280.443 186.455 319.511 230.757 319.511C246.865 319.189 262.845 316.669 278.221 312.025C278.221 312.025 266.069 331.121 266.069 350.528C266.069 387.901 311.044 385.048 311.044 352.534C304.222 359.088 295.936 353.099 295.936 338.268C295.936 292.053 342.375 269.793 342.375 215.866C342.375 128.295 259.569 102.871 259.569 102.871C259.569 102.871 369.284 117.701 369.284 215.273C369.284 230.103 363.955 240.697 364.247 241.516C364.54 242.335 385.242 247.787 391.156 214.143C392.357 212.985 400.936 265.188 357.454 274.906C357.454 287.449 382.577 287.731 400.936 268.352C400.936 290.019 370.777 334.229 337.046 330.81C337.046 346.234 355.082 370.189 394.406 349.37C394.406 356.489 355.668 405.274 313.68 405.274C281.471 405.274 272.306 387.026 272.306 387.026C272.306 387.026 256.026 404.144 272.892 425.246C289.757 446.348 334.996 441.235 346.503 429.229C346.503 429.229 306.301 469.738 250.99 442.93C250.99 442.93 235.325 474.88 281.764 474.88C281.764 474.88 254.386 490.445 200.949 490.445C53.9022 490.445 76.0969 353.918 161.245 353.918C242.059 353.918 235.647 435.303 184.874 435.303C134.102 435.303 145.228 376.178 157.702 376.178C115.128 376.178 102.859 465.783 184.874 465.783C266.069 465.783 273.038 325.669 165.256 325.669C76.9753 325.669 81.426 428.806 81.426 428.806C81.426 428.806 58.3529 403.128 31.649 403.128C4.94508 403.128 -1.46737 417.252 0.904357 433.099C1.92918 431.8 22.777 406.998 77.7659 454.484C71.9098 454.484 59.1435 445.501 39.2034 445.501C19.2633 445.501 -4.71751 459.625 8.57588 480.586C36.5389 469.908 59.1435 489.569 75.9213 487.874C75.9213 487.874 23.5675 488.721 20.0246 541.349C78.1466 505.417 133.136 502.846 133.136 502.846C133.136 502.846 104.294 529.795 120.721 553.694C137.586 527.592 155.857 509.597 182.386 505.671C208.914 501.744 414.346 507.253 414.346 268.607C414.346 124.396 278.924 99.283 278.924 99.283C278.924 99.283 414.346 103.266 414.346 -42.2154C414.346 -201.398 171.874 -247.613 171.874 -107.838C171.874 -14.2491 296.082 -21.6785 296.082 -77.583C296.082 -104.984 281.295 -110.126 281.295 -110.126C281.295 -66.7637 202.033 -61.6224 202.033 -124.25C202.033 -186.878 297.839 -193.855 361.729 -132.216C321.498 -146.341 310.254 -111.114 310.254 -111.114C310.254 -111.114 361.729 -124.25 390.102 -86.5661C390.102 -86.5661 356.986 -102.555 332.741 -79.7299C388.375 -70.0405 397.159 -35.803 397.159 -35.803C397.159 -35.803 373.5 -48.9104 359.328 -36.9329C358.743 -36.9329 403.688 -24.9554 386.53 25.2145C369.371 75.3845 305.51 89.1134 275.264 89.1134C211.373 89.1134 168.799 63.4634 168.799 63.4634C168.799 63.4634 201.33 70.2997 231.489 56.599C232.075 56.034 237.989 67.4465 257.52 62.2487C272.892 77.0794 307.882 86.458 346.21 58.2657C300.972 62.8137 306.301 33.9999 261.941 44.1412C276.435 36.4293 278.514 27.5874 278.514 15.0449C278.514 2.50244 271.106 -8.06264 271.106 -18.0627C271.093 -20.9556 271.752 -23.8144 273.034 -26.4296C274.315 -29.0448 276.188 -31.3499 278.514 -33.1758C278.514 -33.1758 235.032 -35.7465 235.032 5.60981C235.163 14.5749 238.239 23.2687 243.816 30.4406C243.816 30.4406 226.658 36.0903 228.444 50.2148C207.947 56.486 147.717 73.6048 107.193 21.9659C151.553 51.9097 214.536 51.9097 214.536 9.42343C214.536 -13.4016 191.111 -19.9554 191.111 -19.9554C198.783 -7.41291 159.459 31.966 81.1039 -7.69537C74.8964 -17.413 70.7386 -23.6842 70.7386 -23.6842C70.7386 -23.6842 101.835 -1.53714 128.421 -1.53713C155.008 -1.53713 169.414 -12.6672 169.414 -31.4809C169.414 -50.2947 151.085 -55.7467 151.085 -55.7467C151.085 -45.7466 130.588 -29.786 103.474 -29.786C76.3605 -29.786 49.9494 -54.306 41.3702 -80.2666C81.3089 -41.7635 135.068 -56.3116 135.068 -84.278C135.068 -112.244 114.542 -108.883 114.542 -108.883C125.786 -91.9334 44.4446 -62.3851 21.6936 -139.42C21.6936 -139.42 40.9017 -106.595 72.2612 -106.595C103.621 -106.595 107.427 -135.352 80.5183 -153.346Z" fill="#FFD391" fill-opacity="0.14"/>
<path d="M75.8043 96.5714C78.3826 96.5714 80.903 95.8334 83.0464 94.4509C85.1897 93.0683 86.8598 91.1034 87.8451 88.8047C88.8304 86.5061 89.0868 83.9771 88.5816 81.5378C88.0765 79.0986 86.8326 76.8587 85.0074 75.1018C83.1822 73.3449 80.8578 72.1499 78.3283 71.668C75.7988 71.1862 73.1781 71.4392 70.7977 72.395C68.4173 73.3507 66.3843 74.9663 64.9561 77.0373C63.5279 79.1082 62.7687 81.5414 62.7744 84.0289C62.7744 85.6784 63.1117 87.3117 63.7668 88.8352C64.422 90.3588 65.3823 91.7427 66.5926 92.9078C67.8029 94.0728 69.2395 94.9961 70.8202 95.6248C72.4009 96.2534 74.0946 96.5751 75.8043 96.5714Z" fill="#FFD391" fill-opacity="0.14"/>
<path d="M186.397 414.173C189.628 414.173 192.787 413.248 195.474 411.516C198.161 409.784 200.255 407.323 201.492 404.442C202.728 401.562 203.052 398.393 202.422 395.335C201.791 392.277 200.235 389.469 197.95 387.264C195.665 385.06 192.754 383.558 189.584 382.95C186.415 382.342 183.13 382.654 180.144 383.847C177.159 385.04 174.607 387.061 172.812 389.653C171.017 392.245 170.058 395.292 170.058 398.41C170.058 402.591 171.78 406.6 174.844 409.556C177.908 412.512 182.064 414.173 186.397 414.173Z" fill="#FFD391" fill-opacity="0.14"/>
<path d="M53.1117 241.77C47.0213 237.307 45.2352 232.081 45.2352 224.51C45.2352 214.199 50.7399 209.453 54.0193 207.561C57.5922 205.644 61.6477 204.724 65.7316 204.905C73.7545 204.905 79.7277 211.092 85.5253 218.691C89.9759 200.866 100.634 192.871 98.3795 178.775C92.7869 143.662 51.8233 152.362 47.2263 173.125C26.9934 160.554 5.09148 184.425 22.6891 205.498C-12.4476 206.063 -10.2808 246.007 17.6528 246.007C26.847 245.922 43.0684 242.278 53.1117 241.77Z" fill="#FFD391" fill-opacity="0.14"/>
<path d="M87.487 238.776C87.8969 239.2 56.1274 242.787 56.1274 224.651C56.1274 215.386 62.4813 215.527 65.7315 215.527C72.1146 215.386 81.8651 233.352 87.487 238.776Z" fill="#FFD391" fill-opacity="0.14"/>
<path d="M160.454 216.968C160.454 216.968 147.805 191.939 154.92 169.199C163.324 142.363 193.483 146.995 193.483 165.611C193.483 180.386 177.73 184.651 160.454 216.968Z" fill="#FFD391" fill-opacity="0.14"/>
<path d="M70.3283 406.969C70.3283 406.969 18.4431 376.432 18.4431 332.223C18.4431 291.431 68.2201 305.697 64.2673 336.206C61.0757 361.545 53.9312 384.709 70.3283 406.969Z" fill="#FFD391" fill-opacity="0.14"/>
<path d="M319.448 103.125C318.54 102.955 389.546 104.283 409.662 53.7742C411.565 55.6386 423.833 80.2998 400.877 95.1305C412.414 95.1305 417.743 110.046 417.743 110.046C417.743 110.046 409.603 122.532 397.774 123.379C397.774 123.379 422.896 136.515 409.779 169.481C410.276 169.058 383.046 115.102 319.448 103.125Z" fill="#FFD391" fill-opacity="0.14"/>
<path d="M290.079 3.01088C293.636 -0.0512158 298.029 -2.06472 302.736 -2.79075C307.443 -3.51678 312.268 -2.92484 316.637 -1.0852C320.152 0.50094 323.124 3.02514 325.199 6.18896C327.275 9.35277 328.368 13.0238 328.349 16.768C328.239 20.3389 327.351 23.8473 325.741 27.0646C324.132 30.282 321.838 33.1359 319.009 35.4405L318.804 35.6383C316.192 37.9439 313.23 39.8493 310.019 41.2881C310.019 41.2881 335.581 55.808 354.204 39.3954C372.826 22.9828 367.819 10.1578 350.514 5.29903C359.533 -1.2547 359.679 -10.3791 354.497 -17.3C349.314 -24.221 335.581 -23.1475 335.581 -23.1475C335.581 -23.1475 340.296 -43.2607 321.38 -43.2607C302.465 -43.2607 288.118 -32.4414 286.419 -18.3735C285.708 -11.0602 286.969 -3.6936 290.079 3.01088Z" fill="#FFD391" fill-opacity="0.14"/>
<path d="M284.282 33.8021C294.911 30.8077 301.265 36.7965 311.63 27.8133C326.563 14.1126 310.283 0.581438 296.99 11.1183C288.411 18.237 288.996 27.9546 284.282 33.8021Z" fill="#FFD391" fill-opacity="0.14"/>
<path d="M0.377438 626.632C0.377438 626.632 44.2983 645.446 56.0106 595.813C98.1454 683.695 201.359 691.661 257.549 706.52C313.738 721.379 268.763 749.289 268.763 749.289C309.581 759.571 337.368 720.786 283.55 701.944C336.255 691.661 361.642 707.593 361.642 739.034C361.641 776.69 303.08 762.989 303.08 762.989C303.08 762.989 332.361 782.961 357.747 782.961C383.133 782.961 387.906 756.718 387.906 756.718C387.906 756.718 413.907 752.142 413.907 725.334C413.907 646.604 301.294 690.531 247.476 690.531C311.894 671.124 341.965 595.248 289.611 580.361C289.611 580.361 287.122 692.904 186.28 676.915C278.25 676.915 272.336 573.638 233.89 593.044C249.848 593.044 237.433 652.96 162.328 652.96C77.7661 652.96 62.3645 585.163 62.3645 585.163C62.3645 585.163 87.4872 628.412 142.915 628.412C233.422 628.412 193.483 547.394 193.483 547.394C193.483 547.394 181.361 589.626 124 589.626C66.6394 589.626 52.4383 541.603 52.4383 541.603C52.4383 541.603 45.4696 604.513 0.377438 626.632Z" fill="#FFD391" fill-opacity="0.14"/>
<path d="M274.21 553.751C260.623 553.751 261.209 503.665 295.496 503.665C323.606 503.665 349.929 518.496 349.929 574.288C349.929 605.672 340.149 623.921 340.149 623.921C340.149 623.921 394.26 572.282 394.26 511.236C394.26 476.462 359.123 483.27 359.123 507.225C359.123 521.49 376.867 516.377 376.867 516.377C378.917 524.626 334.557 534.909 334.557 493.778C334.557 452.648 414.405 439.851 414.405 502.055C414.405 564.259 360.587 615.305 360.587 615.305C365.404 613.093 370.631 611.834 375.96 611.604C411.096 611.604 399.911 660.079 371.831 660.079C359.709 660.079 361.466 651.831 361.466 651.831C372.417 651.831 382.782 629.571 364.13 629.571C345.478 629.571 323.137 658.667 323.137 658.667C318.687 664.317 311.601 664.091 318.101 654.373C328.311 640.022 333.773 623.022 333.766 605.615C333.766 582.197 324.016 541.688 293.857 541.688C289.686 541.468 285.549 542.513 282.026 544.676C278.502 546.839 275.769 550.013 274.21 553.751Z" fill="#FFD391" fill-opacity="0.14"/>
<path d="M339.71 1093.92C340.588 1093.92 354.497 1097.91 354.497 1082.62C354.497 1067.34 336.167 1059.8 304.72 1074.35C273.272 1088.9 273.389 1085.65 284.926 1076.64C296.463 1067.62 332.243 1056.86 332.243 1016.16C332.243 975.449 284.077 984.658 284.077 1010.05C277.84 1010.05 267.797 959.545 317.779 959.545C361.231 959.545 351.188 1016.61 351.188 1016.61C351.188 1016.61 376.018 996.636 376.018 971.24C376.018 945.844 351.774 912.2 307.414 912.2C263.053 912.2 262.468 933.867 262.468 933.867C262.468 933.867 253.889 882.115 307.121 882.115C360.353 882.115 388.287 923.047 388.287 923.047C388.287 923.047 389.633 861.408 299.156 861.408C243.699 861.408 233.948 902.51 233.948 902.51C233.948 902.51 200.686 837.03 288.498 835.843C328.32 835.843 347.938 852.001 347.938 852.001C347.938 852.001 318.657 819.063 274.736 819.063C200.686 819.063 183.82 866.126 183.82 866.126C183.82 866.126 150.557 835.73 189.676 813.922C214.506 801.069 256.202 804.063 256.202 804.063C207.391 792.961 74.34 795.956 74.34 913.612C74.34 994.489 187.89 998.556 187.89 937.708C188.019 933.641 187.299 929.59 185.775 925.795C184.25 922.001 181.951 918.54 179.014 915.619C176.077 912.698 172.562 910.375 168.677 908.789C164.792 907.203 160.617 906.386 156.399 906.386C152.181 906.386 148.005 907.203 144.121 908.789C140.236 910.375 136.721 912.698 133.784 915.619C130.847 918.54 128.548 922.001 127.023 925.795C125.498 929.59 124.779 933.641 124.908 937.708C124.903 942.859 126.263 947.926 128.86 952.426C100.897 949.347 99.5798 875.956 159.517 875.956C238.897 875.956 243.787 1012.48 150.733 1012.48C67.0784 1012.6 58.6163 925.618 58.6163 925.618C58.6163 948.217 24.9143 952.991 24.9143 927.737C55.9517 935.675 59.0555 893.838 59.0555 893.838C59.0555 893.838 45.7621 912.228 28.0181 912.228C10.274 912.228 4.06652 897.115 4.06652 882.002C4.06652 882.002 59.0555 893.838 72.3781 855.307C72.3781 855.307 57.2986 869.007 28.4572 869.007C-0.384144 869.007 -4.3663 824.515 0.347878 824.515C33.5521 864.939 91.1177 835.419 91.1177 835.419C91.1177 835.419 110.56 821.295 114.542 819.092C114.542 819.092 86.4328 831.097 60.9294 831.097C35.426 831.097 -1.43824 818.075 -1.43824 791.549C-1.43824 775.278 8.16579 771.012 8.16579 771.012C8.16579 771.012 33.4642 826.916 136.122 806.945C151.436 802.255 154.1 797.877 158.082 797.538C140.719 797.538 104.938 801.973 77.7365 788.272C50.5348 774.571 21.5177 745.758 0.230756 757.198C-5.62536 724.684 21.2542 720.475 21.2542 720.475C3.65659 690.559 32.2637 672.847 35.1918 657.734C45.8499 666.717 77.7658 653.017 93.753 694.09C112.375 670.559 140.309 687.254 140.309 687.254C140.309 687.254 109.711 721.153 131.525 755.729C153.339 790.306 202.94 788.244 202.94 788.244C202.94 788.244 150.235 776.266 150.235 745.447C150.235 714.627 186.543 707.367 207.42 716.774C205.224 717.198 191.023 729.175 191.023 744.599C191.023 760.023 199.807 783.583 239.395 788.272C239.395 786.944 217.639 783.526 217.639 758.3C217.639 736.464 244.255 739.458 244.255 739.458C244.255 739.458 233.246 748.272 244.255 760.419C260.828 778.696 406.294 836.691 406.294 931.889C406.294 967.257 369.635 1016.89 369.635 1016.89C369.635 1016.89 394.787 1009.21 406.294 1032C387.964 1030.31 348.641 1047.99 332.683 1058.56C347.762 1053.13 357.805 1055.42 358.684 1054.83C398.623 1059.12 386.5 1106.5 361.612 1106.5C344.893 1106.5 338.685 1093.92 339.71 1093.92ZM84.9688 722.678C74.2521 695.616 34.0206 710.475 49.6271 736.803C65.2337 763.131 116.358 777.566 116.358 777.566C99.1406 766.577 95.422 749.882 84.7053 722.678L84.9688 722.678Z" fill="#FFD391" fill-opacity="0.14"/>
<path d="M266.245 962.398C267.153 962.398 243.055 1002.96 265.22 1070.31C252.805 1062.6 250.141 1062.03 242.762 1062.03C228.122 1062.03 226.804 1080.87 244.841 1080.87C240.683 1083.7 215.561 1090.56 215.561 1067.46C215.561 1044.35 241.913 1050.34 241.913 1050.34C236.057 1031.49 185.724 1026.1 185.724 1059.18C185.724 1077.14 199.105 1087.99 210.612 1086.86C210.612 1107.96 157.614 1108.81 157.614 1069.91C157.614 1036.81 196.352 1027.4 196.352 1027.4C177.73 1027.4 159.108 1035.11 141.656 1052.82C142.388 1052.12 142.535 1060.82 138.113 1065.08C142.727 1070.35 145.24 1077.03 145.199 1083.92C145.199 1098.47 132.199 1107.03 123.034 1109.04C123.034 1088.76 114.747 1089.63 114.747 1078.22C114.747 1066.81 115.655 1065.03 115.655 1065.03C115.655 1065.03 99.1116 1066.13 92.5234 1064.46C79.0836 1061.04 71.295 1047.68 56.5083 1047.68C56.5083 1046.27 69.2161 1034.55 87.8386 1034.55C106.461 1034.55 119.491 1047.96 119.491 1047.96C119.491 1047.96 128.656 1041.13 134.57 1045.14C140.778 1040.28 169.444 1016.89 200.51 1016.89C231.577 1016.89 243.963 1036.86 243.963 1036.86C243.933 1024.94 201.769 970.392 266.245 962.398Z" fill="#FFD391" fill-opacity="0.14"/>
<path d="M101.015 1024.32C101.015 1014.91 42.1316 970.647 42.1316 1001.52C42.1316 1020.65 78.7031 1012.06 101.015 1024.32Z" fill="#FFD391" fill-opacity="0.14"/>
<path d="M156.238 953.472C159.469 953.472 162.628 952.547 165.315 950.815C168.002 949.083 170.096 946.621 171.333 943.741C172.569 940.861 172.893 937.691 172.263 934.634C171.632 931.576 170.076 928.767 167.791 926.563C165.506 924.358 162.595 922.857 159.425 922.249C156.256 921.64 152.971 921.953 149.985 923.146C147 924.339 144.448 926.359 142.653 928.951C140.858 931.544 139.899 934.591 139.899 937.709C139.899 941.889 141.621 945.899 144.685 948.855C147.749 951.811 151.905 953.472 156.238 953.472Z" fill="#FFD391" fill-opacity="0.14"/>
<path d="M40.3746 957.568C40.3746 957.568 1.4021 986.664 1.4021 1057.37C1.40209 1107.31 20.1417 1135.48 44.6203 1135.54C69.0989 1135.59 48.2803 1102.23 36.6852 1102.2C49.4809 1114.72 18.9119 1118.53 14.1977 1074.43C9.62995 1031.95 16.3645 1007.51 40.3746 957.568Z" fill="#FFD391" fill-opacity="0.14"/>
</svg>
