<svg width="771" height="909" viewBox="0 0 771 909" fill="none" xmlns="http://www.w3.org/2000/svg">
<g opacity="0.4">
<mask id="mask0_0_539" style="mask-type:alpha" maskUnits="userSpaceOnUse" x="0" y="0" width="1095" height="1095">
<circle cx="547.5" cy="547.5" r="547.5" fill="url(#paint0_radial_0_539)"/>
</mask>
<g mask="url(#mask0_0_539)">
<path d="M378.021 2609.61C378.021 2609.61 384.43 2584.01 350.881 2584.01C298.935 2584.01 278.955 2639.17 278.955 2639.17C278.955 2639.17 290.152 2593.63 290.152 2561.26C290.152 2528.9 286.195 2495.71 272.546 2502.51C269.777 2494.91 266.968 2467.77 282.16 2467.77C297.352 2467.77 306.135 2517.31 302.931 2545.68C312.505 2504.53 312.505 2503.3 312.505 2481.74C312.505 2460.18 304.117 2411.43 279.747 2422.99C279.747 2422.99 263.368 2388.64 291.339 2388.64C311.12 2388.64 332.365 2431.41 324.453 2485.34C325.679 2486.57 335.689 2464.96 335.689 2438.97C335.689 2412.98 326.51 2353.87 278.164 2353.87C278.164 2353.87 278.955 2319.53 313.771 2319.53C348.586 2319.53 360.099 2401.42 350.92 2430.31C350.92 2430.31 411.254 2342.83 411.254 2288.47C411.254 2226.94 329.715 2214.56 329.715 2274.9C329.428 2281.44 331.176 2287.91 334.719 2293.41C338.262 2298.92 343.425 2303.19 349.496 2305.64C349.496 2305.64 279.747 2313.91 279.747 2248.78C279.747 2160.91 428.385 2174.48 428.385 2269.16C428.385 2311.81 417.98 2331.12 417.98 2331.12C440.452 2289.93 497.699 2263.58 476.731 2212.03C476.731 2212.03 481.518 2205.46 495.286 2205.46C509.054 2205.46 543.83 2235.41 495.286 2291.43C522.268 2279.57 583.986 2243.48 583.986 2187.46C583.986 2169.14 570.218 2171.87 570.218 2171.87C573.613 2162.01 580.023 2153.46 588.544 2147.44C597.064 2141.41 607.262 2138.23 617.694 2138.32C655.16 2138.32 674.032 2187.46 593.956 2248.31C647.01 2232.48 693.457 2183.58 693.457 2147.02C693.457 2092.46 603.53 2085.26 603.53 2118.22C574.768 2089.46 601.75 2049.93 641.313 2049.93C667.979 2049.93 704.218 2082.89 704.218 2109.83C711.814 2058.99 672.252 2018.24 609.94 2018.24C561.594 2018.24 531.684 2062.28 568.478 2100.97C568.834 2101.29 560.565 2107.34 544.028 2107.34C527.49 2107.34 497.66 2096.98 497.66 2051.4C497.66 2005.82 540.032 1958.7 629.523 1981.09C629.523 1981.09 554.789 1941.53 458.928 2015.87C459.719 2033.04 447.336 2038.62 447.336 2038.62C456.514 2047.84 464.506 2051.83 464.506 2083.76C464.506 2140.1 424.943 2153.71 424.943 2153.71C424.943 2114.94 397.763 2099.35 397.763 2069.4C397.601 2063.21 398.809 2057.07 401.298 2051.41C403.788 2045.74 407.498 2040.7 412.164 2036.64C412.164 2036.64 389.376 2049.81 367.023 2049.81C321.446 2049.81 291.101 2028.65 279.114 2033.99C279.114 2033.99 300.28 1992.45 356.618 1992.45C375.763 1992.89 394.397 1998.72 410.384 2009.26C415.211 2002.06 435.467 1992.49 449.947 2002.06C449.947 2002.06 521.16 1947.34 581.019 1947.34C602.784 1947.79 624.376 1951.32 645.151 1957.83C645.151 1957.83 628.732 1931.08 628.732 1903.9C628.732 1851.56 689.501 1855.55 689.501 1901.09C680.283 1891.91 669.086 1900.3 669.086 1921.07C669.086 1985.8 731.833 2016.98 731.833 2092.5C731.833 2215.15 619.949 2250.76 619.949 2250.76C619.949 2250.76 768.192 2229.99 768.192 2093.34C768.192 2072.56 760.991 2057.73 761.387 2056.58C761.783 2055.43 789.754 2047.8 797.745 2094.92C799.368 2096.54 810.959 2023.42 752.208 2009.81C752.208 1992.25 786.153 1991.85 810.959 2018.99C810.959 1988.65 770.21 1926.73 724.633 1931.52C724.633 1909.91 749.004 1876.36 802.137 1905.52C802.137 1895.55 749.795 1827.22 693.062 1827.22C649.542 1827.22 637.159 1852.78 637.159 1852.78C637.159 1852.78 615.162 1828.81 637.95 1799.25C660.739 1769.7 721.864 1776.86 737.412 1793.67C737.412 1793.67 683.092 1736.94 608.357 1774.48C608.357 1774.48 587.191 1729.74 649.938 1729.74C649.938 1729.74 612.947 1707.94 540.744 1707.94C342.058 1707.94 372.047 1899.15 487.097 1899.15C596.29 1899.15 587.626 1785.17 519.024 1785.17C450.422 1785.17 465.456 1867.98 482.309 1867.98C424.785 1867.98 408.208 1742.48 519.024 1742.48C628.732 1742.48 638.148 1938.72 492.517 1938.72C373.234 1938.72 379.248 1794.27 379.248 1794.27C379.248 1794.27 348.072 1830.23 311.991 1830.23C275.909 1830.23 267.245 1810.45 270.449 1788.25C271.834 1790.07 300.003 1824.81 374.302 1758.3C366.39 1758.3 349.14 1770.88 322.198 1770.88C295.255 1770.88 262.853 1751.1 280.815 1721.75C318.598 1736.7 349.14 1709.16 371.81 1711.54C371.81 1711.54 301.071 1710.35 296.284 1636.64C374.817 1686.97 449.116 1690.57 449.116 1690.57C449.116 1690.57 410.146 1652.82 432.341 1619.35C455.13 1655.91 479.817 1681.11 515.661 1686.61C551.505 1692.11 829.079 1684.4 829.079 2018.64C829.079 2220.61 646.1 2255.79 646.1 2255.79C646.1 2255.79 829.079 2250.21 829.079 2453.97C829.079 2676.91 501.458 2741.64 501.458 2545.87C501.458 2414.8 669.284 2425.2 669.284 2503.5C669.284 2541.88 649.305 2549.08 649.305 2549.08C649.305 2488.35 542.208 2481.15 542.208 2568.86C542.208 2656.58 671.658 2666.35 757.985 2580.02C703.625 2599.8 688.433 2550.46 688.433 2550.46C688.433 2550.46 757.985 2568.86 796.321 2516.08C796.321 2516.08 751.575 2538.48 718.817 2506.51C793.987 2492.94 805.856 2444.98 805.856 2444.98C805.856 2444.98 773.889 2463.34 754.74 2446.57C753.949 2446.57 814.678 2429.79 791.494 2359.53C768.311 2289.26 682.024 2270.03 641.155 2270.03C554.828 2270.03 497.304 2305.95 497.304 2305.95C497.304 2305.95 541.258 2296.38 582.008 2315.57C582.799 2316.36 590.791 2300.38 617.18 2307.66C637.95 2286.88 685.228 2273.75 737.016 2313.23C675.891 2306.86 683.092 2347.22 623.154 2333.02C642.737 2343.82 645.546 2356.2 645.546 2373.77C645.546 2391.34 635.537 2406.13 635.537 2420.14C635.52 2424.19 636.41 2428.19 638.142 2431.86C639.874 2435.52 642.404 2438.75 645.546 2441.3C645.546 2441.3 586.795 2444.91 586.795 2386.98C586.973 2374.43 591.128 2362.25 598.664 2352.21C598.664 2352.21 575.48 2344.29 577.894 2324.51C550.199 2315.73 468.818 2291.75 414.063 2364.08C474.001 2322.14 559.101 2322.14 559.101 2381.64C559.101 2413.61 527.451 2422.79 527.451 2422.79C537.816 2405.22 484.683 2350.07 378.812 2405.62C370.425 2419.23 364.807 2428.01 364.807 2428.01C364.807 2428.01 406.823 2396.99 442.746 2396.99C478.67 2396.99 498.135 2412.58 498.135 2438.93C498.135 2465.28 473.368 2472.92 473.368 2472.92C473.368 2458.91 445.674 2436.56 409.039 2436.56C372.403 2436.56 336.717 2470.9 325.125 2507.26C379.089 2453.33 451.727 2473.71 451.727 2512.88C451.727 2552.05 423.993 2547.34 423.993 2547.34C439.186 2523.6 329.28 2482.21 298.539 2590.11C298.539 2590.11 324.492 2544.13 366.864 2544.13C409.236 2544.13 414.38 2584.41 378.021 2609.61Z" fill="url(#paint1_linear_0_539)"/>
<path d="M371.652 2259.58C375.135 2259.58 378.541 2260.62 381.437 2262.55C384.333 2264.49 386.589 2267.24 387.921 2270.46C389.252 2273.68 389.598 2277.22 388.916 2280.64C388.233 2284.06 386.553 2287.19 384.087 2289.65C381.62 2292.12 378.48 2293.79 375.062 2294.46C371.644 2295.14 368.103 2294.78 364.887 2293.45C361.67 2292.11 358.924 2289.84 356.994 2286.94C355.064 2284.04 354.038 2280.64 354.046 2277.15C354.046 2274.84 354.502 2272.55 355.387 2270.42C356.272 2268.29 357.57 2266.35 359.205 2264.72C360.84 2263.08 362.781 2261.79 364.917 2260.91C367.053 2260.03 369.341 2259.58 371.652 2259.58Z" fill="url(#paint2_linear_0_539)"/>
<path d="M521.081 1814.76C525.448 1814.76 529.716 1816.06 533.346 1818.48C536.977 1820.91 539.806 1824.36 541.477 1828.39C543.148 1832.42 543.585 1836.86 542.733 1841.15C541.881 1845.43 539.779 1849.36 536.692 1852.45C533.604 1855.54 529.671 1857.64 525.388 1858.49C521.106 1859.34 516.667 1858.91 512.633 1857.24C508.599 1855.56 505.151 1852.73 502.726 1849.1C500.3 1845.47 499.005 1841.2 499.005 1836.84C499.005 1830.98 501.331 1825.37 505.471 1821.23C509.611 1817.09 515.226 1814.76 521.081 1814.76Z" fill="url(#paint3_linear_0_539)"/>
<path d="M600.168 2543.9C604.534 2543.9 608.802 2545.19 612.433 2547.62C616.063 2550.04 618.893 2553.49 620.563 2557.52C622.234 2561.56 622.672 2566 621.82 2570.28C620.968 2574.56 618.865 2578.5 615.778 2581.58C612.691 2584.67 608.757 2586.77 604.475 2587.63C600.192 2588.48 595.753 2588.04 591.72 2586.37C587.686 2584.7 584.238 2581.87 581.812 2578.24C579.386 2574.61 578.092 2570.34 578.092 2565.97C578.092 2560.12 580.417 2554.5 584.558 2550.36C588.698 2546.22 594.313 2543.9 600.168 2543.9Z" fill="url(#paint4_linear_0_539)"/>
<path d="M340.99 2056.22C332.761 2062.48 330.348 2069.79 330.348 2080.4C330.348 2094.84 337.786 2101.49 342.217 2104.14C347.044 2106.82 352.524 2108.11 358.042 2107.86C368.882 2107.86 376.953 2099.19 384.787 2088.55C390.8 2113.51 405.201 2124.71 402.155 2144.45C394.598 2193.63 339.249 2181.45 333.038 2152.37C305.7 2169.97 276.107 2136.54 299.884 2107.02C252.409 2106.23 255.336 2050.29 293.079 2050.29C305.502 2050.41 327.42 2055.51 340.99 2056.22Z" fill="url(#paint5_linear_0_539)"/>
<path d="M387.437 2060.42C387.991 2059.82 345.065 2054.8 345.065 2080.2C345.065 2093.18 353.65 2092.98 358.042 2092.98C366.667 2093.18 379.841 2068.01 387.437 2060.42Z" fill="url(#paint6_linear_0_539)"/>
<path d="M486.028 2090.96C486.028 2090.96 468.937 2126.02 478.551 2157.86C489.906 2195.45 530.655 2188.96 530.655 2162.89C530.655 2142.2 509.371 2136.22 486.028 2090.96Z" fill="url(#paint7_linear_0_539)"/>
<path d="M364.253 1824.85C364.253 1824.85 294.148 1867.62 294.148 1929.54C294.148 1986.67 361.405 1966.69 356.064 1923.96C351.751 1888.47 342.098 1856.03 364.253 1824.85Z" fill="url(#paint8_linear_0_539)"/>
<path d="M700.856 2250.41C699.629 2250.64 795.57 2248.78 822.749 2319.53C825.321 2316.91 841.898 2282.37 810.88 2261.6C826.468 2261.6 833.669 2240.71 833.669 2240.71C833.669 2240.71 822.67 2223.23 806.687 2222.04C806.687 2222.04 840.632 2203.64 822.908 2157.47C823.58 2158.06 786.787 2233.63 700.856 2250.41Z" fill="url(#paint9_linear_0_539)"/>
<path d="M661.174 2390.62C665.98 2394.91 671.915 2397.73 678.275 2398.75C684.636 2399.77 691.154 2398.94 697.057 2396.36C701.808 2394.14 705.822 2390.6 708.627 2386.17C711.431 2381.74 712.908 2376.6 712.883 2371.35C712.734 2366.35 711.534 2361.44 709.359 2356.93C707.185 2352.43 704.085 2348.43 700.262 2345.2L699.985 2344.93C696.457 2341.7 692.454 2339.03 688.116 2337.01C688.116 2337.01 722.655 2316.68 747.817 2339.66C772.979 2362.65 766.214 2380.61 742.832 2387.42C755.017 2396.6 755.215 2409.38 748.213 2419.07C741.21 2428.76 722.655 2427.26 722.655 2427.26C722.655 2427.26 729.024 2455.43 703.467 2455.43C677.909 2455.43 658.523 2440.28 656.228 2420.57C655.267 2410.33 656.971 2400.01 661.174 2390.62Z" fill="url(#paint10_linear_0_539)"/>
<path d="M653.34 2347.5C667.702 2351.69 676.287 2343.3 690.292 2355.89C710.469 2375.07 688.472 2394.03 670.511 2379.27C658.919 2369.3 659.71 2355.69 653.34 2347.5Z" fill="url(#paint11_linear_0_539)"/>
<path d="M378.022 792.573C378.022 792.573 384.431 766.936 350.881 766.935C298.935 766.935 278.956 822.049 278.956 822.049C278.956 822.049 290.152 776.51 290.152 744.146C290.152 711.783 286.196 678.628 272.546 685.393C269.777 677.836 266.968 650.655 282.16 650.655C297.353 650.655 306.135 700.19 302.931 728.558C312.505 687.411 312.505 686.224 312.505 664.622C312.505 643.019 304.118 594.315 279.747 605.908C279.747 605.908 263.368 571.526 291.339 571.526C311.12 571.526 332.366 614.296 324.453 668.222C325.68 669.448 335.689 647.846 335.689 621.892C335.689 595.938 326.51 536.789 278.164 536.789C278.164 536.789 278.956 502.407 313.771 502.407C348.587 502.407 360.099 584.306 350.921 613.188C350.921 613.188 411.254 525.671 411.254 471.31C411.254 409.787 329.715 397.403 329.715 457.739C329.42 464.286 331.164 470.764 334.707 476.278C338.251 481.791 343.418 486.069 349.497 488.52C349.497 488.52 279.589 496.908 279.589 431.784C279.589 343.872 428.227 357.443 428.227 452.16C428.227 494.811 417.822 514.079 417.822 514.079C440.294 472.932 497.541 446.542 476.573 395.029C476.573 395.029 481.36 388.422 495.128 388.422C508.896 388.422 543.672 418.372 495.128 474.435C522.11 462.566 583.828 426.483 583.828 370.42C583.828 352.102 570.061 354.871 570.061 354.871C573.453 345.001 579.862 336.448 588.382 330.42C596.902 324.393 607.1 321.195 617.536 321.281C655.002 321.281 673.874 370.42 593.798 431.27C646.852 415.444 693.299 366.543 693.299 329.985C693.299 275.426 603.373 268.264 603.373 301.222C574.61 272.458 601.592 232.894 641.155 232.894C667.821 232.894 704.061 265.851 704.061 292.834C711.657 241.994 672.094 201.242 609.782 201.242C561.436 201.242 531.526 245.238 568.32 283.932C568.676 284.288 560.407 290.341 543.87 290.341C527.332 290.341 497.502 279.936 497.502 234.397C497.502 188.859 539.874 141.698 629.366 164.051C629.366 164.051 554.631 124.487 458.77 198.829C459.306 203.348 458.49 207.924 456.427 211.98C454.364 216.036 451.145 219.39 447.178 221.618C456.356 230.797 464.348 234.793 464.348 266.761C464.348 323.101 424.785 336.672 424.785 336.672C424.785 297.898 397.605 282.35 397.605 252.36C397.449 246.176 398.659 240.034 401.148 234.372C403.637 228.709 407.345 223.665 412.006 219.6C412.006 219.6 389.614 232.815 367.26 232.815C321.684 232.815 291.339 211.648 279.351 216.989C279.351 216.989 300.518 175.446 356.855 175.446C375.955 176.04 394.503 181.99 410.384 192.617C415.211 185.456 435.467 175.842 449.947 185.456C449.947 185.456 521.161 130.699 581.019 130.699C602.772 131.049 624.365 134.486 645.151 140.906C645.151 140.906 628.733 114.121 628.733 86.9404C628.733 34.5967 689.501 38.5925 689.501 84.1709C680.283 74.9524 669.087 83.3401 669.087 103.953C669.087 168.72 731.834 199.858 731.834 275.386C731.834 398.036 619.95 433.644 619.95 433.644C619.95 433.644 768.192 412.873 768.192 276.217C768.192 255.446 760.992 240.609 761.387 239.462C761.783 238.314 789.754 230.678 797.746 277.839C799.368 279.422 810.96 206.307 752.209 192.697C752.209 175.13 786.154 174.734 810.96 201.915C810.96 171.529 770.21 109.611 724.633 114.398C724.633 92.8354 749.004 59.2451 802.137 88.4438C802.137 78.4341 749.795 10.1062 693.062 10.1062C649.543 10.1062 637.159 35.7043 637.159 35.7043C637.159 35.7043 615.162 11.7285 637.951 -17.8657C660.739 -47.46 721.864 -40.22 737.412 -23.4446C737.412 -23.4446 683.092 -80.1802 608.358 -42.6336C608.358 -42.6336 587.191 -87.3809 649.938 -87.3809C649.938 -87.3809 612.947 -109.141 540.744 -109.141C342.059 -109.141 372.048 82.0344 487.097 82.0344C596.291 82.0344 587.627 -31.9114 519.024 -31.9114C450.422 -31.9114 465.258 50.8181 482.112 50.8181C424.587 50.8178 408.01 -74.6807 518.826 -74.6807C628.535 -74.6807 637.951 121.56 492.319 121.56C373.037 121.56 379.05 -22.8909 379.05 -22.8909C379.05 -22.8909 347.875 13.0734 311.793 13.0734C275.712 13.0734 267.047 -6.70879 270.252 -28.865C271.637 -27.0845 299.805 7.69282 374.105 -58.8545C366.192 -58.8545 348.943 -46.2732 322 -46.2732C295.058 -46.2732 262.656 -66.0555 280.617 -95.4124C318.4 -80.4175 348.943 -107.994 371.612 -105.581C371.612 -105.581 300.874 -106.807 296.087 -180.516C374.619 -130.15 448.919 -126.589 448.919 -126.589C448.919 -126.589 409.949 -164.334 432.144 -197.805C454.932 -161.248 479.619 -136.085 515.464 -130.546C551.308 -125.007 828.882 -132.722 828.882 201.519C828.882 403.298 645.903 438.629 645.903 438.629C645.903 438.629 828.882 433.051 828.882 636.808C828.882 859.793 501.26 924.521 501.26 728.716C501.26 597.679 669.087 608.045 669.087 686.382C669.087 724.72 649.107 731.921 649.107 731.921C649.107 671.19 542.01 663.989 542.01 751.703C542.01 839.418 671.461 849.19 757.787 762.9C703.427 782.682 688.235 733.306 688.235 733.306C688.235 733.306 757.787 751.703 796.124 698.964C796.124 698.964 751.378 721.318 718.62 689.35C793.789 675.779 805.658 627.827 805.658 627.827C805.658 627.827 773.691 646.224 754.543 629.449C753.752 629.449 814.481 612.634 791.297 542.407C768.113 472.18 681.826 452.912 640.957 452.912C554.631 452.912 497.106 488.876 497.106 488.876C497.106 488.876 541.061 479.262 581.811 498.451C582.602 499.242 590.594 483.258 616.982 490.538C637.753 469.767 685.031 456.671 736.819 496.156C675.694 489.747 682.894 530.102 622.956 515.938C642.54 526.739 645.349 539.123 645.349 556.729C645.349 574.335 635.34 589.093 635.34 603.059C635.317 607.112 636.204 611.118 637.937 614.781C639.669 618.445 642.202 621.673 645.349 624.226C645.349 624.226 586.598 627.827 586.598 569.904C586.775 557.348 590.931 545.172 598.467 535.127C598.467 535.127 575.283 527.214 577.696 507.432C550.002 498.648 468.621 474.672 413.866 546.996C473.804 505.058 558.904 505.058 558.904 564.603C558.904 596.531 527.253 605.75 527.253 605.75C537.619 588.144 484.486 533.03 378.615 588.579C370.228 602.149 364.61 610.933 364.61 610.933C364.61 610.933 406.19 579.756 442.114 579.756C478.037 579.756 497.502 595.344 497.502 621.734C497.502 648.123 472.735 655.68 472.735 655.68C472.735 641.714 445.041 619.32 408.406 619.32C371.771 619.32 336.085 653.702 324.493 690.062C378.457 636.096 451.094 656.471 451.094 695.64C451.094 734.809 423.123 730.022 423.123 730.022C438.316 706.283 328.409 664.859 297.669 772.751C297.669 772.751 323.622 726.817 365.994 726.817C408.366 726.817 414.38 767.41 378.022 792.573Z" fill="url(#paint12_linear_0_539)"/>
<path d="M371.652 442.506C375.134 442.506 378.538 443.539 381.433 445.473C384.328 447.408 386.585 450.158 387.917 453.375C389.25 456.592 389.598 460.132 388.919 463.547C388.24 466.963 386.563 470.1 384.101 472.562C381.639 475.024 378.502 476.701 375.087 477.38C371.671 478.06 368.132 477.711 364.915 476.378C361.698 475.046 358.948 472.789 357.013 469.894C355.079 466.998 354.046 463.594 354.046 460.112C354.041 457.799 354.493 455.507 355.376 453.369C356.259 451.23 357.555 449.287 359.191 447.651C360.827 446.015 362.77 444.719 364.908 443.836C367.047 442.953 369.338 442.501 371.652 442.506Z" fill="url(#paint13_linear_0_539)"/>
<path d="M521.081 -2.23806C525.448 -2.23806 529.716 -0.943386 533.346 1.4824C536.977 3.90842 539.806 7.35618 541.477 11.3901C543.148 15.4243 543.585 19.8633 542.733 24.1457C541.882 28.4282 539.779 32.3623 536.692 35.4497C533.604 38.5373 529.671 40.6399 525.388 41.4917C521.106 42.3435 516.667 41.9062 512.633 40.2353C508.599 38.5644 505.152 35.7346 502.726 32.104C500.3 28.4736 499.005 24.2053 499.005 19.8388C499.005 13.9836 501.331 8.36862 505.471 4.22824C509.611 0.0881064 515.227 -2.23806 521.081 -2.23806Z" fill="url(#paint14_linear_0_539)"/>
<path d="M600.168 726.896C604.534 726.896 608.802 728.191 612.433 730.617C616.063 733.043 618.893 736.491 620.564 740.525C622.235 744.559 622.672 748.998 621.82 753.28C620.968 757.563 618.866 761.497 615.778 764.584C612.691 767.672 608.757 769.774 604.475 770.626C600.192 771.478 595.754 771.041 591.72 769.37C587.686 767.699 584.238 764.869 581.812 761.239C579.386 757.608 578.092 753.34 578.092 748.973C578.087 746.073 578.654 743.199 579.762 740.519C580.869 737.838 582.495 735.402 584.546 733.351C586.597 731.3 589.033 729.674 591.714 728.566C594.394 727.458 597.267 726.891 600.168 726.896Z" fill="url(#paint15_linear_0_539)"/>
<path d="M340.991 239.224C332.761 245.436 330.348 252.755 330.348 263.358C330.348 277.839 337.786 284.486 342.217 287.097C347.045 289.782 352.524 291.07 358.042 290.816C368.882 290.816 376.953 282.191 384.787 271.509C390.8 296.474 405.201 307.71 402.155 327.453C394.598 376.592 339.25 364.406 333.038 335.366C305.7 352.932 276.107 319.54 299.885 290.025C252.409 289.194 255.337 233.25 293.08 233.25C305.503 233.368 327.42 238.472 340.991 239.224Z" fill="url(#paint16_linear_0_539)"/>
<path d="M387.437 243.378C387.991 242.824 345.065 237.8 345.065 263.358C345.065 276.335 353.651 276.137 358.042 276.137C366.667 276.137 379.841 250.974 387.437 243.378Z" fill="url(#paint17_linear_0_539)"/>
<path d="M486.028 273.962C486.028 273.962 468.937 309.016 478.551 340.825C489.906 378.412 530.656 371.923 530.656 345.85C530.656 325.198 509.371 319.184 486.028 273.962Z" fill="url(#paint18_linear_0_539)"/>
<path d="M364.254 7.85079C364.254 7.85079 294.346 50.5803 294.346 112.538C294.346 169.669 361.603 149.689 356.262 106.92C351.752 71.4309 342.098 38.9484 364.254 7.85079Z" fill="url(#paint19_linear_0_539)"/>
<path d="M700.856 433.367C699.629 433.604 795.57 431.784 822.749 502.486C825.321 499.875 841.898 465.335 810.881 444.564C826.468 444.564 833.669 423.713 833.669 423.713C833.669 423.713 822.67 406.186 806.687 405C806.687 405 840.632 386.602 822.908 340.43C823.58 341.063 786.787 416.592 700.856 433.367Z" fill="url(#paint20_linear_0_539)"/>
<path d="M661.174 573.583C665.981 577.87 671.914 580.692 678.272 581.715C684.63 582.739 691.149 581.922 697.058 579.36C701.79 577.115 705.789 573.574 708.59 569.148C711.391 564.723 712.88 559.593 712.883 554.355C712.728 549.35 711.525 544.432 709.351 539.921C707.177 535.409 704.081 531.404 700.262 528.164L699.986 527.926C696.454 524.701 692.452 522.032 688.117 520.013C688.117 520.013 722.655 499.677 747.817 522.664C772.979 545.651 766.214 563.613 742.832 570.418C755.018 579.597 755.216 592.377 748.213 602.07C741.21 611.763 722.655 610.26 722.655 610.26C722.655 610.26 729.025 638.43 703.467 638.43C677.909 638.43 658.523 623.237 656.229 603.534C655.273 593.291 656.976 582.975 661.174 573.583Z" fill="url(#paint21_linear_0_539)"/>
<path d="M653.341 530.458C667.702 534.652 676.287 526.264 690.293 538.846C710.47 558.034 688.473 577.025 670.511 562.228C658.919 552.218 659.71 538.648 653.341 530.458Z" fill="url(#paint22_linear_0_539)"/>
<path d="M269.737 1517.2C269.737 1517.2 329.082 1490.85 344.907 1560.36C401.838 1437.28 541.298 1426.12 617.22 1405.31C693.141 1384.5 632.372 1345.41 632.372 1345.41C687.523 1331.01 725.068 1385.33 652.351 1411.72C723.565 1426.12 757.866 1403.8 757.866 1359.77C757.866 1307.03 678.74 1326.22 678.74 1326.22C678.74 1326.22 718.303 1298.25 752.604 1298.25C786.905 1298.25 793.354 1335 793.354 1335C793.354 1335 828.486 1341.41 828.486 1378.96C828.486 1489.22 676.327 1427.7 603.61 1427.7C690.648 1454.88 731.28 1561.15 660.541 1582C660.541 1582 657.178 1424.38 520.923 1446.77C645.191 1446.77 637.199 1591.42 585.253 1564.24C606.814 1564.24 590.04 1480.32 488.56 1480.32C374.302 1480.32 353.492 1575.28 353.492 1575.28C353.492 1575.28 387.437 1514.7 462.33 1514.7C584.62 1514.7 530.656 1628.18 530.656 1628.18C530.656 1628.18 514.276 1569.03 436.772 1569.03C359.268 1569.03 340.08 1636.29 340.08 1636.29C340.08 1636.29 330.664 1548.18 269.737 1517.2Z" fill="url(#paint23_linear_0_539)"/>
<path d="M639.731 1619.27C621.374 1619.27 622.165 1689.42 668.493 1689.42C706.474 1689.42 742.041 1668.65 742.041 1590.51C742.041 1546.55 728.827 1520.99 728.827 1520.99C728.827 1520.99 801.939 1593.32 801.939 1678.82C801.939 1727.52 754.464 1717.99 754.464 1684.44C754.464 1664.46 778.439 1671.62 778.439 1671.62C781.208 1660.06 721.27 1645.66 721.27 1703.27C721.27 1760.87 829.159 1778.8 829.159 1691.68C829.159 1604.56 756.442 1533.06 756.442 1533.06C762.949 1536.16 770.012 1537.92 777.212 1538.25C824.688 1538.25 809.575 1470.35 771.634 1470.35C755.255 1470.35 757.629 1481.91 757.629 1481.91C772.425 1481.91 786.431 1513.08 761.229 1513.08C736.027 1513.08 705.841 1472.33 705.841 1472.33C699.827 1464.42 690.253 1464.73 699.036 1478.34C712.831 1498.44 720.211 1522.25 720.202 1546.63C720.202 1579.43 707.028 1636.17 666.278 1636.17C660.643 1636.48 655.053 1635.01 650.292 1631.98C645.531 1628.95 641.838 1624.51 639.731 1619.27Z" fill="url(#paint24_linear_0_539)"/>
<path d="M728.233 862.721C729.42 862.721 748.213 857.143 748.213 878.547C748.213 899.951 723.446 910.515 680.956 890.139C638.465 869.764 638.623 874.314 654.211 886.935C669.799 899.556 718.145 914.63 718.145 971.642C718.145 1028.65 653.064 1015.76 653.064 980.188C644.637 980.188 631.067 1050.93 698.601 1050.93C757.312 1050.93 743.742 971.009 743.742 971.009C743.742 971.009 777.292 998.981 777.292 1034.55C777.292 1070.12 744.533 1117.24 684.595 1117.24C624.657 1117.24 623.866 1086.89 623.866 1086.89C623.866 1086.89 612.274 1159.38 684.2 1159.38C756.125 1159.38 793.869 1102.05 793.869 1102.05C793.869 1102.05 795.688 1188.38 673.439 1188.38C598.506 1188.38 585.332 1130.81 585.332 1130.81C585.332 1130.81 540.388 1222.52 659.038 1224.18C712.843 1224.18 739.351 1201.55 739.351 1201.55C739.351 1201.55 699.788 1247.68 640.443 1247.68C540.388 1247.68 517.6 1181.77 517.6 1181.77C517.6 1181.77 472.656 1224.34 525.512 1254.88C559.062 1272.89 615.4 1268.69 615.4 1268.69C549.448 1284.24 369.674 1280.05 369.674 1115.26C369.674 1001.99 523.099 996.291 523.099 1081.51C523.273 1087.21 522.301 1092.88 520.241 1098.2C518.18 1103.51 515.074 1108.36 511.106 1112.45C507.138 1116.54 502.388 1119.79 497.139 1122.02C491.89 1124.24 486.249 1125.38 480.549 1125.38C474.849 1125.38 469.208 1124.24 463.959 1122.02C458.71 1119.79 453.961 1116.54 449.992 1112.45C446.024 1108.36 442.918 1103.51 440.857 1098.2C438.797 1092.88 437.825 1087.21 437.999 1081.51C437.992 1074.3 439.831 1067.2 443.34 1060.9C405.557 1065.21 403.777 1168 484.763 1168C592.018 1168 598.625 976.785 472.894 976.785C359.862 976.627 348.428 1098.45 348.428 1098.45C348.428 1066.79 302.891 1060.11 302.891 1095.48C344.828 1084.36 349.022 1142.96 349.022 1142.96C349.022 1142.96 331.06 1117.2 307.085 1117.2C283.11 1117.2 274.722 1138.37 274.722 1159.53C274.722 1159.53 349.022 1142.96 367.023 1196.92C367.023 1196.92 346.648 1177.73 307.678 1177.73C268.709 1177.73 263.328 1240.05 269.698 1240.05C314.562 1183.43 392.343 1224.78 392.343 1224.78C392.343 1224.78 418.613 1244.56 423.994 1247.64C423.994 1247.64 386.013 1230.83 351.554 1230.83C317.094 1230.83 267.284 1249.07 267.284 1286.22C267.284 1309.01 280.261 1314.98 280.261 1314.98C280.261 1314.98 314.444 1236.68 453.152 1264.66C473.843 1271.22 477.443 1277.36 482.824 1277.83C459.363 1277.83 411.017 1271.62 374.263 1290.81C337.509 1310 298.302 1350.35 269.54 1334.33C261.627 1379.87 297.946 1385.76 297.946 1385.76C274.168 1427.66 312.822 1452.47 316.778 1473.64C331.179 1461.06 374.302 1480.24 395.904 1422.72C421.066 1455.67 458.809 1432.29 458.809 1432.29C458.809 1432.29 417.466 1384.81 446.94 1336.39C476.415 1287.96 543.434 1290.85 543.434 1290.85C543.434 1290.85 472.221 1307.62 472.221 1350.79C472.221 1393.95 521.279 1404.12 549.488 1390.95C546.52 1390.35 527.332 1373.58 527.332 1351.98C527.332 1330.37 539.201 1297.38 592.69 1290.81C592.69 1292.67 563.295 1297.46 563.295 1332.79C563.295 1363.37 599.258 1359.18 599.258 1359.18C599.258 1359.18 584.382 1346.83 599.258 1329.82C621.651 1304.22 818.2 1223 818.2 1089.66C818.2 1040.13 768.667 970.613 768.667 970.613C768.667 970.613 802.652 981.375 818.2 949.447C793.433 951.82 740.3 927.053 718.738 912.256C739.113 919.852 752.683 916.647 753.87 917.478C807.834 911.464 791.455 845.115 757.827 845.115C735.236 845.115 726.849 862.721 728.233 862.721ZM384.035 1382.68C369.555 1420.58 315.195 1399.77 336.282 1362.9C357.37 1326.02 426.447 1305.8 426.447 1305.8C403.184 1321.19 398.159 1344.58 383.679 1382.68L384.035 1382.68Z" fill="url(#paint25_linear_0_539)"/>
<path d="M628.97 1046.93C630.196 1046.93 597.636 990.119 627.585 895.797C610.81 906.598 607.21 907.39 597.24 907.39C577.459 907.39 575.678 881 600.049 881C594.431 877.044 560.486 867.429 560.486 899.793C560.486 932.157 596.093 923.769 596.093 923.769C588.18 950.159 520.171 957.716 520.171 911.386C520.171 886.223 538.252 871.03 553.8 872.613C553.8 843.058 482.191 841.871 482.191 896.351C482.191 942.721 534.533 955.896 534.533 955.896C509.371 955.896 484.209 945.095 460.629 920.288C461.618 921.277 461.816 909.091 455.842 903.117C462.076 895.742 465.472 886.384 465.416 876.727C465.416 856.351 447.85 844.363 435.467 841.554C435.467 869.962 424.271 868.735 424.271 884.719C424.271 900.703 425.497 903.196 425.497 903.196C425.497 903.196 403.144 901.653 394.242 903.987C376.083 908.774 365.559 927.488 345.58 927.488C345.58 929.467 362.75 945.886 387.912 945.886C413.074 945.886 430.68 927.093 430.68 927.093C430.68 927.093 443.063 936.667 451.055 931.049C459.442 937.854 498.174 970.613 540.151 970.613C582.127 970.614 598.862 942.641 598.862 942.641C598.823 959.338 541.852 1035.74 628.97 1046.93Z" fill="url(#paint26_linear_0_539)"/>
<path d="M414.222 868.774C406.625 858.606 396.458 854.689 388.07 855.797C383.665 856.287 379.598 858.397 376.659 861.716C373.721 865.035 372.119 869.327 372.166 873.759C372.211 877.326 373.12 880.829 374.817 883.967C376.762 887.605 379.364 890.852 382.492 893.542C382.492 893.542 365.361 908.22 344.274 908.22C323.187 908.22 320.536 872.335 355.352 866.361C337.113 845.946 345.698 815.56 383.244 838.666C386.488 803.058 421.897 815.916 421.897 849.783C422.062 853.315 421.461 856.841 420.136 860.118C418.811 863.396 416.794 866.349 414.222 868.774Z" fill="url(#paint27_linear_0_539)"/>
<path d="M414.38 893.977C414.38 893.977 393.174 893.542 385.182 878.467C377.191 863.393 405.122 859.477 414.38 893.977Z" fill="url(#paint28_linear_0_539)"/>
<path d="M478.156 854.254C472.735 810.219 443.301 806.777 440.65 785.174C437.999 763.572 479.936 757.479 485.356 801.435C489.352 833.957 478.156 854.254 478.156 854.254Z" fill="url(#paint29_linear_0_539)"/>
<path d="M405.716 960.208C405.716 973.383 326.154 1035.38 326.154 992.137C326.154 965.351 375.569 977.379 405.716 960.208Z" fill="url(#paint30_linear_0_539)"/>
<path d="M353.057 953.521C324.77 942.601 327.262 922.503 313.494 917.161C299.726 911.82 288.53 938.566 316.817 949.486C328.246 954.334 340.842 955.736 353.057 953.521Z" fill="url(#paint31_linear_0_539)"/>
<path d="M480.331 1059.44C484.698 1059.44 488.966 1060.73 492.596 1063.16C496.227 1065.58 499.056 1069.03 500.727 1073.06C502.398 1077.1 502.835 1081.54 501.983 1085.82C501.131 1090.1 499.029 1094.04 495.942 1097.12C492.854 1100.21 488.921 1102.31 484.638 1103.17C480.356 1104.02 475.917 1103.58 471.883 1101.91C467.849 1100.24 464.401 1097.41 461.976 1093.78C459.55 1090.15 458.255 1085.88 458.255 1081.51C458.255 1075.66 460.581 1070.04 464.721 1065.9C468.861 1061.76 474.476 1059.44 480.331 1059.44Z" fill="url(#paint32_linear_0_539)"/>
<path d="M323.781 1053.7C323.781 1053.7 271.122 1012.95 271.122 913.917C271.122 843.967 296.442 804.521 329.517 804.442C362.592 804.363 334.463 851.089 318.796 851.129C336.085 833.602 294.781 828.26 288.411 890.02C282.239 949.525 291.339 983.749 323.781 1053.7Z" fill="url(#paint33_linear_0_539)"/>
<path d="M269.737 -299.842C269.737 -299.842 329.082 -326.192 344.907 -256.677C401.838 -379.723 541.298 -390.92 617.22 -411.691C693.141 -432.463 632.372 -471.631 632.372 -471.631C687.523 -486.033 725.069 -431.671 652.352 -405.321C723.565 -390.92 757.866 -413.234 757.866 -457.27C757.866 -510.009 678.74 -490.821 678.74 -490.821C678.74 -490.821 718.303 -518.792 752.604 -518.792C786.906 -518.792 793.354 -482.037 793.354 -482.037C793.354 -482.037 828.486 -475.627 828.486 -438.081C828.486 -327.775 676.327 -389.337 603.61 -389.337C690.649 -362.156 731.28 -255.886 660.541 -235.036C660.541 -235.036 657.178 -392.7 520.923 -370.307C645.191 -370.307 637.199 -225.658 585.253 -252.839C606.815 -252.839 590.04 -336.756 488.561 -336.756C374.303 -336.756 353.492 -241.801 353.492 -241.801C353.492 -241.801 387.279 -302.533 462.172 -302.533C584.461 -302.533 530.497 -189.062 530.497 -189.062C530.497 -189.062 514.118 -248.408 436.614 -248.408C359.11 -248.408 339.922 -181.148 339.922 -181.148C339.922 -181.148 330.665 -268.863 269.737 -299.842Z" fill="url(#paint34_linear_0_539)"/>
<path d="M639.731 -197.726C621.374 -197.726 622.165 -127.618 668.493 -127.618C706.474 -127.618 742.041 -148.389 742.041 -226.292C742.041 -270.248 728.827 -295.846 728.827 -295.846C728.827 -295.846 801.94 -223.522 801.94 -137.984C801.94 -89.3193 754.464 -98.8545 754.464 -132.405C754.464 -152.385 778.439 -145.185 778.439 -145.185C781.209 -156.777 721.271 -171.178 721.271 -113.533C721.271 -55.8875 829.159 -38.0437 829.159 -125.125C829.159 -212.207 756.442 -283.779 756.442 -283.779C762.944 -280.659 770.008 -278.882 777.213 -278.556C824.688 -278.556 809.575 -346.489 771.634 -346.489C755.255 -346.489 757.629 -334.896 757.629 -334.896C772.426 -334.896 786.431 -303.759 761.229 -303.759C736.028 -303.759 705.841 -344.511 705.841 -344.511C699.827 -352.423 690.253 -352.107 699.036 -338.497C712.833 -318.382 720.212 -294.56 720.202 -270.169C720.202 -237.409 707.028 -180.674 666.278 -180.674C660.624 -180.377 655.021 -181.864 650.257 -184.923C645.494 -187.983 641.812 -192.461 639.731 -197.726Z" fill="url(#paint35_linear_0_539)"/>
<path d="M728.234 -954.318C729.421 -954.318 748.213 -959.897 748.213 -938.493C748.213 -917.088 723.447 -906.524 680.956 -926.9C638.465 -947.276 638.623 -942.726 654.211 -930.105C669.799 -917.484 718.145 -902.41 718.145 -845.397C718.145 -788.385 653.064 -801.283 653.064 -836.851C644.637 -836.851 631.067 -766.11 698.601 -766.11C757.312 -766.11 743.742 -846.03 743.742 -846.03C743.742 -846.03 777.292 -818.058 777.292 -782.49C777.292 -746.921 744.534 -699.8 684.596 -699.8C624.658 -699.8 623.866 -730.146 623.866 -730.146C623.866 -730.146 612.274 -657.624 684.2 -657.624C756.126 -657.624 793.869 -714.953 793.869 -714.953C793.869 -714.953 795.689 -628.663 673.439 -628.663C598.506 -628.663 585.332 -686.19 585.332 -686.19C585.332 -686.19 540.388 -594.519 659.038 -592.857C712.844 -592.857 739.351 -615.488 739.351 -615.488C739.351 -615.488 699.788 -569.316 640.443 -569.316C540.388 -569.316 517.6 -635.27 517.6 -635.27C517.6 -635.27 472.656 -592.699 525.513 -562.155C559.062 -544.153 615.4 -548.347 615.4 -548.347C549.448 -532.759 369.674 -536.952 369.674 -701.778C369.674 -815.051 523.099 -820.748 523.099 -735.487C522.762 -724.426 518.131 -713.931 510.188 -706.227C502.245 -698.522 491.615 -694.213 480.549 -694.213C469.484 -694.213 458.853 -698.522 450.91 -706.227C442.967 -713.931 438.337 -724.426 437.999 -735.487C437.982 -742.702 439.821 -749.801 443.34 -756.1C405.558 -751.788 403.777 -649.039 484.763 -649.039C592.018 -649.039 598.625 -840.214 472.894 -840.214C360.218 -840.214 348.824 -718.554 348.824 -718.554C348.824 -750.205 303.287 -756.931 303.287 -721.56C345.224 -732.678 349.418 -674.083 349.418 -674.083C349.418 -674.083 331.456 -699.879 307.481 -699.879C283.506 -699.879 275.118 -678.712 275.118 -657.506C275.118 -657.506 349.418 -674.083 367.419 -620.157C367.419 -620.157 347.044 -639.345 308.074 -639.345C269.105 -639.345 263.724 -576.992 270.094 -576.992C314.958 -633.648 392.739 -592.303 392.739 -592.303C392.739 -592.303 419.009 -572.521 424.389 -569.395C424.389 -569.395 386.409 -586.25 351.95 -586.25C317.49 -586.25 267.68 -568.011 267.68 -530.86C267.68 -508.071 280.657 -502.096 280.657 -502.096C280.657 -502.096 314.839 -580.394 453.547 -552.422C474.239 -545.854 477.839 -539.682 483.22 -539.247C459.759 -539.247 411.413 -545.419 374.659 -526.27C337.905 -507.121 298.698 -466.923 269.935 -482.749C262.023 -437.21 298.342 -431.315 298.342 -431.315C274.169 -389.337 312.822 -364.609 316.778 -343.363C331.179 -355.945 374.303 -336.796 395.904 -394.322C421.066 -361.365 458.809 -384.748 458.809 -384.748C458.809 -384.748 417.466 -432.225 446.94 -480.613C476.415 -529 543.435 -526.191 543.435 -526.191C543.435 -526.191 472.221 -509.376 472.221 -466.251C472.221 -423.126 521.279 -412.918 549.488 -426.093C546.521 -426.686 527.332 -443.462 527.332 -465.024C527.332 -486.587 539.201 -519.663 592.691 -526.23C592.691 -524.371 563.295 -519.584 563.295 -484.213C563.295 -453.669 599.258 -457.863 599.258 -457.863C599.258 -457.863 584.382 -470.207 599.258 -487.22C621.651 -512.779 818.2 -594.044 818.2 -727.337C818.2 -776.911 768.667 -846.426 768.667 -846.426C768.667 -846.426 802.652 -835.625 818.2 -867.593C793.434 -865.219 740.3 -889.987 718.739 -904.744C739.114 -897.148 752.684 -900.353 753.87 -899.561C807.834 -905.575 791.455 -971.885 757.827 -971.885C735.236 -971.885 726.849 -954.318 728.234 -954.318ZM384.035 -434.362C369.555 -396.459 315.196 -417.27 336.283 -454.144C357.37 -491.018 426.447 -511.236 426.447 -511.236C403.184 -495.805 398.159 -472.265 383.679 -434.362L384.035 -434.362Z" fill="url(#paint36_linear_0_539)"/>
<path d="M628.97 -770.106C630.196 -770.106 597.636 -826.921 627.585 -921.243C610.811 -910.442 607.21 -909.65 597.24 -909.65C577.459 -909.65 575.679 -936 600.049 -936C594.431 -939.957 560.486 -949.61 560.486 -917.247C560.486 -884.883 596.093 -893.271 596.093 -893.271C588.18 -866.881 520.172 -859.285 520.172 -905.654C520.172 -930.817 538.252 -946.01 553.8 -944.388C553.8 -973.982 482.191 -975.169 482.191 -920.649C482.191 -874.319 534.533 -861.303 534.533 -861.303C509.371 -861.303 484.209 -872.064 460.629 -896.91C461.618 -895.921 461.816 -908.107 455.842 -914.121C462.08 -921.478 465.476 -930.826 465.416 -940.471C465.416 -960.847 447.85 -972.874 435.467 -975.644C435.467 -947.276 424.271 -948.463 424.271 -932.479C424.271 -916.495 425.497 -914.042 425.497 -914.042C425.497 -914.042 403.144 -915.585 394.243 -913.211C376.083 -908.424 365.559 -889.749 345.58 -889.749C345.58 -887.731 362.75 -871.352 387.912 -871.352C413.075 -871.352 430.68 -890.145 430.68 -890.145C430.68 -890.145 443.063 -880.531 451.055 -886.189C459.442 -879.384 498.175 -846.624 540.151 -846.624C582.127 -846.624 598.863 -874.596 598.863 -874.596C598.823 -857.702 541.852 -781.303 628.97 -770.106Z" fill="url(#paint37_linear_0_539)"/>
<path d="M414.222 -948.225C406.626 -958.433 396.458 -962.35 388.071 -961.242C383.636 -960.789 379.531 -958.695 376.56 -955.373C373.589 -952.05 371.965 -947.737 372.008 -943.28C372.053 -939.725 372.962 -936.236 374.659 -933.112C376.594 -929.467 379.197 -926.219 382.334 -923.537C382.334 -923.537 365.203 -908.859 344.116 -908.859C323.029 -908.859 320.378 -944.704 355.194 -950.718C336.955 -971.094 345.54 -1001.52 383.086 -978.413C386.33 -1014.02 421.739 -1001.2 421.739 -967.335C421.931 -963.797 421.358 -960.259 420.061 -956.961C418.764 -953.664 416.773 -950.685 414.222 -948.225Z" fill="url(#paint38_linear_0_539)"/>
<path d="M414.38 -923.063C414.38 -923.063 393.174 -923.498 385.183 -938.532C377.191 -953.567 405.122 -957.563 414.38 -923.063Z" fill="url(#paint39_linear_0_539)"/>
<path d="M478.156 -962.785C472.736 -1006.78 443.301 -1010.26 440.65 -1031.83C437.999 -1053.39 479.936 -1059.52 485.356 -1015.6C489.352 -983.082 478.156 -962.785 478.156 -962.785Z" fill="url(#paint40_linear_0_539)"/>
<path d="M405.716 -856.832C405.716 -843.617 326.155 -781.659 326.155 -824.903C326.155 -851.649 375.569 -839.621 405.716 -856.832Z" fill="url(#paint41_linear_0_539)"/>
<path d="M353.057 -863.518C324.77 -874.438 327.262 -894.537 313.494 -899.838C299.726 -905.14 288.53 -878.473 316.818 -867.554C328.246 -862.705 340.842 -861.303 353.057 -863.518Z" fill="url(#paint42_linear_0_539)"/>
<path d="M502.368 -735.526C502.368 -747.719 492.484 -757.604 480.292 -757.604C468.1 -757.604 458.216 -747.719 458.216 -735.526C458.216 -723.334 468.1 -713.449 480.292 -713.449C492.484 -713.449 502.368 -723.334 502.368 -735.526Z" fill="url(#paint43_linear_0_539)"/>
<path d="M323.781 -763.301C323.781 -763.301 271.122 -804.053 271.122 -903.122C271.122 -973.033 296.443 -1012.48 329.517 -1012.56C362.592 -1012.64 334.463 -965.99 318.796 -965.99C336.085 -983.478 294.781 -988.858 288.411 -927.098C282.24 -867.514 291.339 -833.251 323.781 -763.301Z" fill="url(#paint44_linear_0_539)"/>
</g>
</g>
<defs>
<radialGradient id="paint0_radial_0_539" cx="0" cy="0" r="1" gradientUnits="userSpaceOnUse" gradientTransform="translate(547.5 547.5) rotate(90) scale(514.214)">
<stop offset="0.29979" stop-color="#C4C4C4"/>
<stop offset="1" stop-color="#C4C4C4" stop-opacity="0"/>
</radialGradient>
<linearGradient id="paint1_linear_0_539" x1="263.491" y1="983.92" x2="926.538" y2="-253.624" gradientUnits="userSpaceOnUse">
<stop stop-color="#FFB775"/>
<stop offset="0.530501" stop-color="#FFD177"/>
<stop offset="1" stop-color="#FF7384"/>
</linearGradient>
<linearGradient id="paint2_linear_0_539" x1="263.491" y1="983.92" x2="926.538" y2="-253.624" gradientUnits="userSpaceOnUse">
<stop stop-color="#FFB775"/>
<stop offset="0.530501" stop-color="#FFD177"/>
<stop offset="1" stop-color="#FF7384"/>
</linearGradient>
<linearGradient id="paint3_linear_0_539" x1="263.491" y1="983.92" x2="926.538" y2="-253.624" gradientUnits="userSpaceOnUse">
<stop stop-color="#FFB775"/>
<stop offset="0.530501" stop-color="#FFD177"/>
<stop offset="1" stop-color="#FF7384"/>
</linearGradient>
<linearGradient id="paint4_linear_0_539" x1="263.491" y1="983.92" x2="926.538" y2="-253.624" gradientUnits="userSpaceOnUse">
<stop stop-color="#FFB775"/>
<stop offset="0.530501" stop-color="#FFD177"/>
<stop offset="1" stop-color="#FF7384"/>
</linearGradient>
<linearGradient id="paint5_linear_0_539" x1="263.491" y1="983.92" x2="926.538" y2="-253.624" gradientUnits="userSpaceOnUse">
<stop stop-color="#FFB775"/>
<stop offset="0.530501" stop-color="#FFD177"/>
<stop offset="1" stop-color="#FF7384"/>
</linearGradient>
<linearGradient id="paint6_linear_0_539" x1="263.491" y1="983.92" x2="926.538" y2="-253.624" gradientUnits="userSpaceOnUse">
<stop stop-color="#FFB775"/>
<stop offset="0.530501" stop-color="#FFD177"/>
<stop offset="1" stop-color="#FF7384"/>
</linearGradient>
<linearGradient id="paint7_linear_0_539" x1="263.491" y1="983.92" x2="926.538" y2="-253.624" gradientUnits="userSpaceOnUse">
<stop stop-color="#FFB775"/>
<stop offset="0.530501" stop-color="#FFD177"/>
<stop offset="1" stop-color="#FF7384"/>
</linearGradient>
<linearGradient id="paint8_linear_0_539" x1="263.491" y1="983.92" x2="926.538" y2="-253.624" gradientUnits="userSpaceOnUse">
<stop stop-color="#FFB775"/>
<stop offset="0.530501" stop-color="#FFD177"/>
<stop offset="1" stop-color="#FF7384"/>
</linearGradient>
<linearGradient id="paint9_linear_0_539" x1="263.491" y1="983.92" x2="926.538" y2="-253.624" gradientUnits="userSpaceOnUse">
<stop stop-color="#FFB775"/>
<stop offset="0.530501" stop-color="#FFD177"/>
<stop offset="1" stop-color="#FF7384"/>
</linearGradient>
<linearGradient id="paint10_linear_0_539" x1="263.491" y1="983.92" x2="926.538" y2="-253.624" gradientUnits="userSpaceOnUse">
<stop stop-color="#FFB775"/>
<stop offset="0.530501" stop-color="#FFD177"/>
<stop offset="1" stop-color="#FF7384"/>
</linearGradient>
<linearGradient id="paint11_linear_0_539" x1="263.491" y1="983.92" x2="926.538" y2="-253.624" gradientUnits="userSpaceOnUse">
<stop stop-color="#FFB775"/>
<stop offset="0.530501" stop-color="#FFD177"/>
<stop offset="1" stop-color="#FF7384"/>
</linearGradient>
<linearGradient id="paint12_linear_0_539" x1="263.491" y1="983.92" x2="926.538" y2="-253.624" gradientUnits="userSpaceOnUse">
<stop stop-color="#FFB775"/>
<stop offset="0.530501" stop-color="#FFD177"/>
<stop offset="1" stop-color="#FF7384"/>
</linearGradient>
<linearGradient id="paint13_linear_0_539" x1="263.491" y1="983.92" x2="926.538" y2="-253.624" gradientUnits="userSpaceOnUse">
<stop stop-color="#FFB775"/>
<stop offset="0.530501" stop-color="#FFD177"/>
<stop offset="1" stop-color="#FF7384"/>
</linearGradient>
<linearGradient id="paint14_linear_0_539" x1="263.491" y1="983.92" x2="926.538" y2="-253.624" gradientUnits="userSpaceOnUse">
<stop stop-color="#FFB775"/>
<stop offset="0.530501" stop-color="#FFD177"/>
<stop offset="1" stop-color="#FF7384"/>
</linearGradient>
<linearGradient id="paint15_linear_0_539" x1="263.491" y1="983.92" x2="926.538" y2="-253.624" gradientUnits="userSpaceOnUse">
<stop stop-color="#FFB775"/>
<stop offset="0.530501" stop-color="#FFD177"/>
<stop offset="1" stop-color="#FF7384"/>
</linearGradient>
<linearGradient id="paint16_linear_0_539" x1="263.491" y1="983.92" x2="926.538" y2="-253.624" gradientUnits="userSpaceOnUse">
<stop stop-color="#FFB775"/>
<stop offset="0.530501" stop-color="#FFD177"/>
<stop offset="1" stop-color="#FF7384"/>
</linearGradient>
<linearGradient id="paint17_linear_0_539" x1="263.491" y1="983.92" x2="926.538" y2="-253.624" gradientUnits="userSpaceOnUse">
<stop stop-color="#FFB775"/>
<stop offset="0.530501" stop-color="#FFD177"/>
<stop offset="1" stop-color="#FF7384"/>
</linearGradient>
<linearGradient id="paint18_linear_0_539" x1="263.491" y1="983.92" x2="926.538" y2="-253.624" gradientUnits="userSpaceOnUse">
<stop stop-color="#FFB775"/>
<stop offset="0.530501" stop-color="#FFD177"/>
<stop offset="1" stop-color="#FF7384"/>
</linearGradient>
<linearGradient id="paint19_linear_0_539" x1="263.491" y1="983.92" x2="926.538" y2="-253.624" gradientUnits="userSpaceOnUse">
<stop stop-color="#FFB775"/>
<stop offset="0.530501" stop-color="#FFD177"/>
<stop offset="1" stop-color="#FF7384"/>
</linearGradient>
<linearGradient id="paint20_linear_0_539" x1="263.491" y1="983.92" x2="926.538" y2="-253.624" gradientUnits="userSpaceOnUse">
<stop stop-color="#FFB775"/>
<stop offset="0.530501" stop-color="#FFD177"/>
<stop offset="1" stop-color="#FF7384"/>
</linearGradient>
<linearGradient id="paint21_linear_0_539" x1="263.491" y1="983.92" x2="926.538" y2="-253.624" gradientUnits="userSpaceOnUse">
<stop stop-color="#FFB775"/>
<stop offset="0.530501" stop-color="#FFD177"/>
<stop offset="1" stop-color="#FF7384"/>
</linearGradient>
<linearGradient id="paint22_linear_0_539" x1="263.491" y1="983.92" x2="926.538" y2="-253.624" gradientUnits="userSpaceOnUse">
<stop stop-color="#FFB775"/>
<stop offset="0.530501" stop-color="#FFD177"/>
<stop offset="1" stop-color="#FF7384"/>
</linearGradient>
<linearGradient id="paint23_linear_0_539" x1="263.491" y1="983.92" x2="926.538" y2="-253.624" gradientUnits="userSpaceOnUse">
<stop stop-color="#FFB775"/>
<stop offset="0.530501" stop-color="#FFD177"/>
<stop offset="1" stop-color="#FF7384"/>
</linearGradient>
<linearGradient id="paint24_linear_0_539" x1="263.491" y1="983.92" x2="926.538" y2="-253.624" gradientUnits="userSpaceOnUse">
<stop stop-color="#FFB775"/>
<stop offset="0.530501" stop-color="#FFD177"/>
<stop offset="1" stop-color="#FF7384"/>
</linearGradient>
<linearGradient id="paint25_linear_0_539" x1="263.491" y1="983.92" x2="926.538" y2="-253.624" gradientUnits="userSpaceOnUse">
<stop stop-color="#FFB775"/>
<stop offset="0.530501" stop-color="#FFD177"/>
<stop offset="1" stop-color="#FF7384"/>
</linearGradient>
<linearGradient id="paint26_linear_0_539" x1="263.491" y1="983.92" x2="926.538" y2="-253.624" gradientUnits="userSpaceOnUse">
<stop stop-color="#FFB775"/>
<stop offset="0.530501" stop-color="#FFD177"/>
<stop offset="1" stop-color="#FF7384"/>
</linearGradient>
<linearGradient id="paint27_linear_0_539" x1="263.491" y1="983.92" x2="926.538" y2="-253.624" gradientUnits="userSpaceOnUse">
<stop stop-color="#FFB775"/>
<stop offset="0.530501" stop-color="#FFD177"/>
<stop offset="1" stop-color="#FF7384"/>
</linearGradient>
<linearGradient id="paint28_linear_0_539" x1="263.491" y1="983.92" x2="926.538" y2="-253.624" gradientUnits="userSpaceOnUse">
<stop stop-color="#FFB775"/>
<stop offset="0.530501" stop-color="#FFD177"/>
<stop offset="1" stop-color="#FF7384"/>
</linearGradient>
<linearGradient id="paint29_linear_0_539" x1="263.491" y1="983.92" x2="926.538" y2="-253.624" gradientUnits="userSpaceOnUse">
<stop stop-color="#FFB775"/>
<stop offset="0.530501" stop-color="#FFD177"/>
<stop offset="1" stop-color="#FF7384"/>
</linearGradient>
<linearGradient id="paint30_linear_0_539" x1="263.491" y1="983.92" x2="926.538" y2="-253.624" gradientUnits="userSpaceOnUse">
<stop stop-color="#FFB775"/>
<stop offset="0.530501" stop-color="#FFD177"/>
<stop offset="1" stop-color="#FF7384"/>
</linearGradient>
<linearGradient id="paint31_linear_0_539" x1="263.491" y1="983.92" x2="926.538" y2="-253.624" gradientUnits="userSpaceOnUse">
<stop stop-color="#FFB775"/>
<stop offset="0.530501" stop-color="#FFD177"/>
<stop offset="1" stop-color="#FF7384"/>
</linearGradient>
<linearGradient id="paint32_linear_0_539" x1="263.491" y1="983.92" x2="926.538" y2="-253.624" gradientUnits="userSpaceOnUse">
<stop stop-color="#FFB775"/>
<stop offset="0.530501" stop-color="#FFD177"/>
<stop offset="1" stop-color="#FF7384"/>
</linearGradient>
<linearGradient id="paint33_linear_0_539" x1="263.491" y1="983.92" x2="926.538" y2="-253.624" gradientUnits="userSpaceOnUse">
<stop stop-color="#FFB775"/>
<stop offset="0.530501" stop-color="#FFD177"/>
<stop offset="1" stop-color="#FF7384"/>
</linearGradient>
<linearGradient id="paint34_linear_0_539" x1="263.491" y1="983.92" x2="926.538" y2="-253.624" gradientUnits="userSpaceOnUse">
<stop stop-color="#FFB775"/>
<stop offset="0.530501" stop-color="#FFD177"/>
<stop offset="1" stop-color="#FF7384"/>
</linearGradient>
<linearGradient id="paint35_linear_0_539" x1="263.491" y1="983.92" x2="926.538" y2="-253.624" gradientUnits="userSpaceOnUse">
<stop stop-color="#FFB775"/>
<stop offset="0.530501" stop-color="#FFD177"/>
<stop offset="1" stop-color="#FF7384"/>
</linearGradient>
<linearGradient id="paint36_linear_0_539" x1="263.491" y1="983.92" x2="926.538" y2="-253.624" gradientUnits="userSpaceOnUse">
<stop stop-color="#FFB775"/>
<stop offset="0.530501" stop-color="#FFD177"/>
<stop offset="1" stop-color="#FF7384"/>
</linearGradient>
<linearGradient id="paint37_linear_0_539" x1="263.491" y1="983.92" x2="926.538" y2="-253.624" gradientUnits="userSpaceOnUse">
<stop stop-color="#FFB775"/>
<stop offset="0.530501" stop-color="#FFD177"/>
<stop offset="1" stop-color="#FF7384"/>
</linearGradient>
<linearGradient id="paint38_linear_0_539" x1="263.491" y1="983.92" x2="926.538" y2="-253.624" gradientUnits="userSpaceOnUse">
<stop stop-color="#FFB775"/>
<stop offset="0.530501" stop-color="#FFD177"/>
<stop offset="1" stop-color="#FF7384"/>
</linearGradient>
<linearGradient id="paint39_linear_0_539" x1="263.491" y1="983.92" x2="926.538" y2="-253.624" gradientUnits="userSpaceOnUse">
<stop stop-color="#FFB775"/>
<stop offset="0.530501" stop-color="#FFD177"/>
<stop offset="1" stop-color="#FF7384"/>
</linearGradient>
<linearGradient id="paint40_linear_0_539" x1="263.491" y1="983.92" x2="926.538" y2="-253.624" gradientUnits="userSpaceOnUse">
<stop stop-color="#FFB775"/>
<stop offset="0.530501" stop-color="#FFD177"/>
<stop offset="1" stop-color="#FF7384"/>
</linearGradient>
<linearGradient id="paint41_linear_0_539" x1="263.491" y1="983.92" x2="926.538" y2="-253.624" gradientUnits="userSpaceOnUse">
<stop stop-color="#FFB775"/>
<stop offset="0.530501" stop-color="#FFD177"/>
<stop offset="1" stop-color="#FF7384"/>
</linearGradient>
<linearGradient id="paint42_linear_0_539" x1="263.491" y1="983.92" x2="926.538" y2="-253.624" gradientUnits="userSpaceOnUse">
<stop stop-color="#FFB775"/>
<stop offset="0.530501" stop-color="#FFD177"/>
<stop offset="1" stop-color="#FF7384"/>
</linearGradient>
<linearGradient id="paint43_linear_0_539" x1="263.491" y1="983.92" x2="926.538" y2="-253.624" gradientUnits="userSpaceOnUse">
<stop stop-color="#FFB775"/>
<stop offset="0.530501" stop-color="#FFD177"/>
<stop offset="1" stop-color="#FF7384"/>
</linearGradient>
<linearGradient id="paint44_linear_0_539" x1="263.491" y1="983.92" x2="926.538" y2="-253.624" gradientUnits="userSpaceOnUse">
<stop stop-color="#FFB775"/>
<stop offset="0.530501" stop-color="#FFD177"/>
<stop offset="1" stop-color="#FF7384"/>
</linearGradient>
</defs>
</svg>
