<svg width="480" height="3020" viewBox="0 0 480 3020" fill="none" xmlns="http://www.w3.org/2000/svg">
<path d="M95.7309 42.9065C95.7309 42.9065 101.136 63.7332 72.8423 63.7332C29.0335 63.7332 12.184 18.8608 12.184 18.8608C12.184 18.8608 21.6264 55.9111 21.6264 82.2422C21.6264 108.573 18.2899 135.581 6.77882 130.044C4.44324 136.224 2.0743 158.306 14.8866 158.306C27.6989 158.306 35.106 118.005 32.4034 94.925C40.4779 128.402 40.4778 129.4 40.4778 146.943C40.4778 164.487 33.4044 204.145 12.8513 194.745C12.8513 194.745 -0.961952 222.686 22.6274 222.686C39.3101 222.686 57.2273 187.889 50.5542 144.014C51.5885 143.016 60.03 160.592 60.03 181.741C60.03 202.889 52.2892 250.981 11.5167 250.981C11.5167 250.981 12.184 278.921 41.5455 278.921C70.9071 278.921 80.6164 212.289 72.8756 188.79C72.8756 188.79 123.758 259.961 123.758 304.19C123.758 354.245 54.9918 364.32 54.9918 315.231C54.7497 309.91 56.2242 304.646 59.212 300.167C62.1998 295.688 66.5539 292.212 71.6745 290.22C71.6745 290.22 12.8513 283.492 12.8513 336.476C12.8513 407.97 138.205 396.929 138.205 319.899C138.205 285.198 129.43 269.49 129.43 269.49C148.381 302.999 196.661 324.437 178.977 366.381C178.977 366.381 183.015 371.724 194.626 371.724C206.237 371.724 235.565 347.356 194.626 301.776C217.381 311.433 269.431 340.79 269.431 386.37C269.431 401.274 257.82 399.053 257.82 399.053C260.682 407.08 266.089 414.035 273.274 418.933C280.46 423.832 289.06 426.427 297.858 426.35C329.455 426.35 345.371 386.37 277.839 336.863C322.582 349.739 361.753 389.525 361.753 419.268C361.753 463.658 285.914 469.516 285.914 442.702C261.657 466.104 284.412 498.262 317.777 498.262C340.266 498.262 370.828 471.448 370.828 449.527C377.235 490.89 343.869 524.046 291.319 524.046C250.546 524.046 225.322 488.219 256.352 456.737C256.652 456.48 249.679 451.555 235.732 451.555C221.785 451.555 196.628 459.988 196.628 497.071C196.628 534.153 232.362 572.491 307.835 554.272C307.835 554.272 244.807 586.461 163.963 525.977C164.63 512.007 154.187 507.468 154.187 507.468C161.928 499.968 168.668 496.717 168.668 470.74C168.668 424.901 135.302 413.828 135.302 413.828C135.302 445.374 112.38 458.057 112.38 482.424C112.244 487.456 113.262 492.454 115.361 497.062C117.461 501.67 120.59 505.773 124.525 509.077C124.525 509.077 105.307 498.358 86.4553 498.358C48.0184 498.358 22.4272 515.58 12.3175 511.234C12.3175 511.234 30.1679 545.033 77.6802 545.033C93.8266 544.672 109.541 539.931 123.024 531.353C127.094 537.211 144.177 545.001 156.389 537.211C156.389 537.211 216.447 581.73 266.929 581.73C285.284 581.363 303.493 578.491 321.014 573.199C321.014 573.199 307.167 594.96 307.167 617.074C307.167 659.661 358.417 656.41 358.417 619.359C350.642 626.827 341.2 620.003 341.2 603.104C341.2 550.441 394.117 525.076 394.117 463.626C394.117 363.838 299.76 334.867 299.76 334.867C299.76 334.867 424.78 351.766 424.78 462.95C424.78 479.849 418.708 491.92 419.041 492.854C419.375 493.787 442.964 500 449.704 461.662C451.072 460.342 460.848 519.829 411.301 530.902C411.301 545.194 439.928 545.516 460.848 523.434C460.848 548.123 426.482 598.5 388.045 594.605C388.045 612.181 408.598 639.478 453.408 615.754C453.408 623.866 409.265 679.457 361.419 679.457C324.717 679.457 314.274 658.663 314.274 658.663C314.274 658.663 295.723 678.17 314.941 702.215C334.16 726.261 385.709 720.435 398.822 706.754C398.822 706.754 353.011 752.914 289.984 722.366C289.984 722.366 272.134 758.773 325.051 758.773C325.051 758.773 293.854 776.509 232.963 776.509C65.4018 776.509 90.6927 620.937 187.719 620.937C279.808 620.937 272.501 713.675 214.645 713.675C156.789 713.675 169.468 646.302 183.682 646.302C135.169 646.302 121.189 748.408 214.645 748.408C307.167 748.408 315.108 588.747 192.29 588.747C91.6937 588.747 96.7652 706.271 96.7652 706.271C96.7652 706.271 70.4733 677.011 40.0441 677.011C9.61486 677.011 2.30784 693.106 5.01043 711.164C6.17822 709.683 29.9344 681.421 92.5945 735.532C85.9215 735.532 71.3742 725.296 48.6524 725.296C25.9305 725.296 -1.39571 741.39 13.7522 765.275C45.6161 753.107 71.3742 775.511 90.4925 773.58C90.4925 773.58 30.8352 774.546 26.798 834.515C93.0283 793.57 155.688 790.641 155.688 790.641C155.688 790.641 122.824 821.349 141.542 848.582C160.76 818.839 181.58 798.334 211.809 793.86C242.038 789.385 476.13 795.662 476.13 523.724C476.13 359.395 321.815 330.779 321.815 330.779C321.815 330.779 476.13 335.318 476.13 169.541C476.13 -11.8482 199.831 -64.5105 199.831 94.764C199.831 201.408 341.367 192.943 341.367 129.239C341.367 98.0152 324.517 92.1567 324.517 92.1567C324.517 141.568 234.197 147.426 234.197 76.0618C234.197 4.69729 343.369 -3.25355 416.172 66.9843C370.328 50.8895 357.516 91.03 357.516 91.03C357.516 91.03 416.172 76.0618 448.503 119.003C448.503 119.003 410.767 100.784 383.14 126.793C446.534 137.834 456.544 176.848 456.544 176.848C456.544 176.848 429.585 161.912 413.436 175.56C412.769 175.56 463.985 189.209 444.432 246.377C424.88 303.546 352.11 319.19 317.644 319.19C244.841 319.19 196.328 289.962 196.328 289.962C196.328 289.962 233.396 297.752 267.763 282.14C268.43 281.496 275.17 294.501 297.425 288.578C314.941 305.478 354.813 316.165 398.488 284.039C346.939 289.222 353.011 256.388 302.463 267.945C318.979 259.157 321.348 249.081 321.348 234.789C321.348 220.497 312.906 208.458 312.906 197.063C312.892 193.766 313.642 190.509 315.103 187.529C316.564 184.549 318.697 181.922 321.348 179.841C321.348 179.841 271.8 176.912 271.8 224.038C271.95 234.254 275.454 244.16 281.81 252.333C281.81 252.333 262.258 258.77 264.293 274.865C240.937 282.011 172.304 301.518 126.127 242.676C176.675 276.797 248.444 276.797 248.444 228.383C248.444 202.374 221.752 194.906 221.752 194.906C230.494 209.198 185.684 254.071 96.3982 208.876C89.3248 197.803 84.5869 190.657 84.5869 190.657C84.5869 190.657 120.021 215.894 150.317 215.894C180.612 215.894 197.028 203.211 197.028 181.773C197.028 160.334 176.141 154.122 176.141 154.122C176.141 165.517 152.786 183.704 121.889 183.704C90.993 183.704 60.8975 155.763 51.1214 126.181C96.6318 170.056 157.891 153.478 157.891 121.61C157.891 89.7424 134.501 93.573 134.501 93.573C147.314 112.887 54.6248 146.557 28.6999 58.776C28.6999 58.776 50.5876 96.1804 86.3219 96.1804C122.056 96.1804 126.394 63.4113 95.7309 42.9065Z" fill="white"/>
<path d="M90.3594 327.689C93.2974 327.689 96.1694 326.848 98.6117 325.272C101.054 323.697 102.957 321.458 104.08 318.839C105.203 316.219 105.495 313.338 104.919 310.558C104.344 307.778 102.926 305.226 100.846 303.224C98.7666 301.222 96.1179 299.86 93.2355 299.311C90.3532 298.762 87.3668 299.051 84.6543 300.14C81.9419 301.229 79.6253 303.07 77.9978 305.43C76.3704 307.79 75.5052 310.562 75.5118 313.397C75.5118 315.276 75.8961 317.137 76.6427 318.873C77.3892 320.61 78.4834 322.187 79.8626 323.514C81.2417 324.842 82.8788 325.894 84.68 326.61C86.4812 327.327 88.4112 327.693 90.3594 327.689Z" fill="white"/>
<path d="M216.38 689.597C220.063 689.597 223.662 688.544 226.724 686.57C229.785 684.597 232.172 681.791 233.581 678.509C234.99 675.227 235.359 671.616 234.64 668.131C233.922 664.647 232.149 661.447 229.545 658.935C226.941 656.422 223.624 654.712 220.012 654.019C216.401 653.326 212.657 653.681 209.255 655.041C205.854 656.4 202.946 658.703 200.9 661.656C198.854 664.61 197.762 668.083 197.762 671.635C197.762 676.399 199.724 680.968 203.215 684.336C206.707 687.705 211.442 689.597 216.38 689.597Z" fill="white"/>
<path d="M283.078 96.3739C286.76 96.3739 290.36 95.3205 293.421 93.3468C296.483 91.3731 298.869 88.5679 300.278 85.2858C301.688 82.0037 302.056 78.3921 301.338 74.9079C300.62 71.4236 298.846 68.2231 296.243 65.7111C293.639 63.1991 290.321 61.4884 286.71 60.7953C283.098 60.1023 279.355 60.458 275.953 61.8175C272.551 63.177 269.643 65.4792 267.598 68.433C265.552 71.3868 264.46 74.8595 264.46 78.4121C264.46 83.1758 266.421 87.7445 269.913 91.113C273.404 94.4815 278.14 96.3739 283.078 96.3739Z" fill="white"/>
<path d="M64.501 493.143C57.561 488.057 55.5257 482.102 55.5257 473.476C55.5257 461.726 61.7984 456.318 65.5353 454.162C69.6066 451.977 74.2279 450.93 78.8815 451.136C88.0236 451.136 94.8301 458.185 101.436 466.844C106.508 446.533 118.653 437.423 116.084 421.36C109.711 381.349 63.0329 391.263 57.7946 414.923C34.7391 400.598 9.7818 427.798 29.8344 451.812C-10.2041 452.456 -7.73503 497.972 24.0955 497.972C34.5723 497.875 53.0567 493.723 64.501 493.143Z" fill="white"/>
<path d="M103.672 489.731C104.139 490.214 67.9377 494.302 67.9377 473.637C67.9377 463.078 75.178 463.239 78.8816 463.239C86.1552 463.078 97.2659 483.551 103.672 489.731Z" fill="white"/>
<path d="M186.819 464.881C186.819 464.881 172.405 436.361 180.513 410.449C190.088 379.868 224.455 385.147 224.455 406.36C224.455 423.196 206.504 428.056 186.819 464.881Z" fill="white"/>
<path d="M84.1198 681.389C84.1198 681.389 24.9963 646.592 24.9963 596.215C24.9963 549.733 81.7175 565.989 77.2131 600.754C73.5763 629.628 65.4351 656.023 84.1198 681.389Z" fill="white"/>
<path d="M367.993 335.157C366.958 334.964 447.869 336.477 470.791 278.921C472.96 281.046 486.94 309.148 460.782 326.047C473.928 326.047 480 343.043 480 343.043C480 343.043 470.725 357.271 457.245 358.237C457.245 358.237 485.872 373.205 470.925 410.77C471.492 410.287 440.462 348.805 367.993 335.157Z" fill="white"/>
<path d="M334.527 221.076C338.58 217.587 343.585 215.293 348.949 214.465C354.313 213.638 359.811 214.313 364.789 216.409C368.795 218.216 372.181 221.093 374.546 224.698C376.911 228.303 378.157 232.486 378.135 236.753C378.01 240.822 376.998 244.82 375.164 248.486C373.33 252.152 370.716 255.404 367.492 258.03L367.258 258.255C364.283 260.883 360.907 263.054 357.249 264.693C357.249 264.693 386.377 281.239 407.597 262.537C428.817 243.834 423.112 229.22 403.393 223.684C413.67 216.216 413.836 205.818 407.931 197.932C402.025 190.045 386.377 191.269 386.377 191.269C386.377 191.269 391.749 168.35 370.195 168.35C348.64 168.35 332.291 180.678 330.356 196.709C329.546 205.042 330.982 213.437 334.527 221.076Z" fill="white"/>
<path d="M327.921 256.163C340.032 252.751 347.273 259.575 359.084 249.339C376.1 233.727 357.549 218.308 342.401 230.315C332.625 238.426 333.293 249.5 327.921 256.163Z" fill="white"/>
<path d="M95.731 1521.25C95.731 1521.25 101.136 1542.11 72.8423 1542.11C29.0336 1542.11 12.1841 1497.27 12.1841 1497.27C12.1841 1497.27 21.6265 1534.32 21.6265 1560.65C21.6265 1586.98 18.2899 1613.96 6.77889 1608.45C4.44331 1614.6 2.07437 1636.71 14.8867 1636.71C27.699 1636.71 35.1061 1596.41 32.4035 1573.33C40.4779 1606.81 40.4779 1607.78 40.4779 1625.35C40.4779 1642.93 33.4045 1682.55 12.8514 1673.12C12.8514 1673.12 -0.961886 1701.09 22.6274 1701.09C39.3101 1701.09 57.2273 1666.3 50.5543 1622.42C51.5886 1621.42 60.03 1639 60.03 1660.12C60.03 1681.23 52.2893 1729.36 11.5168 1729.36C11.5168 1729.36 12.1841 1757.33 41.5456 1757.33C70.9071 1757.33 80.6165 1690.7 72.8757 1667.2C72.8757 1667.2 123.758 1738.4 123.758 1782.63C123.758 1832.68 54.9918 1842.76 54.9918 1793.67C54.7428 1788.34 56.2139 1783.07 59.2022 1778.59C62.1904 1774.1 66.5484 1770.62 71.6745 1768.63C71.6745 1768.63 12.7179 1761.8 12.7179 1814.79C12.7179 1886.31 138.072 1875.27 138.072 1798.21C138.072 1763.51 129.297 1747.83 129.297 1747.83C148.248 1781.31 196.528 1802.78 178.844 1844.69C178.844 1844.69 182.881 1850.07 194.492 1850.07C206.104 1850.07 235.432 1825.7 194.492 1780.09C217.248 1789.74 269.298 1819.1 269.298 1864.71C269.298 1879.62 257.687 1877.36 257.687 1877.36C260.548 1885.39 265.953 1892.35 273.138 1897.26C280.323 1902.16 288.924 1904.76 297.725 1904.69C329.322 1904.69 345.237 1864.71 277.706 1815.21C322.449 1828.08 361.62 1867.87 361.62 1897.61C361.62 1942 285.78 1947.83 285.78 1921.01C261.524 1944.42 284.279 1976.6 317.644 1976.6C340.132 1976.6 370.695 1949.79 370.695 1927.84C377.101 1969.2 343.736 2002.36 291.185 2002.36C250.413 2002.36 225.189 1966.56 256.218 1935.08C256.519 1934.79 249.545 1929.87 235.599 1929.87C221.652 1929.87 196.494 1938.33 196.494 1975.38C196.494 2012.43 232.229 2050.8 307.701 2032.62C307.701 2032.62 244.674 2064.8 163.83 2004.32C164.282 2000.64 163.594 1996.92 161.854 1993.62C160.114 1990.32 157.4 1987.59 154.054 1985.78C161.794 1978.31 168.534 1975.06 168.534 1949.05C168.534 1903.21 135.169 1892.17 135.169 1892.17C135.169 1923.72 112.247 1936.37 112.247 1960.77C112.115 1965.8 113.135 1970.8 115.234 1975.4C117.334 1980.01 120.46 1984.11 124.392 1987.42C124.392 1987.42 105.507 1976.67 86.6556 1976.67C48.2187 1976.67 22.6274 1993.89 12.5177 1989.55C12.5177 1989.55 30.3682 2023.34 77.8805 2023.34C93.9879 2022.86 109.63 2018.02 123.024 2009.37C127.094 2015.2 144.177 2023.02 156.389 2015.2C156.389 2015.2 216.447 2059.75 266.929 2059.75C285.274 2059.47 303.484 2056.67 321.014 2051.45C321.014 2051.45 307.167 2073.24 307.167 2095.35C307.167 2137.94 358.417 2134.69 358.417 2097.61C350.642 2105.11 341.2 2098.28 341.2 2081.51C341.2 2028.82 394.118 2003.48 394.118 1942.03C394.118 1842.25 299.76 1813.27 299.76 1813.27C299.76 1813.27 424.78 1830.17 424.78 1941.36C424.78 1958.26 418.708 1970.33 419.041 1971.26C419.375 1972.2 442.964 1978.41 449.704 1940.04C451.072 1938.75 460.848 1998.24 411.301 2009.31C411.301 2023.6 439.928 2023.92 460.848 2001.81C460.848 2026.53 426.482 2076.91 388.045 2073.01C388.045 2090.56 408.598 2117.89 453.408 2094.13C453.408 2102.27 409.265 2157.87 361.419 2157.87C324.718 2157.87 314.274 2137.04 314.274 2137.04C314.274 2137.04 295.723 2156.55 314.941 2180.62C334.16 2204.7 385.709 2198.81 398.822 2185.16C398.822 2185.16 353.011 2231.32 289.984 2200.77C289.984 2200.77 272.134 2237.18 325.051 2237.18C325.051 2237.18 293.855 2254.88 232.963 2254.88C65.4018 2254.88 90.6928 2099.34 187.719 2099.34C279.808 2099.34 272.501 2192.05 214.645 2192.05C156.79 2192.05 169.302 2124.74 183.515 2124.74C135.002 2124.74 121.022 2226.85 214.478 2226.85C307.001 2226.85 314.941 2067.19 192.124 2067.19C91.5269 2067.19 96.5985 2184.71 96.5985 2184.71C96.5985 2184.71 70.3065 2155.45 39.8773 2155.45C9.44809 2155.45 2.14107 2171.55 4.84366 2189.57C6.01145 2188.12 29.7676 2159.83 92.4278 2213.97C85.7547 2213.97 71.2074 2203.74 48.4856 2203.74C25.7638 2203.74 -1.56248 2219.83 13.5854 2243.72C45.4493 2231.52 71.2074 2253.95 90.3258 2251.99C90.3258 2251.99 30.6685 2252.99 26.6312 2312.95C92.8615 2271.98 155.522 2269.08 155.522 2269.08C155.522 2269.08 122.657 2299.79 141.375 2327.02C160.593 2297.28 181.413 2276.81 211.642 2272.3C241.871 2267.79 475.963 2274.07 475.963 2002.13C475.963 1837.96 321.648 1809.22 321.648 1809.22C321.648 1809.22 475.963 1813.76 475.963 1647.98C475.963 1466.56 199.664 1413.9 199.664 1573.2C199.664 1679.82 341.2 1671.38 341.2 1607.65C341.2 1576.46 324.351 1570.6 324.351 1570.6C324.351 1620.01 234.03 1625.87 234.03 1554.5C234.03 1483.14 343.202 1475.19 416.005 1545.39C370.161 1529.3 357.349 1569.47 357.349 1569.47C357.349 1569.47 416.005 1554.5 448.336 1597.41C448.336 1597.41 410.6 1579.22 382.974 1605.23C446.368 1616.27 456.377 1655.29 456.377 1655.29C456.377 1655.29 429.418 1640.32 413.269 1653.97C412.602 1653.97 463.818 1667.65 444.266 1724.79C424.714 1781.92 351.944 1797.6 317.477 1797.6C244.674 1797.6 196.161 1768.34 196.161 1768.34C196.161 1768.34 233.23 1776.16 267.596 1760.55C268.263 1759.9 275.003 1772.91 297.258 1766.99C314.775 1783.89 354.646 1794.54 398.322 1762.41C346.772 1767.63 352.845 1734.8 302.296 1746.32C318.812 1737.53 321.181 1727.46 321.181 1713.13C321.181 1698.81 312.739 1686.8 312.739 1675.44C312.72 1672.14 313.469 1668.88 314.93 1665.9C316.391 1662.92 318.527 1660.29 321.181 1658.22C321.181 1658.22 271.633 1655.29 271.633 1702.41C271.783 1712.63 275.288 1722.54 281.643 1730.71C281.643 1730.71 262.091 1737.15 264.126 1753.24C240.77 1760.39 172.138 1779.89 125.96 1721.05C176.509 1755.17 248.277 1755.17 248.277 1706.73C248.277 1680.75 221.585 1673.25 221.585 1673.25C230.327 1687.57 185.517 1732.41 96.2315 1687.22C89.158 1676.18 84.4201 1669.03 84.4201 1669.03C84.4201 1669.03 119.487 1694.4 149.783 1694.4C180.079 1694.4 196.494 1681.72 196.494 1660.24C196.494 1638.77 175.608 1632.63 175.608 1632.63C175.608 1643.99 152.252 1662.21 121.356 1662.21C90.4593 1662.21 60.3637 1634.24 50.5876 1604.65C96.098 1648.56 157.357 1631.98 157.357 1600.11C157.357 1568.25 133.768 1572.14 133.768 1572.14C146.58 1591.46 53.8908 1625.16 27.9659 1537.38C27.9659 1537.38 49.8536 1574.75 85.5879 1574.75C121.322 1574.75 126.394 1541.72 95.731 1521.25Z" fill="white"/>
<path d="M90.3592 1806.06C93.2957 1806.06 96.1663 1805.22 98.608 1803.65C101.05 1802.08 102.953 1799.84 104.077 1797.22C105.2 1794.6 105.494 1791.72 104.921 1788.95C104.349 1786.17 102.934 1783.61 100.858 1781.61C98.7815 1779.61 96.1359 1778.24 93.2558 1777.69C90.3756 1777.14 87.3903 1777.42 84.6772 1778.51C81.9642 1779.59 79.6453 1781.43 78.0138 1783.78C76.3823 1786.14 75.5115 1788.91 75.5115 1791.74C75.5071 1793.62 75.8882 1795.49 76.6328 1797.23C77.3774 1798.97 78.4709 1800.55 79.8505 1801.88C81.2301 1803.21 82.8686 1804.26 84.672 1804.98C86.4754 1805.7 88.4081 1806.07 90.3592 1806.06Z" fill="white"/>
<path d="M216.38 2167.91C220.063 2167.91 223.662 2166.85 226.724 2164.88C229.785 2162.91 232.172 2160.1 233.581 2156.82C234.99 2153.54 235.359 2149.93 234.64 2146.44C233.922 2142.96 232.149 2139.76 229.545 2137.25C226.941 2134.73 223.624 2133.02 220.012 2132.33C216.401 2131.64 212.657 2131.99 209.255 2133.35C205.854 2134.71 202.946 2137.01 200.9 2139.97C198.854 2142.92 197.762 2146.39 197.762 2149.95C197.762 2154.71 199.724 2159.28 203.215 2162.65C206.707 2166.02 211.442 2167.91 216.38 2167.91Z" fill="white"/>
<path d="M283.078 1574.68C286.76 1574.68 290.359 1573.63 293.421 1571.66C296.483 1569.68 298.869 1566.88 300.278 1563.6C301.687 1560.31 302.056 1556.7 301.338 1553.22C300.619 1549.73 298.846 1546.53 296.242 1544.02C293.639 1541.51 290.321 1539.8 286.71 1539.11C283.098 1538.41 279.355 1538.77 275.953 1540.13C272.551 1541.49 269.643 1543.79 267.597 1546.74C265.552 1549.7 264.46 1553.17 264.46 1556.72C264.455 1559.08 264.934 1561.42 265.868 1563.6C266.802 1565.78 268.173 1567.76 269.903 1569.43C271.633 1571.1 273.687 1572.43 275.948 1573.33C278.208 1574.23 280.631 1574.69 283.078 1574.68Z" fill="white"/>
<path d="M64.501 1971.45C57.561 1966.4 55.5257 1960.45 55.5257 1951.82C55.5257 1940.04 61.7984 1934.63 65.5353 1932.51C69.6066 1930.32 74.2279 1929.27 78.8815 1929.48C88.0236 1929.48 94.8301 1936.5 101.436 1945.19C106.508 1924.88 118.653 1915.73 116.084 1899.67C109.711 1859.69 63.0329 1869.61 57.7946 1893.23C34.7391 1878.94 9.7818 1906.11 29.8344 1930.12C-10.2041 1930.8 -7.73503 1976.32 24.0955 1976.32C34.5723 1976.22 53.0567 1972.07 64.501 1971.45Z" fill="white"/>
<path d="M103.672 1968.08C104.139 1968.53 67.9375 1972.61 67.9375 1951.82C67.9375 1941.26 75.1778 1941.42 78.8813 1941.42C86.155 1941.42 97.2656 1961.89 103.672 1968.08Z" fill="white"/>
<path d="M186.818 1943.19C186.818 1943.19 172.405 1914.67 180.512 1888.79C190.088 1858.21 224.455 1863.49 224.455 1884.7C224.455 1901.51 206.504 1906.4 186.818 1943.19Z" fill="white"/>
<path d="M84.12 2159.7C84.12 2159.7 25.1633 2124.94 25.1633 2074.53C25.1633 2028.04 81.8845 2044.3 77.3802 2079.1C73.5765 2107.97 65.4353 2134.4 84.12 2159.7Z" fill="white"/>
<path d="M367.993 1813.5C366.958 1813.31 447.869 1814.79 470.791 1757.26C472.96 1759.39 486.94 1787.49 460.782 1804.39C473.928 1804.39 480 1821.35 480 1821.35C480 1821.35 470.725 1835.61 457.245 1836.58C457.245 1836.58 485.872 1851.55 470.925 1889.11C471.492 1888.6 440.462 1827.15 367.993 1813.5Z" fill="white"/>
<path d="M334.527 1699.42C338.581 1695.93 343.584 1693.64 348.947 1692.8C354.309 1691.97 359.806 1692.64 364.79 1694.72C368.78 1696.55 372.153 1699.43 374.515 1703.03C376.877 1706.63 378.133 1710.8 378.136 1715.06C378.005 1719.14 376.99 1723.14 375.157 1726.81C373.323 1730.48 370.712 1733.74 367.492 1736.37L367.259 1736.57C364.281 1739.19 360.905 1741.36 357.249 1743C357.249 1743 386.377 1759.55 407.597 1740.85C428.818 1722.15 423.112 1707.53 403.393 1701.99C413.67 1694.53 413.837 1684.13 407.931 1676.24C402.025 1668.36 386.377 1669.58 386.377 1669.58C386.377 1669.58 391.749 1646.66 370.195 1646.66C348.641 1646.66 332.292 1659.02 330.357 1675.05C329.55 1683.39 330.987 1691.78 334.527 1699.42Z" fill="white"/>
<path d="M327.921 1734.51C340.032 1731.09 347.273 1737.92 359.084 1727.68C376.1 1712.07 357.549 1696.62 342.401 1708.66C332.625 1716.8 333.293 1727.84 327.921 1734.51Z" fill="white"/>
<path d="M4.41006 931.696C4.41006 931.696 54.4581 953.134 67.8043 896.577C115.817 996.719 233.43 1005.8 297.458 1022.73C361.486 1039.66 310.237 1071.46 310.237 1071.46C356.748 1083.18 388.412 1038.98 327.087 1017.51C387.144 1005.8 416.072 1023.95 416.072 1059.78C416.072 1102.69 349.341 1087.08 349.341 1087.08C349.341 1087.08 382.707 1109.83 411.634 1109.83C440.562 1109.83 446.001 1079.93 446.001 1079.93C446.001 1079.93 475.629 1074.71 475.629 1044.17C475.629 954.454 347.306 1004.51 285.98 1004.51C359.384 982.395 393.651 895.933 333.993 878.969C333.993 878.969 331.157 1007.21 216.247 988.994C321.048 988.994 314.308 871.308 270.499 893.422C288.683 893.422 274.536 961.697 188.954 961.697C92.5947 961.697 75.0446 884.441 75.0446 884.441C75.0446 884.441 103.672 933.724 166.833 933.724C269.965 933.724 224.455 841.404 224.455 841.404C224.455 841.404 210.641 889.527 145.279 889.527C79.9159 889.527 63.7337 834.805 63.7337 834.805C63.7337 834.805 55.7927 906.491 4.41006 931.696Z" fill="white"/>
<path d="M316.443 848.647C300.961 848.647 301.629 791.574 340.7 791.574C372.73 791.574 402.726 808.474 402.726 872.049C402.726 907.811 391.582 928.606 391.582 928.606C391.582 928.606 453.241 869.763 453.241 800.201C453.241 760.576 413.203 768.333 413.203 795.63C413.203 811.886 433.422 806.06 433.422 806.06C435.758 815.459 385.209 827.176 385.209 780.308C385.209 733.44 476.196 718.858 476.196 789.739C476.196 860.621 414.871 918.788 414.871 918.788C420.359 916.267 426.315 914.833 432.388 914.571C472.426 914.571 459.681 969.809 427.683 969.809C413.87 969.809 415.872 960.409 415.872 960.409C428.35 960.409 440.162 935.044 418.908 935.044C397.654 935.044 372.196 968.199 372.196 968.199C367.125 974.637 359.051 974.38 366.458 963.306C378.092 946.953 384.316 927.582 384.308 907.747C384.308 881.062 373.197 834.902 338.831 834.902C334.079 834.65 329.365 835.841 325.349 838.306C321.334 840.771 318.22 844.387 316.443 848.647Z" fill="white"/>
<path d="M391.081 1464.18C392.082 1464.18 407.931 1468.72 407.931 1451.3C407.931 1433.89 387.044 1425.29 351.21 1441.87C315.375 1458.45 315.509 1454.75 328.655 1444.48C341.801 1434.21 382.573 1421.94 382.573 1375.56C382.573 1329.17 327.687 1339.67 327.687 1368.61C320.58 1368.61 309.136 1311.05 366.091 1311.05C415.605 1311.05 404.16 1376.07 404.16 1376.07C404.16 1376.07 432.454 1353.32 432.454 1324.38C432.454 1295.44 404.828 1257.1 354.279 1257.1C303.731 1257.1 303.063 1281.79 303.063 1281.79C303.063 1281.79 293.287 1222.82 353.946 1222.82C414.604 1222.82 446.434 1269.46 446.434 1269.46C446.434 1269.46 447.969 1199.22 344.87 1199.22C281.676 1199.22 270.565 1246.06 270.565 1246.06C270.565 1246.06 232.662 1171.44 332.725 1170.09C378.102 1170.09 400.457 1188.5 400.457 1188.5C400.457 1188.5 367.092 1150.97 317.043 1150.97C232.662 1150.97 213.444 1204.6 213.444 1204.6C213.444 1204.6 175.541 1169.96 220.117 1145.11C248.411 1130.47 295.923 1133.88 295.923 1133.88C240.303 1121.23 88.6908 1124.64 88.6908 1258.71C88.6908 1350.87 218.082 1355.51 218.082 1286.17C218.228 1281.53 217.409 1276.92 215.671 1272.59C213.934 1268.27 211.314 1264.33 207.967 1261C204.621 1257.67 200.615 1255.02 196.188 1253.22C191.762 1251.41 187.004 1250.48 182.197 1250.48C177.391 1250.48 172.633 1251.41 168.206 1253.22C163.779 1255.02 159.774 1257.67 156.427 1261C153.081 1264.33 150.461 1268.27 148.724 1272.59C146.986 1276.92 146.166 1281.53 146.313 1286.17C146.307 1292.04 147.858 1297.81 150.817 1302.94C118.953 1299.43 117.452 1215.8 185.751 1215.8C276.204 1215.8 281.776 1371.37 175.741 1371.37C80.4162 1371.5 70.7736 1272.39 70.7736 1272.39C70.7736 1298.14 32.3701 1303.58 32.3701 1274.81C67.7374 1283.85 71.2741 1236.18 71.2741 1236.18C71.2741 1236.18 56.1262 1257.13 35.9068 1257.13C15.6874 1257.13 8.61393 1239.91 8.61393 1222.69C8.61393 1222.69 71.2741 1236.18 86.4553 1192.27C86.4553 1192.27 69.2722 1207.88 36.4073 1207.88C3.54237 1207.88 -0.995309 1157.18 4.37652 1157.18C42.2129 1203.25 107.809 1169.61 107.809 1169.61C107.809 1169.61 129.964 1153.51 134.501 1151C134.501 1151 102.471 1164.68 73.4095 1164.68C44.3482 1164.68 2.34123 1149.85 2.34123 1119.62C2.34123 1101.08 13.2851 1096.22 13.2851 1096.22C13.2851 1096.22 42.1128 1159.92 159.092 1137.16C176.542 1131.82 179.578 1126.83 184.116 1126.44C164.33 1126.44 123.558 1131.5 92.5612 1115.88C61.5648 1100.27 28.4997 1067.44 4.24306 1080.48C-2.43002 1043.43 28.1994 1038.63 28.1994 1038.63C8.14681 1004.54 40.7448 984.358 44.0813 967.136C56.2263 977.373 92.5946 961.761 110.812 1008.56C132.032 981.751 163.863 1000.77 163.863 1000.77C163.863 1000.77 128.996 1039.4 153.853 1078.8C178.711 1118.2 235.232 1115.85 235.232 1115.85C235.232 1115.85 175.174 1102.2 175.174 1067.09C175.174 1031.97 216.547 1023.69 240.336 1034.41C237.834 1034.9 221.652 1048.54 221.652 1066.12C221.652 1083.7 231.661 1110.54 276.771 1115.89C276.771 1114.37 251.981 1110.48 251.981 1081.73C251.981 1056.85 282.31 1060.26 282.31 1060.26C282.31 1060.26 269.765 1070.3 282.31 1084.15C301.195 1104.97 466.954 1171.06 466.954 1279.54C466.954 1319.84 425.181 1376.4 425.181 1376.4C425.181 1376.4 453.841 1367.64 466.954 1393.62C446.067 1391.69 401.258 1411.84 383.074 1423.88C400.257 1417.7 411.701 1420.3 412.702 1419.63C458.212 1424.52 444.399 1478.5 416.039 1478.5C396.987 1478.5 389.913 1464.18 391.081 1464.18ZM100.802 1041.14C88.5907 1010.3 42.7467 1027.23 60.5305 1057.24C78.3142 1087.24 136.57 1103.69 136.57 1103.69C116.951 1091.16 112.714 1072.14 100.502 1041.14L100.802 1041.14Z" fill="white"/>
<path d="M307.368 1314.3C308.402 1314.3 280.942 1360.53 306.2 1437.27C292.053 1428.48 289.017 1427.84 280.609 1427.84C263.926 1427.84 262.425 1449.31 282.978 1449.31C278.24 1452.52 249.612 1460.35 249.612 1434.02C249.612 1407.68 279.641 1414.51 279.641 1414.51C272.968 1393.04 215.613 1386.89 215.613 1424.58C215.613 1445.06 230.861 1457.42 243.973 1456.13C243.973 1480.18 183.582 1481.14 183.582 1436.82C183.582 1399.09 227.725 1388.37 227.725 1388.37C206.504 1388.37 185.284 1397.16 165.398 1417.34C166.232 1416.54 166.399 1426.45 161.361 1431.31C166.618 1437.31 169.482 1444.93 169.435 1452.78C169.435 1469.36 154.621 1479.11 144.178 1481.4C144.178 1458.29 134.735 1459.28 134.735 1446.28C134.735 1433.28 135.77 1431.25 135.77 1431.25C135.77 1431.25 116.918 1432.5 109.411 1430.6C94.0962 1426.71 85.221 1411.48 68.3715 1411.48C68.3715 1409.87 82.8521 1396.51 104.072 1396.51C125.293 1396.51 140.14 1411.81 140.14 1411.81C140.14 1411.81 150.584 1404.02 157.324 1408.59C164.397 1403.05 197.062 1376.4 232.462 1376.4C267.863 1376.4 281.977 1399.15 281.977 1399.15C281.943 1385.57 233.897 1323.41 307.368 1314.3Z" fill="white"/>
<path d="M126.26 1459.25C119.854 1467.53 111.279 1470.71 104.206 1469.81C100.49 1469.41 97.0607 1467.7 94.5823 1465C92.1039 1462.3 90.7535 1458.8 90.793 1455.2C90.8304 1452.29 91.5976 1449.44 93.0285 1446.89C94.6688 1443.93 96.8635 1441.29 99.5013 1439.1C99.5013 1439.1 85.0541 1427.16 67.2704 1427.16C49.4866 1427.16 47.2512 1456.36 76.6127 1461.22C61.2313 1477.83 68.4716 1502.55 100.135 1483.75C102.871 1512.72 132.733 1502.26 132.733 1474.7C132.872 1471.83 132.366 1468.96 131.248 1466.3C130.131 1463.63 128.43 1461.23 126.26 1459.25Z" fill="white"/>
<path d="M126.394 1438.75C126.394 1438.75 108.51 1439.1 101.77 1451.37C95.0303 1463.63 118.586 1466.82 126.394 1438.75Z" fill="white"/>
<path d="M180.179 1471.07C175.608 1506.89 150.784 1509.69 148.548 1527.27C146.313 1544.85 181.68 1549.8 186.251 1514.04C189.621 1487.58 180.179 1471.07 180.179 1471.07Z" fill="white"/>
<path d="M119.087 1384.86C119.087 1374.14 51.9892 1323.7 51.9892 1358.89C51.9892 1380.68 93.6625 1370.89 119.087 1384.86Z" fill="white"/>
<path d="M74.6775 1390.3C50.8213 1399.19 52.9233 1415.54 41.3121 1419.88C29.701 1424.23 20.2586 1402.47 44.1149 1393.59C53.7531 1389.64 64.376 1388.5 74.6775 1390.3Z" fill="white"/>
<path d="M182.014 1304.13C185.696 1304.13 189.296 1303.08 192.358 1301.1C195.419 1299.13 197.806 1296.32 199.215 1293.04C200.624 1289.76 200.992 1286.15 200.274 1282.66C199.556 1279.18 197.783 1275.98 195.179 1273.47C192.575 1270.96 189.258 1269.24 185.646 1268.55C182.035 1267.86 178.291 1268.21 174.889 1269.57C171.487 1270.93 168.58 1273.24 166.534 1276.19C164.488 1279.14 163.396 1282.62 163.396 1286.17C163.396 1290.93 165.358 1295.5 168.849 1298.87C172.341 1302.24 177.076 1304.13 182.014 1304.13Z" fill="white"/>
<path d="M49.987 1308.8C49.987 1308.8 5.57771 1341.95 5.57771 1422.52C5.57771 1479.44 26.9316 1511.53 54.825 1511.59C82.7185 1511.66 58.9957 1473.64 45.783 1473.61C60.3637 1487.87 25.5302 1492.21 20.1584 1441.97C14.9534 1393.55 22.6274 1365.71 49.987 1308.8Z" fill="white"/>
<path d="M4.41006 2410.04C4.41006 2410.04 54.4581 2431.48 67.8043 2374.92C115.817 2475.03 233.43 2484.14 297.458 2501.04C361.486 2517.94 310.237 2549.81 310.237 2549.81C356.748 2561.52 388.412 2517.3 327.087 2495.86C387.144 2484.14 416.072 2502.29 416.072 2538.12C416.072 2581.03 349.341 2565.42 349.341 2565.42C349.341 2565.42 382.707 2588.18 411.634 2588.18C440.562 2588.18 446.001 2558.27 446.001 2558.27C446.001 2558.27 475.629 2553.06 475.629 2522.51C475.629 2432.77 347.306 2482.85 285.98 2482.85C359.384 2460.74 393.651 2374.28 333.993 2357.31C333.993 2357.31 331.157 2485.59 216.247 2467.37C321.048 2467.37 314.308 2349.68 270.499 2371.8C288.683 2371.8 274.536 2440.07 188.954 2440.07C92.5947 2440.07 75.0446 2362.82 75.0446 2362.82C75.0446 2362.82 103.539 2412.23 166.699 2412.23C269.832 2412.23 224.321 2319.91 224.321 2319.91C224.321 2319.91 210.508 2368.19 145.145 2368.19C79.7824 2368.19 63.6002 2313.47 63.6002 2313.47C63.6002 2313.47 55.7927 2384.83 4.41006 2410.04Z" fill="white"/>
<path d="M316.443 2326.96C300.961 2326.96 301.629 2269.92 340.7 2269.92C372.73 2269.92 402.726 2286.82 402.726 2350.2C402.726 2385.96 391.582 2406.79 391.582 2406.79C391.582 2406.79 453.241 2347.95 453.241 2278.35C453.241 2238.76 413.203 2246.52 413.203 2273.81C413.203 2290.07 433.422 2284.21 433.422 2284.21C435.758 2293.64 385.209 2305.36 385.209 2258.46C385.209 2211.56 476.196 2197.04 476.196 2267.89C476.196 2338.74 414.871 2396.97 414.871 2396.97C420.354 2394.43 426.312 2392.99 432.388 2392.72C472.426 2392.72 459.681 2447.99 427.683 2447.99C413.87 2447.99 415.872 2438.56 415.872 2438.56C428.35 2438.56 440.162 2413.23 418.908 2413.23C397.654 2413.23 372.197 2446.38 372.197 2446.38C367.125 2452.82 359.051 2452.56 366.458 2441.49C378.093 2425.12 384.316 2405.74 384.308 2385.9C384.308 2359.24 373.197 2313.08 338.831 2313.08C334.063 2312.84 329.337 2314.05 325.32 2316.54C321.303 2319.03 318.198 2322.67 316.443 2326.96Z" fill="white"/>
<path d="M391.081 2942.52C392.082 2942.52 407.931 2947.06 407.931 2929.65C407.931 2912.23 387.044 2903.64 351.209 2920.21C315.375 2936.79 315.509 2933.09 328.654 2922.82C341.8 2912.55 382.573 2900.29 382.573 2853.9C382.573 2807.52 327.687 2818.01 327.687 2846.95C320.58 2846.95 309.136 2789.39 366.09 2789.39C415.605 2789.39 404.16 2854.42 404.16 2854.42C404.16 2854.42 432.454 2831.66 432.454 2802.72C432.454 2773.78 404.828 2735.44 354.279 2735.44C303.731 2735.44 303.063 2760.13 303.063 2760.13C303.063 2760.13 293.287 2701.13 353.945 2701.13C414.604 2701.13 446.434 2747.77 446.434 2747.77C446.434 2747.77 447.969 2677.57 344.87 2677.57C281.676 2677.57 270.565 2724.37 270.565 2724.37C270.565 2724.37 232.662 2649.79 332.725 2648.44C378.102 2648.44 400.457 2666.85 400.457 2666.85C400.457 2666.85 367.091 2629.28 317.043 2629.28C232.662 2629.28 213.444 2682.94 213.444 2682.94C213.444 2682.94 175.541 2648.31 220.117 2623.46C248.411 2608.81 295.923 2612.22 295.923 2612.22C240.303 2599.54 88.6907 2602.95 88.6907 2737.05C88.6907 2829.21 218.082 2833.85 218.082 2764.48C217.797 2755.48 213.892 2746.94 207.193 2740.67C200.495 2734.41 191.529 2730.9 182.197 2730.9C172.865 2730.9 163.9 2734.41 157.201 2740.67C150.503 2746.94 146.597 2755.48 146.313 2764.48C146.298 2770.35 147.849 2776.13 150.817 2781.25C118.953 2777.74 117.452 2694.15 185.751 2694.15C276.204 2694.15 281.776 2849.69 175.741 2849.69C80.7164 2849.69 71.1072 2750.7 71.1072 2750.7C71.1072 2776.45 32.7036 2781.93 32.7036 2753.15C68.0709 2762.19 71.6076 2714.52 71.6076 2714.52C71.6076 2714.52 56.4598 2735.51 36.2404 2735.51C16.0209 2735.51 8.94748 2718.29 8.94748 2701.03C8.94748 2701.03 71.6077 2714.52 86.7889 2670.65C86.7889 2670.65 69.6057 2686.26 36.7408 2686.26C3.87595 2686.26 -0.66176 2635.53 4.71007 2635.53C42.5464 2681.62 108.143 2647.99 108.143 2647.99C108.143 2647.99 130.297 2631.89 134.835 2629.35C134.835 2629.35 102.804 2643.06 73.743 2643.06C44.6818 2643.06 2.67478 2628.22 2.67478 2597.99C2.67478 2579.45 13.6186 2574.59 13.6186 2574.59C13.6186 2574.59 42.4463 2638.3 159.425 2615.54C176.875 2610.19 179.912 2605.17 184.449 2604.82C164.664 2604.82 123.891 2609.84 92.8948 2594.26C61.8983 2578.68 28.8333 2545.98 4.57663 2558.85C-2.09644 2521.8 28.5329 2517.01 28.5329 2517.01C8.1467 2482.85 40.7447 2462.73 44.0812 2445.45C56.2262 2455.68 92.5945 2440.1 110.812 2486.91C132.032 2460.09 163.863 2479.12 163.863 2479.12C163.863 2479.12 128.996 2517.75 153.853 2557.11C178.711 2596.48 235.231 2594.2 235.231 2594.2C235.231 2594.2 175.174 2580.52 175.174 2545.43C175.174 2510.34 216.547 2502.04 240.336 2512.76C237.834 2513.24 221.652 2526.89 221.652 2544.43C221.652 2561.97 231.661 2588.89 276.771 2594.23C276.771 2592.72 251.981 2588.82 251.981 2560.04C251.981 2535.19 282.31 2538.6 282.31 2538.6C282.31 2538.6 269.765 2548.65 282.31 2562.49C301.195 2583.28 466.954 2649.4 466.954 2757.85C466.954 2798.18 425.181 2854.74 425.181 2854.74C425.181 2854.74 453.841 2845.95 466.954 2871.96C446.067 2870.03 401.258 2890.18 383.073 2902.19C400.257 2896.01 411.701 2898.61 412.702 2897.97C458.212 2902.86 444.399 2956.81 416.038 2956.81C396.987 2956.81 389.913 2942.52 391.081 2942.52ZM100.802 2519.48C88.5906 2488.65 42.7466 2505.58 60.5304 2535.58C78.3141 2565.58 136.57 2582.03 136.57 2582.03C116.951 2569.47 112.714 2550.32 100.502 2519.48L100.802 2519.48Z" fill="white"/>
<path d="M307.367 2792.65C308.402 2792.65 280.942 2838.87 306.2 2915.61C292.053 2906.82 289.016 2906.18 280.608 2906.18C263.926 2906.18 262.424 2927.62 282.977 2927.62C278.239 2930.84 249.612 2938.69 249.612 2912.36C249.612 2886.03 279.641 2892.85 279.641 2892.85C272.968 2871.38 215.613 2865.2 215.613 2902.93C215.613 2923.4 230.861 2935.76 243.973 2934.44C243.973 2958.52 183.582 2959.48 183.582 2915.13C183.582 2877.43 227.724 2866.84 227.724 2866.84C206.504 2866.84 185.284 2875.6 165.398 2895.81C166.232 2895.01 166.399 2904.92 161.361 2909.82C166.621 2915.8 169.486 2923.41 169.435 2931.25C169.435 2947.83 154.621 2957.62 144.177 2959.87C144.177 2936.79 134.735 2937.76 134.735 2924.75C134.735 2911.75 135.769 2909.75 135.769 2909.75C135.769 2909.75 116.918 2911.01 109.411 2909.08C94.0959 2905.18 85.2207 2889.99 68.3712 2889.99C68.3712 2888.35 82.8518 2875.02 104.072 2875.02C125.293 2875.02 140.14 2890.31 140.14 2890.31C140.14 2890.31 150.584 2882.49 157.323 2887.09C164.397 2881.55 197.062 2854.9 232.462 2854.9C267.863 2854.9 281.976 2877.66 281.976 2877.66C281.943 2863.91 233.897 2801.76 307.367 2792.65Z" fill="white"/>
<path d="M126.26 2937.56C119.854 2945.87 111.279 2949.06 104.206 2948.15C100.466 2947.79 97.004 2946.08 94.4981 2943.38C91.9923 2940.68 90.6232 2937.17 90.6594 2933.54C90.6969 2930.65 91.4642 2927.81 92.8948 2925.27C94.5266 2922.3 96.7225 2919.66 99.3677 2917.48C99.3677 2917.48 84.9205 2905.53 67.1368 2905.53C49.353 2905.53 47.1175 2934.7 76.4791 2939.59C61.0976 2956.17 68.3379 2980.92 100.002 2962.12C102.738 2991.1 132.6 2980.67 132.6 2953.11C132.761 2950.23 132.279 2947.35 131.185 2944.67C130.091 2941.99 128.411 2939.56 126.26 2937.56Z" fill="white"/>
<path d="M126.394 2917.09C126.394 2917.09 108.51 2917.45 101.77 2929.68C95.0301 2941.91 118.586 2945.16 126.394 2917.09Z" fill="white"/>
<path d="M180.179 2949.41C175.608 2985.2 150.784 2988.04 148.548 3005.58C146.313 3023.12 181.68 3028.11 186.251 2992.38C189.621 2965.92 180.179 2949.41 180.179 2949.41Z" fill="white"/>
<path d="M119.087 2863.21C119.087 2852.45 51.9889 2802.05 51.9889 2837.23C51.9889 2858.99 93.6623 2849.2 119.087 2863.21Z" fill="white"/>
<path d="M74.6773 2868.65C50.821 2877.53 52.9231 2893.88 41.3119 2898.2C29.7007 2902.51 20.2584 2880.81 44.1146 2871.93C53.7528 2867.98 64.3757 2866.84 74.6773 2868.65Z" fill="white"/>
<path d="M200.598 2764.51C200.598 2774.43 192.263 2782.47 181.98 2782.47C171.698 2782.47 163.362 2774.43 163.362 2764.51C163.362 2754.59 171.698 2746.55 181.98 2746.55C192.263 2746.55 200.598 2754.59 200.598 2764.51Z" fill="white"/>
<path d="M49.987 2787.11C49.987 2787.11 5.57771 2820.26 5.57771 2900.87C5.57771 2957.75 26.9316 2989.84 54.825 2989.9C82.7185 2989.97 58.9957 2952.02 45.783 2952.02C60.3637 2966.24 25.5302 2970.62 20.1584 2920.37C14.9534 2871.9 22.6274 2844.02 49.987 2787.11Z" fill="white"/>
</svg>
