<svg width="42" height="23" viewBox="0 0 42 23" fill="none" xmlns="http://www.w3.org/2000/svg">
<path d="M29.9886 17.0477C29.0455 17.0477 28.2784 16.2907 28.2784 15.3608C28.2784 14.4309 29.0455 13.6744 29.9886 13.6744C30.9318 13.6744 31.6989 14.4307 31.6989 15.3608C31.6989 16.2908 30.9318 17.0477 29.9886 17.0477ZM11.0846 17.0477C10.1415 17.0477 9.37437 16.2907 9.37437 15.3608C9.37437 14.4309 10.1413 13.6744 11.0846 13.6744C12.0276 13.6744 12.7947 14.4307 12.7947 15.3608C12.7947 16.2908 12.0278 17.0477 11.0846 17.0477ZM30.602 6.88896L34.0201 1.05145C34.1142 0.89035 34.1397 0.699023 34.0909 0.519451C34.0421 0.33988 33.923 0.186731 33.7598 0.0936074C33.5965 0.000870519 33.4024 -0.0241879 33.2203 0.0239281C33.0382 0.072044 32.8829 0.189406 32.7885 0.350277L29.3276 6.26156C26.6807 5.07066 23.7084 4.40715 20.5366 4.40715C17.3648 4.40715 14.3924 5.07066 11.7457 6.26156L8.28465 0.350277C8.19018 0.189406 8.03487 0.072044 7.85277 0.0239281C7.67067 -0.0241879 7.47665 0.000870519 7.31327 0.0936074C7.14999 0.186643 7.03086 0.339794 6.98205 0.519402C6.93324 0.69901 6.95875 0.890379 7.05297 1.05145L10.4711 6.88896C4.60164 10.0368 0.587278 15.896 0 22.8184H41.0731C40.4854 15.8962 36.471 10.0368 30.602 6.8888" fill="#3DDB85"/>
</svg>
