<svg width="587" height="780" viewBox="0 0 587 780" fill="none" xmlns="http://www.w3.org/2000/svg">
<g opacity="0.1">
<path d="M117.071 403.86C117.071 403.86 123.681 429.369 89.0801 429.369C35.5057 429.369 14.9001 374.533 14.9001 374.533C14.9001 374.533 26.4474 419.842 26.4474 452.043C26.4474 484.244 22.3671 517.232 8.29002 510.5C5.43381 518.019 2.53679 545.063 18.2052 545.063C33.8735 545.063 42.9318 495.778 39.6268 467.553C49.5011 508.493 49.5011 509.674 49.5011 531.167C49.5011 552.661 40.8509 601.119 15.7162 589.585C15.7162 589.585 -1.17629 623.794 27.6715 623.794C48.073 623.794 69.9843 581.24 61.8237 527.585C63.0885 526.365 73.4117 547.858 73.4117 573.682C73.4117 599.505 63.9454 658.356 14.084 658.356C14.084 658.356 14.9001 692.565 50.8068 692.565C86.7135 692.565 98.5872 611.079 89.1209 582.342C89.1209 582.342 151.346 669.418 151.346 723.506C151.346 784.719 67.2504 797.041 67.2504 737.008C66.9458 730.494 68.7449 724.049 72.3993 718.563C76.0537 713.077 81.3832 708.821 87.6519 706.382C87.6519 706.382 15.553 698.037 15.553 762.832C15.5529 850.302 168.85 836.799 168.85 742.559C168.85 700.123 158.119 680.952 158.119 680.952C181.295 721.892 240.337 748.149 218.711 799.402C218.711 799.402 223.649 805.976 237.848 805.976C252.048 805.976 287.913 776.177 237.848 720.396C265.676 732.206 329.328 768.107 329.328 823.887C329.328 842.114 315.129 839.358 315.129 839.358C318.628 849.178 325.238 857.688 334.025 863.686C342.811 869.683 353.33 872.865 364.093 872.779C402.733 872.779 422.196 823.888 339.611 763.344C394.328 779.09 442.231 827.745 442.231 864.119C442.231 918.404 349.485 925.529 349.485 892.738C319.821 921.356 347.649 960.721 388.452 960.721C415.953 960.721 453.329 927.93 453.329 901.083C461.163 951.667 420.36 992.213 356.095 992.213C306.234 992.213 275.387 948.439 313.334 909.94C313.701 909.586 305.173 903.563 288.117 903.563C271.062 903.563 240.296 913.916 240.296 959.225C240.296 1004.53 283.996 1051.46 376.293 1029.22C376.293 1029.22 299.216 1068.58 200.35 994.615C200.903 990.119 200.062 985.565 197.934 981.53C195.806 977.494 192.487 974.157 188.395 971.94C197.861 962.808 206.103 958.832 206.103 927.024C206.103 870.968 165.3 857.466 165.3 857.466C165.3 896.044 137.268 911.515 137.268 941.354C137.107 947.506 138.355 953.617 140.922 959.251C143.489 964.885 147.313 969.903 152.121 973.948C152.121 973.948 129.026 960.8 105.973 960.8C58.9674 960.8 27.6715 981.86 15.3081 976.546C15.3081 976.546 37.1378 1017.88 95.2413 1017.88C114.939 1017.29 134.069 1011.37 150.448 1000.79C155.426 1007.92 176.317 1017.49 191.251 1007.92C191.251 1007.92 264.696 1062.4 326.431 1062.4C348.866 1062.05 371.135 1058.63 392.573 1052.25C392.573 1052.25 375.64 1078.9 375.64 1105.94C375.64 1158.02 438.313 1154.04 438.313 1108.7C428.806 1117.87 417.259 1109.52 417.259 1089.01C417.259 1024.57 481.973 993.591 481.973 918.443C481.973 796.411 366.582 760.982 366.582 760.982C366.582 760.982 519.471 781.649 519.471 917.616C519.471 938.283 512.045 953.045 512.453 954.187C512.861 955.328 541.708 962.926 549.951 916.002C551.624 914.428 563.579 987.175 502.986 1000.72C502.986 1018.19 537.995 1018.59 563.579 991.544C563.579 1021.78 521.552 1083.38 474.547 1078.62C474.547 1100.07 499.681 1133.5 554.48 1104.44C554.48 1114.4 500.497 1182.39 441.986 1182.39C397.102 1182.39 384.331 1156.92 384.331 1156.92C384.331 1156.92 361.644 1180.77 385.147 1210.22C408.65 1239.66 471.69 1232.46 487.726 1215.77C487.726 1215.77 431.703 1272.22 354.626 1234.86C354.626 1234.86 332.797 1279.38 397.51 1279.38C397.51 1279.38 359.36 1301.03 284.894 1301.03C79.981 1301.03 110.91 1110.82 229.565 1110.82C342.181 1110.82 333.246 1224.19 262.493 1224.19C191.741 1224.19 207.042 1141.88 224.424 1141.88C165.096 1141.88 148 1266.75 262.289 1266.75C375.436 1266.75 385.147 1071.5 234.951 1071.5C111.93 1071.5 118.132 1215.22 118.132 1215.22C118.132 1215.22 85.979 1179.43 48.7666 1179.43C11.5542 1179.43 2.61836 1199.12 5.92341 1221.16C7.35151 1219.39 36.4033 1184.79 113.031 1251C104.871 1251 87.0807 1238.48 59.2938 1238.48C31.5069 1238.48 -1.91077 1258.17 16.6138 1287.37C55.5807 1272.45 87.0807 1299.89 110.461 1297.49C110.461 1297.49 37.505 1298.71 32.5678 1372.05C113.562 1321.94 190.19 1318.39 190.19 1318.39C190.19 1318.39 149.999 1355.95 172.89 1389.25C196.392 1352.88 221.853 1327.84 258.821 1322.33C295.788 1316.82 582.063 1324.5 582.063 991.938C582.063 791.175 393.349 756.022 393.349 756.022C393.349 756.022 582.063 761.572 582.063 558.841C582.063 336.978 244.173 272.577 244.173 467.395C244.173 597.773 417.259 587.46 417.259 509.516C417.259 471.371 396.654 464.207 396.654 464.207C396.654 524.633 286.2 531.797 286.2 444.524C286.2 357.251 419.707 347.528 508.74 433.384C452.676 413.701 437.008 462.829 437.008 462.829C437.008 462.829 508.74 444.524 548.278 496.998C548.278 496.998 502.129 474.757 468.345 506.564C545.87 520.066 558.111 567.777 558.111 567.777C558.111 567.777 525.142 549.472 505.394 566.163C504.578 566.163 567.21 582.893 543.3 652.767C519.389 722.64 430.398 741.811 388.248 741.811C299.216 741.811 239.888 706.028 239.888 706.028C239.888 706.028 285.22 715.594 327.248 696.501C328.064 695.714 336.306 711.618 363.521 704.375C384.943 725.041 433.703 738.071 487.114 698.785C424.073 705.162 431.499 665.009 369.683 679.102C389.88 668.355 392.777 656.034 392.777 638.516C392.777 620.999 382.454 606.316 382.454 592.42C382.43 588.387 383.346 584.402 385.133 580.757C386.919 577.111 389.532 573.9 392.777 571.359C392.777 571.359 332.185 567.777 332.185 625.408C332.368 637.901 336.654 650.016 344.426 660.01C344.426 660.01 320.515 667.883 323.004 687.566C294.442 696.305 210.51 720.16 154.039 648.2C215.855 689.928 303.623 689.928 303.623 630.683C303.623 598.915 270.98 589.743 270.98 589.743C281.67 607.26 226.872 662.096 117.683 606.827C109.033 593.325 103.239 584.586 103.239 584.586C103.239 584.586 146.123 615.606 183.172 615.606C220.221 615.606 240.296 600.096 240.296 573.839C240.296 547.583 214.753 540.064 214.753 540.064C214.753 553.96 186.191 576.241 148.408 576.241C110.624 576.241 73.8197 542.032 61.8644 505.855C117.52 559.55 192.434 539.277 192.434 500.305C192.434 461.333 163.586 466.097 163.586 466.097C179.255 489.716 65.9039 530.931 34.2 423.582C34.2 423.582 60.9668 469.285 104.667 469.285C148.367 469.285 154.569 428.896 117.071 403.86Z" fill="white"/>
<path d="M110.502 752.164C114.093 752.164 117.603 751.137 120.589 749.212C123.575 747.287 125.903 744.551 127.277 741.35C128.651 738.149 129.011 734.627 128.31 731.229C127.61 727.831 125.88 724.71 123.341 722.26C120.801 719.81 117.566 718.142 114.044 717.466C110.522 716.79 106.871 717.137 103.553 718.463C100.235 719.788 97.3995 722.034 95.4044 724.914C93.4092 727.795 92.3443 731.182 92.3443 734.647C92.3389 736.949 92.8049 739.229 93.7155 741.357C94.6261 743.484 95.9633 745.418 97.6505 747.045C99.3376 748.673 101.341 749.963 103.547 750.841C105.752 751.72 108.116 752.17 110.502 752.164Z" fill="white"/>
<path d="M346.18 469.206C350.683 469.206 355.085 467.918 358.829 465.505C362.574 463.091 365.492 459.66 367.215 455.647C368.938 451.633 369.389 447.216 368.511 442.955C367.632 438.694 365.464 434.78 362.28 431.708C359.095 428.636 355.038 426.544 350.622 425.697C346.205 424.849 341.627 425.284 337.467 426.947C333.307 428.609 329.751 431.425 327.249 435.037C324.747 438.649 323.412 442.896 323.412 447.241C323.407 450.127 323.992 452.985 325.134 455.653C326.276 458.32 327.953 460.744 330.069 462.784C332.184 464.825 334.696 466.443 337.461 467.545C340.226 468.647 343.189 469.212 346.18 469.206Z" fill="white"/>
<path d="M450.024 761.258C448.759 761.021 547.707 762.832 575.738 692.487C578.39 695.085 595.487 729.45 563.497 750.117C579.574 750.117 587 770.863 587 770.863C587 770.863 575.657 788.301 559.172 789.482C559.172 789.482 594.181 807.787 575.901 853.726C576.595 853.097 538.648 777.948 450.024 761.258Z" fill="white"/>
<path d="M409.099 621.747C414.056 617.482 420.175 614.674 426.732 613.656C433.29 612.638 440.013 613.451 446.107 615.999C450.988 618.233 455.112 621.756 458.001 626.16C460.889 630.563 462.425 635.667 462.428 640.878C462.268 645.859 461.027 650.751 458.785 655.24C456.543 659.729 453.35 663.714 449.412 666.938L449.126 667.174C445.485 670.384 441.357 673.038 436.885 675.047C436.885 675.047 472.507 695.281 498.457 672.41C524.408 649.539 517.431 631.667 493.316 624.896C505.883 615.763 506.087 603.048 498.865 593.404C491.643 583.759 472.507 585.255 472.507 585.255C472.507 585.255 479.076 557.227 452.717 557.227C426.358 557.227 406.365 572.343 403.998 591.947C403.013 602.138 404.769 612.402 409.099 621.747Z" fill="white"/>
<path d="M401.02 664.655C415.831 660.482 424.685 668.828 439.13 656.31C459.939 637.218 437.253 618.322 418.728 633.045C406.773 643.004 407.589 656.507 401.02 664.655Z" fill="white"/>
<path d="M478.26 334.065C479.484 334.065 498.865 339.616 498.865 318.319C498.865 297.023 473.322 286.512 429.5 306.785C385.677 327.058 385.841 322.531 401.917 309.974C417.993 297.416 467.855 282.418 467.855 225.693C467.855 168.968 400.734 181.8 400.734 217.19C392.043 217.19 378.047 146.805 447.698 146.805C508.25 146.805 494.254 226.323 494.254 226.323C494.254 226.323 528.855 198.491 528.855 163.102C528.855 127.713 495.07 80.8286 433.254 80.8286C371.437 80.8286 370.621 111.022 370.621 111.022C370.621 111.022 358.666 38.9046 432.846 38.9046C507.026 38.9046 545.952 95.9448 545.952 95.9448C545.952 95.9448 547.829 10.0499 421.747 10.0499C344.466 10.0499 330.879 67.3263 330.879 67.3263C330.879 67.3263 284.527 -23.9225 406.895 -25.5758C462.387 -25.5758 489.725 -3.05885 489.725 -3.05885C489.725 -3.05885 448.922 -48.9588 387.718 -48.9588C284.527 -48.9588 261.024 16.6238 261.024 16.6238C261.024 16.6238 214.672 -25.7332 269.185 -56.1232C303.786 -74.0344 361.889 -69.8618 361.889 -69.8618C293.871 -85.3323 108.461 -81.1596 108.461 82.7968C108.461 195.5 266.696 201.168 266.696 116.375C266.875 110.707 265.872 105.062 263.748 99.7739C261.623 94.4863 258.419 89.6641 254.326 85.5934C250.234 81.5227 245.335 78.2863 239.922 76.0762C234.509 73.8661 228.69 72.7272 222.812 72.7272C216.934 72.7272 211.115 73.8661 205.702 76.0762C200.289 78.2863 195.39 81.5227 191.298 85.5934C187.205 89.6641 184.001 94.4863 181.876 99.7739C179.752 105.062 178.749 110.707 178.928 116.375C178.921 123.553 180.818 130.613 184.437 136.885C145.47 132.594 143.634 30.3229 227.158 30.3229C337.775 30.323 344.589 220.575 214.917 220.575C98.3423 220.733 86.5502 99.5271 86.5502 99.5271C86.5502 131.019 39.5859 137.672 39.5859 102.479C82.8371 113.541 87.1622 55.2411 87.1622 55.2411C87.1622 55.2411 68.6377 80.868 43.911 80.868C19.1844 80.868 10.5341 59.8075 10.5341 38.747C10.5341 38.747 87.1622 55.2412 105.728 1.54691C105.728 1.54691 84.7141 20.6391 44.523 20.6391C4.33203 20.6391 -1.21718 -41.3612 5.35212 -41.3612C51.6228 14.9705 131.842 -26.1663 131.842 -26.1663C131.842 -26.1663 158.935 -45.8489 164.484 -48.9194C164.484 -48.9194 125.313 -32.1892 89.7736 -32.1892C54.2342 -32.1892 2.86313 -50.3366 2.86313 -87.3006C2.86313 -109.975 16.2465 -115.919 16.2465 -115.919C16.2465 -115.919 51.5004 -38.0152 194.556 -65.8464C215.896 -72.3811 219.609 -78.4827 225.158 -78.9551C200.962 -78.9551 151.101 -72.7748 113.195 -91.867C75.2886 -110.959 34.8527 -151.112 5.1889 -135.169C-2.97171 -180.478 34.4855 -186.344 34.4855 -186.344C9.96287 -228.031 49.8275 -252.713 53.9078 -273.774C68.7601 -261.256 113.235 -280.348 135.514 -223.111C161.465 -255.902 200.391 -232.637 200.391 -232.637C200.391 -232.637 157.752 -185.399 188.15 -137.216C218.548 -89.0326 287.668 -91.9063 287.668 -91.9063C287.668 -91.9063 214.223 -108.597 214.223 -151.545C214.223 -194.492 264.819 -204.609 293.911 -191.5C290.851 -190.91 271.062 -174.219 271.062 -152.726C271.062 -131.232 283.303 -98.4016 338.468 -91.8669C338.468 -93.7171 308.152 -98.4803 308.152 -133.633C308.152 -164.063 345.242 -159.89 345.242 -159.89C345.242 -159.89 329.9 -147.608 345.242 -130.681C368.336 -105.212 571.046 -24.3948 571.046 108.266C571.046 157.552 519.96 226.716 519.96 226.716C519.96 226.716 555.01 216.009 571.046 247.777C545.503 245.415 490.704 270.058 468.467 284.78C489.48 277.222 503.476 280.411 504.7 279.584C560.355 285.568 543.463 351.583 508.78 351.583C485.482 351.583 476.831 334.065 478.26 334.065ZM123.273 -183.273C108.339 -220.985 52.2756 -200.279 74.0237 -163.591C95.7717 -126.902 167.014 -106.786 167.014 -106.786C143.022 -122.1 137.84 -145.364 122.906 -183.273L123.273 -183.273Z" fill="white"/>
<path d="M375.885 150.781C377.15 150.781 343.569 207.31 374.457 301.157C357.156 290.41 353.443 289.623 343.161 289.623C322.759 289.623 320.923 315.879 346.058 315.879C340.264 319.816 305.255 329.381 305.255 297.181C305.255 264.98 341.978 273.325 341.978 273.325C333.817 247.069 263.676 239.55 263.676 285.647C263.676 310.683 282.323 325.799 298.359 324.224C298.359 353.63 224.506 354.811 224.506 300.605C224.506 254.469 278.488 241.361 278.488 241.361C252.537 241.361 226.586 252.107 202.268 276.789C203.288 275.805 203.492 287.93 197.331 293.874C203.76 301.211 207.262 310.523 207.205 320.131C207.205 340.404 189.088 352.331 176.317 355.126C176.317 326.862 164.77 328.082 164.77 312.179C164.77 296.275 166.035 293.795 166.035 293.795C166.035 293.795 142.981 295.33 133.8 293.008C115.072 288.245 104.218 269.625 83.6126 269.625C83.6126 267.657 101.321 251.32 127.272 251.32C153.223 251.32 171.38 270.019 171.38 270.019C171.38 270.019 184.151 260.492 192.394 266.082C201.044 259.311 240.99 226.717 284.282 226.717C327.574 226.717 344.834 254.548 344.834 254.548C344.793 237.936 286.037 161.922 375.885 150.781Z" fill="white"/>
<path d="M154.406 328.043C146.572 338.16 136.085 342.057 127.435 340.954C122.891 340.467 118.697 338.368 115.666 335.066C112.635 331.764 110.984 327.493 111.032 323.083C111.078 319.534 112.016 316.048 113.766 312.926C115.772 309.306 118.456 306.076 121.682 303.4C121.682 303.4 104.014 288.795 82.266 288.795C60.518 288.795 57.7842 324.5 93.6909 330.444C74.8807 350.756 83.735 380.989 122.457 358C125.803 393.428 162.322 380.635 162.322 346.938C162.492 343.424 161.872 339.916 160.506 336.655C159.14 333.394 157.059 330.456 154.406 328.043Z" fill="white"/>
<path d="M154.569 302.967C154.569 302.967 132.699 303.4 124.456 318.398C116.214 333.396 145.021 337.293 154.569 302.967Z" fill="white"/>
<path d="M220.344 342.49C214.754 386.303 184.396 389.728 181.662 411.221C178.929 432.715 222.18 438.777 227.77 395.042C231.891 362.684 220.344 342.49 220.344 342.49Z" fill="white"/>
<path d="M145.633 237.07C145.633 223.961 63.5784 162.275 63.5784 205.302C63.5784 231.952 114.541 219.985 145.633 237.07Z" fill="white"/>
<path d="M91.3243 243.722C62.1502 254.587 64.7208 274.585 50.5213 279.899C36.3218 285.213 24.7746 258.602 53.9488 247.737C65.7355 242.914 78.7264 241.518 91.3243 243.722Z" fill="white"/>
<path d="M222.588 138.342C227.091 138.342 231.493 137.053 235.237 134.64C238.981 132.226 241.9 128.795 243.623 124.782C245.346 120.768 245.797 116.351 244.918 112.09C244.04 107.829 241.872 103.915 238.687 100.843C235.503 97.7714 231.446 95.6793 227.03 94.8317C222.613 93.9842 218.035 94.4192 213.875 96.0817C209.715 97.7443 206.159 100.56 203.657 104.172C201.155 107.784 199.82 112.031 199.82 116.376C199.82 122.201 202.219 127.788 206.488 131.908C210.758 136.027 216.549 138.342 222.588 138.342Z" fill="white"/>
<path d="M61.1299 144.05C61.1299 144.05 6.82107 184.596 6.82106 283.127C6.82106 352.725 32.935 391.972 67.0464 392.051C101.158 392.13 72.1468 345.639 55.9888 345.6C73.8197 363.039 31.2213 368.353 24.652 306.904C18.2867 247.699 27.6714 213.648 61.1299 144.05Z" fill="white"/>
</g>
</svg>
