<svg width="229" height="59" viewBox="0 0 229 59" fill="none" xmlns="http://www.w3.org/2000/svg">
<path d="M199.644 26.0571L226.294 37.3325L199.644 48.6079L9.46118 48.6079L9.46118 26.0571L199.644 26.0571Z" stroke="white" stroke-width="1.81147"/>
<path d="M198.658 25.9644L198.658 49.5135" stroke="white" stroke-width="1.81147"/>
<path d="M21.7199 39.4606L20.0725 39.4606L20.0725 44.3662L16.4665 44.3662L16.4665 31.553L20.0725 31.553L20.0725 36.5319L21.8114 36.5319L24.8683 31.553L28.6756 31.553L24.6669 37.74L28.7122 44.3662L24.6303 44.3662L21.7199 39.4606ZM36.4662 44.6225C35.1117 44.6225 33.8914 44.3357 32.8053 43.7622C31.7315 43.1886 30.8833 42.3954 30.261 41.3826C29.6508 40.3697 29.3458 39.2287 29.3458 37.9596C29.3458 36.6905 29.6508 35.5495 30.261 34.5367C30.8833 33.5238 31.7315 32.7306 32.8053 32.1571C33.8914 31.5835 35.1117 31.2967 36.4662 31.2967C37.8208 31.2967 39.035 31.5835 40.1089 32.1571C41.1949 32.7306 42.043 33.5238 42.6532 34.5367C43.2755 35.5495 43.5867 36.6905 43.5867 37.9596C43.5867 39.2287 43.2755 40.3697 42.6532 41.3826C42.043 42.3954 41.1949 43.1886 40.1089 43.7622C39.035 44.3357 37.8208 44.6225 36.4662 44.6225ZM36.4662 41.6205C37.113 41.6205 37.6988 41.468 38.2235 41.1629C38.7482 40.8578 39.1631 40.4307 39.4682 39.8816C39.7733 39.3202 39.9258 38.6796 39.9258 37.9596C39.9258 37.2396 39.7733 36.6051 39.4682 36.0559C39.1631 35.4946 38.7482 35.0614 38.2235 34.7563C37.6988 34.4512 37.113 34.2987 36.4662 34.2987C35.8195 34.2987 35.2337 34.4512 34.709 34.7563C34.1843 35.0614 33.7694 35.4946 33.4643 36.0559C33.1592 36.6051 33.0067 37.2396 33.0067 37.9596C33.0067 38.6796 33.1592 39.3202 33.4643 39.8816C33.7694 40.4307 34.1843 40.8578 34.709 41.1629C35.2337 41.468 35.8195 41.6205 36.4662 41.6205ZM52.1325 44.6225C50.7902 44.6225 49.5821 44.3418 48.5082 43.7805C47.4466 43.2069 46.6107 42.4137 46.0005 41.4009C45.3903 40.388 45.0853 39.2409 45.0853 37.9596C45.0853 36.6783 45.3903 35.5312 46.0005 34.5183C46.6107 33.5055 47.4466 32.7184 48.5082 32.1571C49.5821 31.5835 50.7902 31.2967 52.1325 31.2967C53.304 31.2967 54.3596 31.5042 55.2992 31.9191C56.2389 32.334 57.0199 32.9319 57.6422 33.7129L55.3358 35.7997C54.506 34.799 53.4993 34.2987 52.3156 34.2987C51.62 34.2987 50.9977 34.4512 50.4485 34.7563C49.9116 35.0614 49.4906 35.4946 49.1855 36.0559C48.8926 36.6051 48.7462 37.2396 48.7462 37.9596C48.7462 38.6796 48.8926 39.3202 49.1855 39.8816C49.4906 40.4307 49.9116 40.8578 50.4485 41.1629C50.9977 41.468 51.62 41.6205 52.3156 41.6205C53.4993 41.6205 54.506 41.1202 55.3358 40.1195L57.6422 42.2063C57.0199 42.9873 56.2389 43.5852 55.2992 44.0001C54.3596 44.415 53.304 44.6225 52.1325 44.6225ZM71.1958 44.3662L71.1775 37.5752L67.8826 43.1032L66.2718 43.1032L62.977 37.7216L62.977 44.3662L59.6456 44.3662L59.6456 31.553L62.6292 31.553L67.1321 38.9481L71.5252 31.553L74.5089 31.553L74.5455 44.3662L71.1958 44.3662ZM83.9337 44.6225C82.5792 44.6225 81.3589 44.3357 80.2728 43.7622C79.199 43.1886 78.3508 42.3954 77.7285 41.3826C77.1183 40.3697 76.8133 39.2287 76.8133 37.9596C76.8133 36.6905 77.1183 35.5495 77.7285 34.5367C78.3508 33.5238 79.199 32.7306 80.2728 32.1571C81.3589 31.5835 82.5792 31.2967 83.9337 31.2967C85.2883 31.2967 86.5025 31.5835 87.5764 32.1571C88.6624 32.7306 89.5105 33.5238 90.1207 34.5367C90.743 35.5495 91.0542 36.6905 91.0542 37.9596C91.0542 39.2287 90.743 40.3697 90.1207 41.3826C89.5105 42.3954 88.6624 43.1886 87.5764 43.7622C86.5025 44.3357 85.2883 44.6225 83.9337 44.6225ZM83.9337 41.6205C84.5805 41.6205 85.1663 41.468 85.691 41.1629C86.2157 40.8578 86.6306 40.4307 86.9357 39.8816C87.2408 39.3202 87.3933 38.6796 87.3933 37.9596C87.3933 37.2396 87.2408 36.6051 86.9357 36.0559C86.6306 35.4946 86.2157 35.0614 85.691 34.7563C85.1663 34.4512 84.5805 34.2987 83.9337 34.2987C83.287 34.2987 82.7012 34.4512 82.1765 34.7563C81.6518 35.0614 81.2369 35.4946 80.9318 36.0559C80.6267 36.6051 80.4742 37.2396 80.4742 37.9596C80.4742 38.6796 80.6267 39.3202 80.9318 39.8816C81.2369 40.4307 81.6518 40.8578 82.1765 41.1629C82.7012 41.468 83.287 41.6205 83.9337 41.6205ZM105.549 31.553L105.549 44.3662L101.925 44.3662L101.925 39.3691L96.9825 39.3691L96.9825 44.3662L93.3582 44.3662L93.3582 31.553L96.9825 31.553L96.9825 36.3671L101.925 36.3671L101.925 31.553L105.549 31.553ZM117.509 41.8768L112.091 41.8768L111.084 44.3662L107.387 44.3662L113.043 31.553L116.612 31.553L122.287 44.3662L118.516 44.3662L117.509 41.8768ZM116.448 39.2043L114.8 35.1041L113.153 39.2043L116.448 39.2043ZM133.457 37.6667C134.213 37.9108 134.787 38.2891 135.177 38.8016C135.58 39.3141 135.781 39.9487 135.781 40.7053C135.781 41.8402 135.336 42.7371 134.445 43.3961C133.566 44.0428 132.316 44.3662 130.693 44.3662L124.121 44.3662L124.121 31.553L130.345 31.553C131.882 31.553 133.072 31.8459 133.914 32.4316C134.768 33.0052 135.196 33.8228 135.196 34.8844C135.196 35.5068 135.043 36.0559 134.738 36.5319C134.445 37.0078 134.018 37.3861 133.457 37.6667ZM127.691 36.6783L129.997 36.6783C131.022 36.6783 131.535 36.2573 131.535 35.4153C131.535 34.5733 131.022 34.1523 129.997 34.1523L127.691 34.1523L127.691 36.6783ZM130.546 41.767C131.596 41.767 132.12 41.3216 132.12 40.4307C132.12 39.5643 131.596 39.1311 130.546 39.1311L127.691 39.1311L127.691 41.767L130.546 41.767ZM148.254 34.4268L144.336 34.4268L144.336 44.3662L140.767 44.3662L140.767 34.4268L136.832 34.4268L136.832 31.553L148.254 31.553L148.254 34.4268ZM150.29 31.553L153.86 31.553L153.86 39.0762L159.15 31.553L162.555 31.553L162.555 44.3662L158.985 44.3662L158.985 36.8613L153.713 44.3662L150.29 44.3662L150.29 31.553ZM170.852 39.4606L169.205 39.4606L169.205 44.3662L165.599 44.3662L165.599 31.553L169.205 31.553L169.205 36.5319L170.944 36.5319L174.001 31.553L177.808 31.553L173.799 37.74L177.845 44.3662L173.763 44.3662L170.852 39.4606ZM179.373 31.553L182.943 31.553L182.943 39.0762L188.233 31.553L191.637 31.553L191.637 44.3662L188.068 44.3662L188.068 36.8613L182.796 44.3662L179.373 44.3662L179.373 31.553Z" fill="white"/>
<path d="M48.0919 11.327L44.6815 11.327L44.6815 20L42.7852 20L42.7852 11.327L39.3895 11.327L39.3895 9.71L48.0919 9.71L48.0919 11.327ZM49.9018 9.71L51.7834 9.71L51.7834 17.0159L57.3106 9.71L59.0893 9.71L59.0893 20L57.2077 20L57.2077 12.7088L51.6805 20L49.9018 20L49.9018 9.71ZM66.355 9.71C67.2468 9.71 68.021 9.857 68.6776 10.151C69.344 10.445 69.8536 10.8664 70.2064 11.4152C70.5592 11.964 70.7356 12.6157 70.7356 13.3703C70.7356 14.1151 70.5592 14.7668 70.2064 15.3254C69.8536 15.8742 69.344 16.2956 68.6776 16.5896C68.021 16.8836 67.2468 17.0306 66.355 17.0306L64.0324 17.0306L64.0324 20L62.1214 20L62.1214 9.71L66.355 9.71ZM66.2668 15.4136C67.0998 15.4136 67.7319 15.2372 68.1631 14.8844C68.5943 14.5316 68.8099 14.0269 68.8099 13.3703C68.8099 12.7137 68.5943 12.209 68.1631 11.8562C67.7319 11.5034 67.0998 11.327 66.2668 11.327L64.0324 11.327L64.0324 15.4136L66.2668 15.4136ZM78.9944 17.6186L73.8494 17.6186L72.8351 20L70.8653 20L75.4958 9.71L77.3774 9.71L82.0226 20L80.0234 20L78.9944 17.6186ZM78.3623 16.1192L76.4219 11.621L74.4962 16.1192L78.3623 16.1192ZM92.2272 15.6635L90.4632 15.6635L90.4632 20L88.5963 20L88.5963 15.6635L86.8323 15.6635L84.2304 20L82.0254 20L85.2594 14.6345L82.2459 9.71L84.2745 9.71L86.7882 14.0171L88.5963 14.0171L88.5963 9.71L90.4632 9.71L90.4632 14.0171L92.2419 14.0171L94.7703 9.71L96.7989 9.71L93.8001 14.6492L97.0194 20L94.8144 20L92.2272 15.6635ZM106.841 15.6635L104.93 15.6635L104.93 20L103.048 20L103.048 9.71L104.93 9.71L104.93 14.0171L106.9 14.0171L109.854 9.71L111.883 9.71L108.37 14.6933L112.015 20L109.854 20L106.841 15.6635ZM118.193 20.147C117.145 20.147 116.199 19.9216 115.356 19.4708C114.514 19.0102 113.852 18.3781 113.372 17.5745C112.892 16.7611 112.652 15.8546 112.652 14.855C112.652 13.8554 112.892 12.9538 113.372 12.1502C113.852 11.3368 114.514 10.7047 115.356 10.2539C116.199 9.7933 117.145 9.563 118.193 9.563C119.242 9.563 120.188 9.7933 121.031 10.2539C121.873 10.7047 122.535 11.3319 123.015 12.1355C123.495 12.9391 123.735 13.8456 123.735 14.855C123.735 15.8644 123.495 16.7709 123.015 17.5745C122.535 18.3781 121.873 19.0102 121.031 19.4708C120.188 19.9216 119.242 20.147 118.193 20.147ZM118.193 18.4712C118.879 18.4712 119.497 18.3193 120.046 18.0155C120.594 17.7019 121.026 17.2707 121.339 16.7219C121.653 16.1633 121.81 15.541 121.81 14.855C121.81 14.169 121.653 13.5516 121.339 13.0028C121.026 12.4442 120.594 12.013 120.046 11.7092C119.497 11.3956 118.879 11.2388 118.193 11.2388C117.507 11.2388 116.89 11.3956 116.341 11.7092C115.792 12.013 115.361 12.4442 115.048 13.0028C114.734 13.5516 114.577 14.169 114.577 14.855C114.577 15.541 114.734 16.1633 115.048 16.7219C115.361 17.2707 115.792 17.7019 116.341 18.0155C116.89 18.3193 117.507 18.4712 118.193 18.4712ZM140.407 18.383L140.407 22.1903L138.643 22.1903L138.643 20L130.749 20L130.749 22.1903L128.97 22.1903L128.985 18.383L129.426 18.383C130.072 18.3536 130.523 17.8783 130.778 16.9571C131.043 16.0261 131.204 14.6982 131.263 12.9734L131.381 9.71L138.922 9.71L138.922 18.383L140.407 18.383ZM132.939 13.1498C132.89 14.4826 132.782 15.5949 132.616 16.4867C132.449 17.3687 132.184 18.0008 131.822 18.383L137.04 18.383L137.04 11.327L133.012 11.327L132.939 13.1498ZM151.496 9.71L151.496 20L149.585 20L149.585 15.59L144.264 15.59L144.264 20L142.353 20L142.353 9.71L144.264 9.71L144.264 13.9583L149.585 13.9583L149.585 9.71L151.496 9.71ZM163.335 9.563C164.345 9.563 165.251 9.7933 166.055 10.2539C166.868 10.7047 167.505 11.3319 167.966 12.1355C168.426 12.9391 168.657 13.8456 168.657 14.855C168.657 15.8644 168.426 16.7709 167.966 17.5745C167.505 18.3781 166.868 19.0102 166.055 19.4708C165.251 19.9216 164.345 20.147 163.335 20.147C162.414 20.147 161.571 19.9559 160.807 19.5737C160.052 19.1915 159.43 18.6574 158.94 17.9714C158.46 17.2854 158.161 16.5063 158.043 15.6341L156.426 15.6341L156.426 20L154.545 20L154.545 9.71L156.426 9.71L156.426 13.9289L158.073 13.9289C158.21 13.0763 158.518 12.3217 158.999 11.6651C159.489 10.9987 160.106 10.4842 160.851 10.1216C161.605 9.7492 162.434 9.563 163.335 9.563ZM163.335 18.4712C163.972 18.4712 164.55 18.3193 165.07 18.0155C165.589 17.7117 165.996 17.2854 166.29 16.7366C166.584 16.1878 166.731 15.5606 166.731 14.855C166.731 14.1494 166.584 13.5222 166.29 12.9734C165.996 12.4246 165.589 11.9983 165.07 11.6945C164.55 11.3907 163.972 11.2388 163.335 11.2388C162.698 11.2388 162.12 11.3907 161.601 11.6945C161.091 11.9983 160.684 12.4246 160.38 12.9734C160.086 13.5222 159.939 14.1494 159.939 14.855C159.939 15.5606 160.086 16.1878 160.38 16.7366C160.684 17.2854 161.091 17.7117 161.601 18.0155C162.12 18.3193 162.698 18.4712 163.335 18.4712Z" fill="white"/>
<path d="M26.6641 17.2085L32.1992 26.2661H8.96191L3.42578 17.2085H26.6641Z" stroke="white" stroke-width="1.81147"/>
<path d="M26.6641 57.6655L32.1992 48.6079L8.96192 48.6079L3.42578 57.6655L26.6641 57.6655Z" stroke="white" stroke-width="1.81147"/>
</svg>
