<svg width="8" height="13" viewBox="0 0 8 13" fill="none" xmlns="http://www.w3.org/2000/svg">
<path fill-rule="evenodd" clip-rule="evenodd" d="M3.85097 0C1.98581 0 0.473846 1.49988 0.473846 3.35003C0.473846 5.20021 1.98581 6.7002 3.85097 6.7002C5.71612 6.7002 7.22809 5.20021 7.22809 3.35003C7.22809 1.49988 5.71612 0 3.85097 0ZM3.85126 4.73437C3.08027 4.73437 2.45523 4.11434 2.45523 3.34958C2.45523 2.58483 3.08027 1.96484 3.85126 1.96484C4.62225 1.96484 5.24728 2.58483 5.24728 3.34958C5.24728 4.11434 4.62225 4.73437 3.85126 4.73437ZM7.24838 8.42323C7.20551 8.45731 6.39533 9.09239 5.04334 9.36559L7.08411 11.3718C7.443 11.7273 7.44343 12.304 7.08512 12.6599C6.72682 13.0159 6.14552 13.0165 5.78653 12.661L3.80526 10.7472L2.00574 12.6486C1.82557 12.834 1.58523 12.9272 1.34465 12.9272C1.11519 12.9272 0.88553 12.8425 0.707342 12.6721C0.342268 12.3229 0.331684 11.7463 0.68371 11.3842L2.62077 9.37619C1.23089 9.10941 0.387262 8.45779 0.343815 8.42323C-0.0518034 8.10851 -0.115356 7.53527 0.201922 7.1428C0.519151 6.75038 1.09702 6.68734 1.49273 7.00201C1.50109 7.00872 2.38348 7.66624 3.80521 7.6672C5.22699 7.66624 6.0911 7.00872 6.09946 7.00201C6.49518 6.68734 7.07304 6.75038 7.39027 7.1428C7.70755 7.53527 7.644 8.10851 7.24838 8.42323Z" fill="white"/>
</svg>
