<svg width="29" height="38" viewBox="0 0 29 38" fill="none" xmlns="http://www.w3.org/2000/svg">
<path d="M0.780579 14.3875H28.1653V37.3686H0.780579V14.3875Z" fill="url(#paint0_linear_0_432)"/>
<path d="M14.9535 5.38451C10.3414 5.00543 9.50861 10.1229 9.66876 12.7291H5.34481C5.26474 8.54346 5.34474 0.651862 14.9535 0.64609C22.835 0.641355 24.4821 8.7014 24.3219 12.7291H19.2774C19.7578 10.4388 19.5657 5.76358 14.9535 5.38451Z" fill="url(#paint1_linear_0_432)"/>
<rect x="0.770462" y="14.343" width="27.3601" height="22.8174" rx="2.0032" stroke="#141414" stroke-width="1.54092"/>
<rect x="0.770462" y="14.343" width="27.3601" height="22.8174" rx="2.0032" stroke="white" stroke-width="1.54092"/>
<ellipse cx="14.7133" cy="25.4928" rx="7.88211" ry="7.77392" fill="#141414"/>
<ellipse cx="14.7132" cy="25.4931" rx="5.25473" ry="5.18264" fill="white"/>
<path fill-rule="evenodd" clip-rule="evenodd" d="M11.3219 27.9431C12.1812 27.0713 13.3831 26.5297 14.7133 26.5297C16.0434 26.5297 17.2453 27.0713 18.1046 27.9431C17.3396 28.9713 16.1054 29.6387 14.7132 29.6387C13.3211 29.6387 12.0869 28.9713 11.3219 27.9431ZM16.2897 23.9384C16.2897 24.7971 15.5839 25.4932 14.7133 25.4932C13.8427 25.4932 13.1369 24.7971 13.1369 23.9384C13.1369 23.0797 13.8427 22.3836 14.7133 22.3836C15.5839 22.3836 16.2897 23.0797 16.2897 23.9384Z" fill="#141414"/>
<path d="M10.6851 6.82418L11.2083 7.14998L11.2083 7.14998L10.6851 6.82418ZM9.67578 12.612H9.05941C9.05941 12.9524 9.33536 13.2283 9.67578 13.2283V12.612ZM9.98396 12.612V13.2283C10.3244 13.2283 10.6003 12.9524 10.6003 12.612H9.98396ZM10.9467 6.98708L10.4235 6.66128V6.66128L10.9467 6.98708ZM18.4798 6.98705L17.9566 7.31284V7.31284L18.4798 6.98705ZM19.4425 12.6114H18.8261C18.8261 12.9518 19.1021 13.2278 19.4425 13.2278V12.6114ZM19.7507 12.6114V13.2278C20.0911 13.2278 20.367 12.9518 20.367 12.6114H19.7507ZM18.7414 6.82416L19.2646 6.49837V6.49837L18.7414 6.82416ZM17.3647 5.52231L17.6529 4.97745V4.97745L17.3647 5.52231ZM12.0618 5.52232L12.35 6.06717L12.35 6.06717L12.0618 5.52232ZM23.8636 12.6114H23.2472C23.2472 12.9518 23.5231 13.2278 23.8636 13.2278V12.6114ZM22.2482 4.70905L22.7714 4.38326L22.7714 4.38326L22.2482 4.70905ZM7.17833 4.70903L6.65511 4.38323V4.38323L7.17833 4.70903ZM5.56288 12.612V13.2283C5.9033 13.2283 6.17925 12.9524 6.17925 12.612H5.56288ZM5.2547 12.612H4.63833C4.63833 12.9524 4.91429 13.2283 5.2547 13.2283V12.612ZM6.91672 4.54613L6.39349 4.22034V4.22034L6.91672 4.54613ZM22.5098 4.54616L23.033 4.22037V4.22037L22.5098 4.54616ZM24.1717 12.6114V13.2278C24.5122 13.2278 24.7881 12.9518 24.7881 12.6114H24.1717ZM10.2921 11.4999C10.2921 9.72024 10.5692 8.17646 11.2083 7.14998L10.1619 6.49838C9.33974 7.8187 9.05941 9.64267 9.05941 11.4999H10.2921ZM10.2921 12.612V11.4999H9.05941V12.612H10.2921ZM9.98396 11.9956H9.67578V13.2283H9.98396V11.9956ZM9.36759 11.4999V12.612H10.6003V11.4999H9.36759ZM10.4235 6.66128C9.64709 7.90815 9.36759 9.66208 9.36759 11.4999H10.6003C10.6003 9.73958 10.8765 8.26587 11.4699 7.31287L10.4235 6.66128ZM14.7133 4.66436C13.5266 4.66436 12.6208 4.87805 11.9177 5.24989C11.2089 5.62477 10.7496 6.13746 10.4235 6.66128L11.4699 7.31288C11.7069 6.93227 12.0172 6.59178 12.4941 6.3396C12.9766 6.08438 13.6726 5.8971 14.7133 5.8971V4.66436ZM19.003 6.66126C18.6769 6.13745 18.2176 5.62476 17.5088 5.24988C16.8058 4.87805 15.9 4.66436 14.7133 4.66436V5.8971C15.754 5.8971 16.4499 6.08437 16.9325 6.3396C17.4093 6.59177 17.7196 6.93225 17.9566 7.31284L19.003 6.66126ZM20.0589 11.4999C20.0589 9.66206 19.7794 7.90813 19.003 6.66126L17.9566 7.31284C18.5499 8.26583 18.8261 9.73954 18.8261 11.4999H20.0589ZM20.0589 12.6114V11.4999H18.8261V12.6114H20.0589ZM19.7507 11.9951H19.4425V13.2278H19.7507V11.9951ZM19.1343 11.4999V12.6114H20.367V11.4999H19.1343ZM18.2182 7.14995C18.8573 8.17642 19.1343 9.72021 19.1343 11.4999H20.367C20.367 9.64265 20.0867 7.81869 19.2646 6.49837L18.2182 7.14995ZM17.0766 6.06717C17.6113 6.35 17.9589 6.73351 18.2182 7.14995L19.2646 6.49837C18.9162 5.93879 18.4198 5.38303 17.6529 4.97745L17.0766 6.06717ZM14.7133 5.58892C15.7905 5.58892 16.5389 5.7828 17.0766 6.06717L17.6529 4.97745C16.8947 4.57646 15.9365 4.35618 14.7133 4.35618V5.58892ZM12.35 6.06717C12.8877 5.7828 13.6361 5.58892 14.7133 5.58892V4.35618C13.4901 4.35618 12.5318 4.57646 11.7736 4.97746L12.35 6.06717ZM11.2083 7.14998C11.4676 6.73353 11.8152 6.35001 12.35 6.06717L11.7736 4.97746C11.0068 5.38304 10.5103 5.9388 10.1619 6.49838L11.2083 7.14998ZM24.4799 12.6114V11.4999H23.2472V12.6114H24.4799ZM24.4799 11.4999C24.4799 9.39242 24.1894 6.66062 22.7714 4.38326L21.725 5.03484C22.9603 7.01878 23.2472 9.47085 23.2472 11.4999H24.4799ZM22.7714 4.38326C21.2157 1.88477 18.5407 0.308179 14.7133 0.308179V1.54092C18.1573 1.54092 20.4159 2.93238 21.725 5.03484L22.7714 4.38326ZM14.7133 0.308179C10.8859 0.308179 8.21082 1.88476 6.65511 4.38323L7.70156 5.03483C9.01069 2.93238 11.2693 1.54092 14.7133 1.54092V0.308179ZM6.65511 4.38323C5.23707 6.66059 4.94651 9.39238 4.94651 11.4999H6.17925C6.17925 9.47083 6.46623 7.01877 7.70156 5.03483L6.65511 4.38323ZM4.94651 11.4999V12.612H6.17925V11.4999H4.94651ZM5.56288 11.9956H5.2547V13.2283H5.56288V11.9956ZM5.87107 12.612V11.4999H4.63833V12.612H5.87107ZM5.87107 11.4999C5.87107 9.45123 6.15894 6.92923 7.43995 4.87193L6.39349 4.22034C4.92979 6.57103 4.63833 9.37274 4.63833 11.4999H5.87107ZM7.43995 4.87193C8.8107 2.67051 11.1734 1.23273 14.7133 1.23273V-6.07967e-06C10.7902 -6.07967e-06 8.01092 1.62276 6.39349 4.22034L7.43995 4.87193ZM14.7133 1.23273C18.2532 1.23273 20.6158 2.67051 21.9866 4.87195L23.033 4.22037C21.4156 1.62277 18.6364 -6.07967e-06 14.7133 -6.07967e-06V1.23273ZM21.9866 4.87195C23.2675 6.92925 23.5554 9.45125 23.5554 11.4999H24.7881C24.7881 9.37277 24.4967 6.57106 23.033 4.22037L21.9866 4.87195ZM23.5554 11.4999V12.6114H24.7881V11.4999H23.5554ZM24.1717 11.9951H23.8636V13.2278H24.1717V11.9951Z" fill="white"/>
<defs>
<linearGradient id="paint0_linear_0_432" x1="0.780579" y1="25.8781" x2="31.215" y2="25.8781" gradientUnits="userSpaceOnUse">
<stop offset="0.00110742" stop-color="#FF7A00"/>
<stop offset="0.998551" stop-color="#FFB932"/>
</linearGradient>
<linearGradient id="paint1_linear_0_432" x1="5.33344" y1="6.68757" x2="26.4481" y2="6.68757" gradientUnits="userSpaceOnUse">
<stop offset="0.00110742" stop-color="#FF7A00"/>
<stop offset="0.998551" stop-color="#FFB932"/>
</linearGradient>
</defs>
</svg>
