<svg width="45" height="47" viewBox="0 0 45 47" fill="none" xmlns="http://www.w3.org/2000/svg">
<ellipse cx="23.4484" cy="44.4783" rx="8.91696" ry="1.65129" fill="black" fill-opacity="0.055"/>
<path fill-rule="evenodd" clip-rule="evenodd" d="M23.0052 39.0029L21.5061 41.7576C22.0885 41.8353 22.6822 41.8754 23.2848 41.8754C30.9564 41.8754 37.1755 35.3831 37.1755 27.3744C37.1755 20.9536 33.178 15.5074 27.6393 13.6003L27.2631 16.9699C26.8982 19.9906 27.4456 22.8928 28.5405 25.7357C29.2212 27.4716 30.04 29.4597 30.6933 31.0459L30.6934 31.046C31.2661 32.4364 31.7115 33.518 31.8252 33.85C31.9468 34.2054 31.9468 34.5015 31.9468 34.7977C31.886 35.5676 31.5819 35.9822 31.0344 36.5745C30.4261 37.2852 29.4529 38.4106 28.8446 39.0029C28.358 39.4767 27.5673 40.2467 26.7765 39.5359C25.9249 38.8252 26.3507 37.996 26.8373 37.4629C27.3086 36.9275 27.7039 36.4909 28.154 35.9936L28.1541 35.9935L28.1542 35.9935C28.4011 35.7206 28.6646 35.4295 28.9663 35.0938C29.1488 34.9161 29.2096 34.5607 29.0271 34.2646C28.7838 33.7907 28.1755 32.6062 27.9322 32.1916C27.6281 31.5993 27.0807 31.3624 26.4116 31.5993L25.2558 31.8955C24.5867 32.1324 24.2218 32.8431 24.161 33.5539L23.6743 37.1076C23.6135 37.8183 23.3702 38.4106 23.0052 39.0029ZM9.3941 27.3744C9.3941 33.745 13.3292 39.156 18.8004 41.1031L20.2073 38.0556C20.5115 37.4633 20.7548 36.5749 20.8156 35.9234C20.8156 35.9234 21.1806 31.7774 21.2414 30.4152C21.2414 29.4675 20.3898 27.3353 19.964 26.3284C19.2291 24.7064 17.9812 24.1987 16.1248 23.4436C15.6765 23.2612 15.1927 23.0644 14.6721 22.8339C13.7018 22.4232 11.766 21.699 10.6707 21.2938C9.8513 23.1431 9.3941 25.203 9.3941 27.3744ZM14.09 19.9889C13.2677 19.6741 12.5502 19.3995 11.8474 19.1431C12.9679 17.4496 14.4246 16.0171 16.1169 14.9508C15.8739 15.4022 15.7369 15.9134 15.7369 16.4549C15.7369 18.2862 17.3038 19.7706 19.2368 19.7706C21.1697 19.7706 22.7367 18.2862 22.7367 16.4549C22.7367 14.9168 21.6312 13.6233 20.1318 13.2487C21.1448 13.0032 22.2003 12.8735 23.2848 12.8735C23.9026 12.8735 24.5109 12.9156 25.1074 12.9972C25.0226 13.6317 24.9293 14.3249 24.8387 14.9979L24.8386 14.9991L24.8386 14.9991C24.6442 16.4432 24.4623 17.7942 24.4044 18.2734C24.1868 19.8098 23.3364 20.2562 22.4628 20.7148C22.3598 20.7689 22.2565 20.8232 22.1538 20.8794L22.0684 20.9228C20.7145 21.6114 19.7392 22.1074 17.7134 21.3532C16.2432 20.813 15.0893 20.3714 14.0901 19.9889L14.09 19.9889Z" fill="#141414"/>
<mask id="path-3-outside-1_0_475" maskUnits="userSpaceOnUse" x="8.24725" y="9.46165" width="25" height="35" fill="black">
<rect fill="white" x="8.24725" y="9.46165" width="25" height="35"/>
<path fill-rule="evenodd" clip-rule="evenodd" d="M19.0654 12.8451C17.3242 13.0284 16.0033 14.6171 16.1834 16.3892C16.3635 18.1612 17.9246 19.4445 19.6659 19.3222C21.4071 19.1389 22.728 17.5502 22.5479 15.7781C22.3678 14.0061 20.8067 12.6618 19.0654 12.8451Z"/>
</mask>
<path d="M20.1418 43.3723C19.9933 43.6397 20.0897 43.9769 20.3571 44.1255C20.6246 44.274 20.9618 44.1776 21.1103 43.9102L20.1418 43.3723ZM22.9677 39.425L22.4906 39.1437C22.4881 39.1477 22.4858 39.1519 22.4835 39.156L22.9677 39.425ZM23.6282 37.4696L23.079 37.3977C23.0778 37.4066 23.0769 37.4155 23.0761 37.4244L23.6282 37.4696ZM24.1086 33.8033L24.6578 33.8753C24.659 33.8664 24.6599 33.8575 24.6606 33.8485L24.1086 33.8033ZM25.1893 32.0924L25.046 31.5573C25.0295 31.5617 25.0131 31.5669 24.9971 31.5729L25.1893 32.0924ZM26.3301 31.7869L26.4734 32.3219C26.49 32.3175 26.5063 32.3123 26.5224 32.3064L26.3301 31.7869ZM27.8312 32.3979L27.334 32.6422C27.3385 32.6513 27.3432 32.6603 27.3482 32.6691L27.8312 32.3979ZM28.912 34.5366L28.4148 34.7808C28.421 34.7934 28.4276 34.8058 28.4348 34.8179L28.912 34.5366ZM28.8519 35.3921L28.4568 35.0038C28.4482 35.0126 28.4399 35.0216 28.4319 35.0309L28.8519 35.3921ZM28.0503 36.3202L28.469 36.6828L28.469 36.6828L28.0503 36.3202ZM26.7504 37.8363L27.1677 38.2007L27.1741 38.1931L26.7504 37.8363ZM26.6904 39.9749L27.0697 39.5712C27.0647 39.5665 27.0596 39.562 27.0545 39.5575L26.6904 39.9749ZM28.7318 39.425L29.127 39.8132L29.127 39.8132L28.7318 39.425ZM30.8934 36.9197L30.4784 36.5527C30.4738 36.558 30.4692 36.5633 30.4648 36.5687L30.8934 36.9197ZM31.794 35.0865L32.3464 35.1283C32.3474 35.1144 32.348 35.1005 32.348 35.0865H31.794ZM31.6739 34.1088L31.1475 34.2813L31.1475 34.2813L31.6739 34.1088ZM30.5567 31.2159L30.0413 31.419V31.419L30.5567 31.2159ZM28.4316 25.7375L27.9118 25.929L27.913 25.9321L28.4316 25.7375ZM27.1707 16.6939L27.721 16.7576L27.7215 16.7528L27.1707 16.6939ZM28.322 11.1311C28.3545 10.8269 28.1342 10.554 27.83 10.5215C27.5258 10.489 27.2528 10.7092 27.2204 11.0135L28.322 11.1311ZM20.206 38.4477L19.7088 38.2034L19.7064 38.2085L20.206 38.4477ZM20.8064 36.2479L21.3582 36.2972L21.3584 36.2944L20.8064 36.2479ZM21.2267 30.5652L21.7802 30.5888C21.7805 30.581 21.7807 30.5731 21.7807 30.5652H21.2267ZM19.9658 26.3489L20.4795 26.1411L20.4741 26.1286L19.9658 26.3489ZM16.1762 23.3727L16.3929 22.8629H16.3929L16.1762 23.3727ZM14.7421 22.7437L14.9747 22.2409L14.9663 22.2372L14.7421 22.7437ZM9.99875 20.8495L10.1963 20.3319L10.191 20.33L9.99875 20.8495ZM9.33828 19.2608L9.85992 19.4472V19.4472L9.33828 19.2608ZM11.0195 18.5886L10.8106 19.1017C10.8175 19.1045 10.8244 19.1071 10.8313 19.1096L11.0195 18.5886ZM14.1677 19.8086L13.9619 20.3229V20.3229L14.1677 19.8086ZM17.7443 21.2161L17.9451 20.6999L17.9428 20.699L17.7443 21.2161ZM22.0431 20.7721L22.3031 21.2612H22.3031L22.0431 20.7721ZM22.1274 20.7273L22.3871 21.2165C22.3923 21.2138 22.3975 21.2109 22.4026 21.208L22.1274 20.7273ZM22.4324 20.5575L22.166 20.0719L22.166 20.0719L22.4324 20.5575ZM24.349 18.0387L24.898 18.1131L24.8992 18.1023L24.349 18.0387ZM24.7775 14.6605L25.3269 14.7313V14.7313L24.7775 14.6605ZM25.8598 10.5265C25.8956 10.2227 25.6783 9.94735 25.3745 9.91153C25.0707 9.8757 24.7953 10.093 24.7595 10.3968L25.8598 10.5265ZM17.4247 42.9747C17.2926 43.2507 17.4093 43.5815 17.6852 43.7135C17.9611 43.8456 18.2919 43.729 18.424 43.4531L17.4247 42.9747ZM21.1103 43.9102L23.452 39.6939L22.4835 39.156L20.1418 43.3723L21.1103 43.9102ZM23.4449 39.7063C23.8352 39.0443 24.1117 38.3528 24.1803 37.5148L23.0761 37.4244C23.0247 38.053 22.8208 38.5836 22.4906 39.1437L23.4449 39.7063ZM24.1775 37.5416L24.6578 33.8753L23.5593 33.7314L23.079 37.3977L24.1775 37.5416ZM24.6606 33.8485C24.7122 33.2193 25.0096 32.7495 25.3816 32.6119L24.9971 31.5729C24.0481 31.9241 23.625 32.9208 23.5565 33.7581L24.6606 33.8485ZM25.3326 32.6275L26.4734 32.3219L26.1868 31.2518L25.046 31.5573L25.3326 32.6275ZM26.5224 32.3064C26.7474 32.2231 26.8998 32.2398 27.0017 32.2825C27.1067 32.3265 27.2288 32.428 27.334 32.6422L28.3284 32.1536C28.1334 31.7568 27.8352 31.4306 27.4298 31.2607C27.0213 31.0895 26.5733 31.1062 26.1379 31.2674L26.5224 32.3064ZM27.3482 32.6691C27.5788 33.0797 28.17 34.2826 28.4148 34.7808L29.4091 34.2923C29.1735 33.8128 28.564 32.5715 28.3142 32.1267L27.3482 32.6691ZM28.4348 34.8179C28.4614 34.863 28.47 34.9123 28.4658 34.956C28.4609 35.0057 28.4433 35.0176 28.4568 35.0038L29.247 35.7803C29.6184 35.4024 29.6851 34.7572 29.3891 34.2552L28.4348 34.8179ZM28.4319 35.0309C28.1349 35.3764 27.8754 35.676 27.6315 35.9575L28.469 36.6828C28.7128 36.4014 28.9735 36.1004 29.272 35.7532L28.4319 35.0309ZM27.6315 35.9575C27.1873 36.4705 26.7948 36.9237 26.3267 37.4794L27.1741 38.1931C27.6366 37.644 28.0245 37.1961 28.469 36.6828L27.6315 35.9575ZM26.3332 37.4718C26.0633 37.7809 25.7619 38.2267 25.6781 38.7491C25.5867 39.3191 25.7674 39.9049 26.3263 40.3924L27.0545 39.5575C26.7727 39.3117 26.7434 39.1032 26.772 38.9246C26.8083 38.6985 26.9572 38.4416 27.1676 38.2007L26.3332 37.4718ZM26.3111 40.3787C26.58 40.6312 26.8832 40.7816 27.2104 40.8177C27.5311 40.853 27.8215 40.7729 28.0619 40.6583C28.519 40.4406 28.9022 40.042 29.127 39.8132L28.3367 39.0367C28.0812 39.2968 27.8339 39.5398 27.5855 39.6581C27.4731 39.7117 27.3921 39.7231 27.3318 39.7165C27.2782 39.7106 27.1911 39.6853 27.0697 39.5712L26.3111 40.3787ZM29.127 39.8132C29.7487 39.1805 30.7266 37.9977 31.322 37.2706L30.4648 36.5687C29.8593 37.3082 28.9158 38.4474 28.3367 39.0367L29.127 39.8132ZM31.3083 37.2866C31.5823 36.9768 31.8302 36.6759 32.013 36.3317C32.2024 35.9752 32.3112 35.5943 32.3464 35.1283L31.2417 35.0448C31.2168 35.3731 31.1455 35.6033 31.0346 35.812C30.9172 36.033 30.7448 36.2515 30.4784 36.5527L31.3083 37.2866ZM32.348 35.0865V35.0865H31.2401V35.0865H32.348ZM32.348 35.0865C32.348 34.7809 32.3507 34.3954 32.2003 33.9364L31.1475 34.2813C31.2373 34.5555 31.2401 34.7811 31.2401 35.0865H32.348ZM32.2003 33.9364C32.0815 33.5735 31.632 32.4336 31.0721 31.0128L30.0413 31.419C30.6121 32.8673 31.042 33.9591 31.1475 34.2813L32.2003 33.9364ZM31.0721 31.0128C30.4268 29.3755 29.6203 27.3287 28.9503 25.5429L27.913 25.9321C28.5868 27.728 29.3968 29.7835 30.0413 31.419L31.0721 31.0128ZM28.9514 25.5459C27.8924 22.672 27.3731 19.7667 27.721 16.7575L26.6205 16.6303C26.2478 19.8538 26.8093 22.9368 27.9119 25.929L28.9514 25.5459ZM27.7215 16.7528L28.322 11.1311L27.2204 11.0135L26.6199 16.6351L27.7215 16.7528ZM20.7032 38.692C21.0364 38.0137 21.2927 37.03 21.3582 36.2972L20.2547 36.1987C20.2001 36.8102 19.976 37.6597 19.7088 38.2035L20.7032 38.692ZM20.8064 36.2479C21.3584 36.2944 21.3584 36.2944 21.3584 36.2944C21.3584 36.2943 21.3584 36.2943 21.3584 36.2942C21.3584 36.2941 21.3585 36.2939 21.3585 36.2936C21.3585 36.2931 21.3586 36.2923 21.3587 36.2913C21.3589 36.2892 21.3591 36.2861 21.3595 36.282C21.3601 36.2738 21.3612 36.2617 21.3625 36.2458C21.3652 36.2141 21.3691 36.1673 21.3741 36.1074C21.384 35.9875 21.3984 35.8147 21.4157 35.603C21.4505 35.1795 21.4975 34.6002 21.5463 33.9769C21.6437 32.7347 21.7496 31.3034 21.7802 30.5888L20.6733 30.5415C20.6438 31.2324 20.5396 32.6425 20.4418 33.8903C20.3931 34.512 20.3463 35.0898 20.3116 35.5123C20.2942 35.7236 20.28 35.8959 20.27 36.0154C20.265 36.0752 20.2611 36.1217 20.2585 36.1533C20.2572 36.1691 20.2562 36.1812 20.2555 36.1893C20.2551 36.1933 20.2549 36.1964 20.2547 36.1984C20.2546 36.1994 20.2546 36.2002 20.2545 36.2007C20.2545 36.201 20.2545 36.2011 20.2545 36.2013C20.2545 36.2013 20.2545 36.2014 20.2545 36.2014C20.2544 36.2014 20.2544 36.2015 20.8064 36.2479ZM21.7807 30.5652C21.7807 29.9751 21.5398 29.0998 21.2803 28.3076C21.012 27.4884 20.6916 26.6657 20.4793 26.1412L19.4523 26.5567C19.6604 27.071 19.9704 27.8675 20.2275 28.6524C20.4933 29.4641 20.6728 30.1776 20.6728 30.5652H21.7807ZM20.4741 26.1286C19.6495 24.2265 18.2024 23.6323 16.3929 22.8629L15.9594 23.8825C17.8147 24.6713 18.8313 25.1245 19.4576 26.5693L20.4741 26.1286ZM16.3929 22.8629C15.9497 22.6745 15.4797 22.4746 14.9747 22.241L14.5096 23.2465C15.0324 23.4884 15.5175 23.6946 15.9594 23.8825L16.3929 22.8629ZM14.9663 22.2372C14.2632 21.9261 13.0664 21.4483 12.0547 21.0518C11.5469 20.8527 11.0824 20.6728 10.745 20.5427C10.5762 20.4776 10.4391 20.425 10.3442 20.3886C10.2967 20.3704 10.2598 20.3563 10.2347 20.3467C10.2222 20.3419 10.2126 20.3382 10.2061 20.3357C10.2029 20.3345 10.2004 20.3336 10.1988 20.3329C10.198 20.3326 10.1973 20.3324 10.1969 20.3322C10.1967 20.3321 10.1965 20.3321 10.1964 20.332C10.1964 20.332 10.1963 20.332 10.1963 20.332C10.1963 20.332 10.1963 20.332 9.99875 20.8495C9.80124 21.367 9.80125 21.367 9.80127 21.367C9.80129 21.367 9.80132 21.3671 9.80137 21.3671C9.80147 21.3671 9.80161 21.3672 9.80181 21.3672C9.8022 21.3674 9.8028 21.3676 9.80359 21.3679C9.80519 21.3685 9.80758 21.3694 9.81075 21.3707C9.81709 21.3731 9.82655 21.3767 9.83897 21.3814C9.8638 21.3909 9.90046 21.405 9.94763 21.4231C10.042 21.4592 10.1784 21.5116 10.3464 21.5764C10.6826 21.706 11.145 21.8851 11.6504 22.0832C12.6651 22.481 13.8401 22.9504 14.518 23.2503L14.9663 22.2372ZM10.191 20.33C10.0043 20.2609 9.89848 20.1438 9.84538 20.0105C9.78943 19.8701 9.77869 19.6745 9.85992 19.4472L8.81664 19.0744C8.6577 19.5192 8.64696 19.9958 8.81616 20.4205C8.98823 20.8525 9.33275 21.1937 9.8065 21.369L10.191 20.33ZM9.85992 19.4472C9.91445 19.2945 10.0424 19.1709 10.233 19.1016C10.4292 19.0303 10.6471 19.0351 10.8106 19.1017L11.2283 18.0756C10.7914 17.8977 10.2888 17.9025 9.85456 18.0604C9.41471 18.2202 9.00228 18.5548 8.81664 19.0744L9.85992 19.4472ZM10.8313 19.1096C11.8334 19.4715 12.7838 19.8516 13.9619 20.3229L14.3734 19.2943C13.1986 18.8243 12.2305 18.437 11.2076 18.0676L10.8313 19.1096ZM13.9619 20.3229C14.9484 20.7175 16.0906 21.1744 17.5457 21.7332L17.9428 20.699C16.4955 20.1432 15.3595 19.6888 14.3734 19.2943L13.9619 20.3229ZM17.5434 21.7324C18.6145 22.1491 19.4602 22.2392 20.2414 22.0973C20.9987 21.9598 21.6499 21.6084 22.3031 21.2612L21.7831 20.283C21.0998 20.6462 20.6014 20.9059 20.0434 21.0073C19.5091 21.1043 18.8737 21.0612 17.9451 20.6999L17.5434 21.7324ZM22.3031 21.2612C22.331 21.2463 22.359 21.2315 22.3871 21.2165L21.8676 20.238C21.8392 20.2531 21.811 20.2681 21.7831 20.283L22.3031 21.2612ZM22.4026 21.208C22.4989 21.1529 22.5965 21.0993 22.6989 21.0431L22.166 20.0719C22.065 20.1273 21.9586 20.1856 21.8522 20.2465L22.4026 21.208ZM22.6989 21.0431C23.1183 20.813 23.6248 20.5402 24.0401 20.0912C24.472 19.6243 24.7773 19.0027 24.8979 18.1131L23.8 17.9643C23.7058 18.6597 23.4839 19.061 23.2268 19.3389C22.9532 19.6348 22.6089 19.8288 22.166 20.0719L22.6989 21.0431ZM24.8992 18.1023C24.9558 17.6126 25.1347 16.2241 25.3269 14.7313L24.2281 14.5897C24.0366 16.0768 23.8564 17.476 23.7987 17.9751L24.8992 18.1023ZM25.3269 14.7313C25.538 13.0924 25.7649 11.3309 25.8598 10.5265L24.7595 10.3968C24.6655 11.1936 24.4397 12.9469 24.2281 14.5897L25.3269 14.7313ZM18.424 43.4531L20.7056 38.6869L19.7064 38.2085L17.4247 42.9747L18.424 43.4531ZM16.1834 16.3892L17.2856 16.2772V16.2772L16.1834 16.3892ZM19.0654 12.8451L18.9494 11.7433V11.7433L19.0654 12.8451ZM19.6659 19.3222L19.7434 20.4274C19.7563 20.4265 19.7691 20.4254 19.7819 20.424L19.6659 19.3222ZM22.5479 15.7781L23.6501 15.6661V15.6661L22.5479 15.7781ZM17.2856 16.2772C17.168 15.1202 18.0392 14.0671 19.1814 13.9469L18.9494 11.7433C16.6092 11.9897 14.8386 14.1141 15.0812 16.5012L17.2856 16.2772ZM19.5883 18.2171C18.437 18.2979 17.4045 17.4469 17.2856 16.2772L15.0812 16.5012C15.3226 18.8756 17.4123 20.591 19.7434 20.4274L19.5883 18.2171ZM21.4457 15.8902C21.5633 17.0471 20.6921 18.1002 19.5499 18.2205L19.7819 20.424C22.1221 20.1776 23.8927 18.0532 23.6501 15.6661L21.4457 15.8902ZM19.1814 13.9469C20.2692 13.8324 21.3231 14.6841 21.4457 15.8902L23.6501 15.6661C23.4124 13.3281 21.3441 11.4912 18.9494 11.7433L19.1814 13.9469Z" fill="#141414" mask="url(#path-3-outside-1_0_475)"/>
<path d="M30.0885 7.67169L27.2501 9.08386C26.9416 9.20154 26.6331 9.1427 26.4479 8.8485L23.1776 2.78791C23.0542 2.49371 23.1159 2.19951 23.4244 2.02299L26.2628 0.610811C26.5714 0.493129 26.8799 0.55197 27.065 0.846173L30.3353 6.90676C30.4587 7.20096 30.3353 7.55401 30.0885 7.67169Z" fill="#141414" stroke="#141414" stroke-width="1.10788"/>
<path d="M2.91792 27.4106C2.88901 26.7852 3.65043 26.3916 4.14713 26.8385L5.46996 28.0301L7.01257 27.1395C7.62974 26.7835 8.34201 27.4249 8.05275 28.0759L7.32741 29.7024L8.65157 30.8943C9.18136 31.3714 8.79115 32.2482 8.08214 32.1737L6.31077 31.9864L5.58725 33.6141C5.29697 34.2648 4.34361 34.1642 4.19543 33.4671L3.82489 31.7257L2.054 31.5393C1.34537 31.4644 1.146 30.5267 1.76313 30.1702L3.3049 29.2801L2.93521 27.5382L2.91792 27.4106Z" fill="url(#paint0_linear_0_475)" stroke="url(#paint1_linear_0_475)" stroke-width="0.990773"/>
<path d="M5.95847 6.76046C6.09242 6.14884 6.92976 5.96576 7.29387 6.52599L8.26321 8.01935L9.98377 7.55833C10.672 7.37424 11.194 8.17812 10.7461 8.73206L9.62455 10.1154L10.5951 11.6094C10.9834 12.2073 10.3795 12.9533 9.71395 12.6978L8.0514 12.0585L6.93125 13.4434C6.48246 13.9968 5.58761 13.6529 5.62491 12.9412L5.71771 11.1632L4.05541 10.5248C3.3903 10.2691 3.44043 9.31175 4.12878 9.12716L5.8484 8.66639L5.94214 6.88818L5.95847 6.76046Z" fill="url(#paint2_linear_0_475)" stroke="url(#paint3_linear_0_475)" stroke-width="0.990773"/>
<path d="M39.8721 10.3887C40.2939 9.92601 41.1106 10.1861 41.1458 10.8533L41.2386 12.6313L42.9591 13.0923C43.6472 13.277 43.6974 14.2342 43.0325 14.49L41.3695 15.1272L41.463 16.9064C41.5003 17.6183 40.6044 17.9624 40.1557 17.4083L39.0356 16.0234L37.373 16.6627C36.7077 16.9176 36.1047 16.1723 36.4928 15.5746L37.4622 14.0812L36.3418 12.6972C35.8936 12.1432 36.4157 11.3392 37.1042 11.5235L38.8238 11.9843L39.7941 10.4912L39.8721 10.3887Z" fill="url(#paint4_linear_0_475)" stroke="url(#paint5_linear_0_475)" stroke-width="0.990773"/>
<path d="M38.0532 23.763C38.5804 23.4253 39.3019 23.8879 39.1632 24.5415L38.7927 26.2829L40.3353 27.1735C40.9522 27.53 40.7529 28.4676 40.0444 28.5426L38.2732 28.7276L37.903 30.4704C37.7548 31.1677 36.8003 31.2682 36.5104 30.6169L35.7868 28.9892L34.0155 29.1765C33.3068 29.2504 32.9172 28.3745 33.4469 27.8976L34.7697 26.706L34.0457 25.0792C33.7562 24.4281 34.4686 23.7866 35.0859 24.1428L36.6276 25.0329L37.9513 23.8418L38.0532 23.763Z" fill="url(#paint6_linear_0_475)" stroke="url(#paint7_linear_0_475)" stroke-width="0.990773"/>
<defs>
<linearGradient id="paint0_linear_0_475" x1="1.79316" y1="31.7027" x2="9.0519" y2="27.5119" gradientUnits="userSpaceOnUse">
<stop offset="0.00110742" stop-color="#FF7A00"/>
<stop offset="0.998551" stop-color="#FFB932"/>
</linearGradient>
<linearGradient id="paint1_linear_0_475" x1="1.79316" y1="31.7027" x2="9.0519" y2="27.5119" gradientUnits="userSpaceOnUse">
<stop offset="0.00110742" stop-color="#FF7A00"/>
<stop offset="0.998551" stop-color="#FFB932"/>
</linearGradient>
<linearGradient id="paint2_linear_0_475" x1="3.76115" y1="10.6152" x2="11.8572" y2="8.44586" gradientUnits="userSpaceOnUse">
<stop offset="0.00110742" stop-color="#FF7A00"/>
<stop offset="0.998551" stop-color="#FFB932"/>
</linearGradient>
<linearGradient id="paint3_linear_0_475" x1="3.76115" y1="10.6152" x2="11.8572" y2="8.44586" gradientUnits="userSpaceOnUse">
<stop offset="0.00110742" stop-color="#FF7A00"/>
<stop offset="0.998551" stop-color="#FFB932"/>
</linearGradient>
<linearGradient id="paint4_linear_0_475" x1="36.0418" y1="12.6284" x2="44.1378" y2="14.7977" gradientUnits="userSpaceOnUse">
<stop offset="0.00110742" stop-color="#FF7A00"/>
<stop offset="0.998551" stop-color="#FFB932"/>
</linearGradient>
<linearGradient id="paint5_linear_0_475" x1="36.0418" y1="12.6284" x2="44.1378" y2="14.7977" gradientUnits="userSpaceOnUse">
<stop offset="0.00110742" stop-color="#FF7A00"/>
<stop offset="0.998551" stop-color="#FFB932"/>
</linearGradient>
<linearGradient id="paint6_linear_0_475" x1="33.7737" y1="24.935" x2="41.0325" y2="29.1259" gradientUnits="userSpaceOnUse">
<stop offset="0.00110742" stop-color="#FF7A00"/>
<stop offset="0.998551" stop-color="#FFB932"/>
</linearGradient>
<linearGradient id="paint7_linear_0_475" x1="33.7737" y1="24.935" x2="41.0325" y2="29.1259" gradientUnits="userSpaceOnUse">
<stop offset="0.00110742" stop-color="#FF7A00"/>
<stop offset="0.998551" stop-color="#FFB932"/>
</linearGradient>
</defs>
</svg>
