<svg width="10" height="12" viewBox="0 0 10 12" fill="none" xmlns="http://www.w3.org/2000/svg">
<path d="M5.25273 0.0101255C5.8804 0 6.50448 0.00600032 7.12783 0C7.1656 0.765416 7.42961 1.54508 7.967 2.08624C8.50331 2.64089 9.2619 2.89478 10 2.98066V4.99414C9.3083 4.97052 8.61337 4.82051 7.9857 4.50999C7.71233 4.38098 7.45767 4.21485 7.2084 4.04497C7.20516 5.50604 7.21416 6.96525 7.19941 8.42032C7.162 9.11936 6.94079 9.81502 6.55088 10.3911C5.92357 11.35 4.83477 11.9751 3.71647 11.9946C3.03053 12.0355 2.34531 11.8405 1.7608 11.4812C0.792144 10.8857 0.11052 9.79552 0.0112438 8.62546C-0.000266494 8.37532 -0.00422316 8.12556 0.00548863 7.88142C0.0918157 6.93 0.543234 6.01982 1.24392 5.40066C2.03813 4.6795 3.15067 4.33598 4.19235 4.53924C4.20206 5.27991 4.17365 6.01982 4.17365 6.76049C3.69777 6.59998 3.14168 6.64498 2.72587 6.94612C2.42229 7.15126 2.19172 7.46552 2.07158 7.82104C1.97231 8.07456 2.00072 8.3562 2.00648 8.62546C2.1205 9.446 2.8773 10.1357 3.68518 10.061C4.22077 10.055 4.73405 9.73102 5.01318 9.25662C5.10346 9.09048 5.20453 8.9206 5.20993 8.72522C5.25705 7.83079 5.23835 6.94012 5.2441 6.0457C5.24806 4.02996 5.23835 2.01986 5.25309 0.0105006L5.25273 0.0101255Z" fill="white"/>
</svg>
