<svg width="12" height="7" viewBox="0 0 12 7" fill="none" xmlns="http://www.w3.org/2000/svg">
<path fill-rule="evenodd" clip-rule="evenodd" d="M9.76269 3.33593C9.76269 3.33593 11.3111 1.1762 11.4651 0.466422C11.5163 0.21295 11.4035 0.0709263 11.1368 0.0709263H9.79349C9.48583 0.0709263 9.37298 0.202787 9.28073 0.395453C9.28073 0.395453 8.55438 1.9256 7.6707 2.88983C7.38696 3.20159 7.24272 3.2954 7.08613 3.2954C6.95985 3.2954 6.90155 3.19125 6.90155 2.91007V0.446139C6.90155 0.101415 6.86056 0 6.57342 0H4.41988C4.25577 0 4.15324 0.0943264 4.15324 0.22307C4.15324 0.547725 4.65572 0.621 4.65572 1.50068V3.31564C4.65572 3.68069 4.63521 3.82263 4.46086 3.82263C3.99941 3.82263 2.90213 2.25102 2.28685 0.466422C2.16377 0.101415 2.03046 0 1.68181 0H0.338409C0.143595 0 0 0.131775 0 0.324442C0 0.679329 0.42042 2.32195 2.07153 4.52229C3.17904 6.00268 4.63521 6.80371 5.94786 6.80371C6.74772 6.80371 6.94257 6.67194 6.94257 6.33729V5.20161C6.94257 4.9177 7.05542 4.79604 7.21944 4.79604C7.40402 4.79604 7.72982 4.85467 8.49107 5.59707C9.39349 6.44882 9.45508 6.80371 9.94732 6.80371H11.4548C11.6086 6.80371 11.7522 6.73274 11.7522 6.47923C11.7522 6.14458 11.3111 5.54642 10.6344 4.83661C10.3575 4.4716 9.90625 4.07615 9.76269 3.89364C9.5576 3.68069 9.61914 3.559 9.76269 3.33593Z" fill="white"/>
</svg>
