<svg width="24" height="30" viewBox="0 0 24 30" fill="none" xmlns="http://www.w3.org/2000/svg">
<path d="M20.0459 15.6682C20.0459 13.3719 21.2646 11.2108 23.2958 9.99513C22.0771 8.23919 20.0459 7.15861 17.8793 7.02354C15.5774 6.75339 13.4108 8.37426 12.1921 8.37426C10.9734 8.37426 9.21303 7.02354 7.31727 7.02354C4.74446 7.15861 2.44247 8.50934 1.22377 10.6705C-1.34904 15.1279 0.546714 21.8815 3.11953 25.5285C4.33823 27.2844 5.82775 29.3105 7.72351 29.3105C9.61926 29.1755 10.2963 28.0949 12.5983 28.0949C14.9003 28.0949 15.4419 29.3105 17.4731 29.3105C19.5043 29.3105 20.723 27.5546 21.9417 25.6636C22.8896 24.4479 23.5666 22.9621 23.9728 21.4763C21.5354 20.6659 20.0459 18.2346 20.0459 15.6682Z" fill="white"/>
<path d="M16.2544 4.72754C17.3377 3.37682 17.8794 1.75594 17.744 0C16.119 0.135073 14.4941 0.945509 13.4108 2.29624C12.3275 3.51189 11.7859 5.13276 11.9213 6.88871C13.6816 6.88871 15.1711 6.07827 16.2544 4.72754Z" fill="white"/>
</svg>
