<svg width="34" height="15" viewBox="0 0 34 15" fill="none" xmlns="http://www.w3.org/2000/svg">
<path d="M1.0017 6.32022C0.449419 6.31928 0.000941694 6.76623 1.43051e-06 7.31851C-0.000938773 7.8708 0.446014 8.31928 0.998297 8.32022L1.0017 6.32022ZM33.7059 8.08301C34.0971 7.69315 34.0982 7.05998 33.7083 6.6688L27.3552 0.294009C26.9653 -0.0971799 26.3322 -0.098258 25.941 0.291601C25.5498 0.68146 25.5487 1.31462 25.9386 1.70581L31.5858 7.37229L25.9193 13.0195C25.5281 13.4094 25.527 14.0425 25.9169 14.4337C26.3068 14.8249 26.9399 14.826 27.3311 14.4361L33.7059 8.08301ZM0.998297 8.32022L32.9983 8.3747L33.0017 6.3747L1.0017 6.32022L0.998297 8.32022Z" fill="black"/>
</svg>
