<svg width="60" height="60" viewBox="0 0 60 60" fill="none" xmlns="http://www.w3.org/2000/svg">
<circle cx="29.9913" cy="29.9913" r="29.9913" fill="#FFCD17"/>
<path d="M15.8206 29.8233C15.2085 30.4354 15.2085 31.4279 15.8206 32.04L25.7961 42.0155C26.4082 42.6276 27.4007 42.6276 28.0128 42.0155C28.625 41.4033 28.625 40.4108 28.0128 39.7987L19.1458 30.9316L28.0128 22.0646C28.625 21.4524 28.625 20.46 28.0128 19.8478C27.4007 19.2357 26.4082 19.2357 25.7961 19.8478L15.8206 29.8233ZM40.9639 32.4991C41.8296 32.4991 42.5314 31.7973 42.5314 30.9316C42.5314 30.0659 41.8296 29.3642 40.9639 29.3642V32.4991ZM16.929 32.4991L40.9639 32.4991V29.3642L16.929 29.3642V32.4991Z" fill="#141414"/>
</svg>
