<svg width="480" height="780" viewBox="0 0 480 780" fill="none" xmlns="http://www.w3.org/2000/svg">
<path d="M95.731 401.25C95.731 401.25 101.136 422.109 72.8424 422.109C29.0336 422.109 12.1841 377.268 12.1841 377.268C12.1841 377.268 21.6265 414.319 21.6265 440.65C21.6265 466.981 18.2899 493.956 6.77889 488.452C4.44332 494.6 2.07438 516.714 14.8867 516.714C27.699 516.714 35.1061 476.413 32.4035 453.333C40.4779 486.81 40.4779 487.776 40.4779 505.351C40.4779 522.927 33.4045 562.552 12.8514 553.121C12.8514 553.121 -0.961878 581.094 22.6274 581.094C39.3101 581.094 57.2274 546.297 50.5543 502.422C51.5886 501.424 60.03 519 60.03 540.116C60.03 561.232 52.2893 609.356 11.5168 609.356C11.5168 609.356 12.1841 637.329 41.5456 637.329C70.9071 637.329 80.6165 570.696 72.8757 547.198C72.8757 547.198 123.758 618.401 123.758 662.63C123.758 712.685 54.9918 722.76 54.9918 673.671C54.7428 668.344 56.2139 663.074 59.2022 658.588C62.1904 654.102 66.5484 650.622 71.6745 648.627C71.6745 648.627 12.7179 641.803 12.7179 694.788C12.7179 766.313 138.072 755.272 138.072 678.21C138.072 643.509 129.297 627.833 129.297 627.833C148.248 661.31 196.528 682.781 178.844 724.692C178.844 724.692 182.881 730.067 194.493 730.067C206.104 730.067 235.432 705.7 194.493 660.087C217.248 669.744 269.298 699.101 269.298 744.714C269.298 759.617 257.687 757.364 257.687 757.364C260.548 765.394 265.953 772.353 273.138 777.257C280.323 782.162 288.924 784.763 297.725 784.693C329.322 784.693 345.237 744.714 277.706 695.206C322.449 708.082 361.62 747.868 361.62 777.612C361.62 822.001 285.78 827.827 285.78 801.014C261.524 824.415 284.279 856.605 317.644 856.605C340.132 856.605 370.695 829.791 370.695 807.838C377.101 849.201 343.736 882.357 291.185 882.357C250.413 882.357 225.189 846.562 256.218 815.08C256.519 814.791 249.545 809.866 235.599 809.866C221.652 809.866 196.494 818.331 196.494 855.382C196.494 892.432 232.229 930.802 307.701 912.615C307.701 912.615 244.674 944.805 163.83 884.32C164.282 880.644 163.594 876.92 161.854 873.62C160.114 870.32 157.4 867.592 154.054 865.779C161.794 858.311 168.534 855.06 168.534 829.051C168.534 783.212 135.169 772.171 135.169 772.171C135.169 803.717 112.247 816.368 112.247 840.768C112.115 845.799 113.135 850.796 115.234 855.403C117.334 860.01 120.46 864.113 124.392 867.421C124.392 867.421 105.507 856.669 86.6556 856.669C48.2187 856.669 22.6274 873.891 12.5177 869.545C12.5177 869.545 30.3682 903.344 77.8805 903.344C93.9879 902.861 109.63 898.02 123.024 889.374C127.094 895.2 144.178 903.022 156.389 895.2C156.389 895.2 216.447 939.751 266.929 939.751C285.274 939.466 303.484 936.67 321.014 931.446C321.014 931.446 307.167 953.238 307.167 975.353C307.167 1017.94 358.417 1014.69 358.417 977.606C350.642 985.106 341.2 978.282 341.2 961.511C341.2 908.817 394.118 883.483 394.118 822.033C394.118 722.245 299.76 693.275 299.76 693.275C299.76 693.275 424.78 710.174 424.78 821.357C424.78 838.257 418.708 850.328 419.042 851.262C419.375 852.195 442.964 858.408 449.704 820.037C451.072 818.75 460.848 878.237 411.301 889.31C411.301 903.602 439.928 903.924 460.848 881.81C460.848 906.531 426.482 956.908 388.045 953.013C388.045 970.556 408.598 997.885 453.408 974.129C453.408 982.274 409.265 1037.87 361.419 1037.87C324.718 1037.87 314.274 1017.04 314.274 1017.04C314.274 1017.04 295.723 1036.55 314.941 1060.62C334.16 1084.7 385.709 1078.81 398.822 1065.16C398.822 1065.16 353.011 1111.32 289.984 1080.77C289.984 1080.77 272.134 1117.18 325.051 1117.18C325.051 1117.18 293.855 1134.88 232.963 1134.88C65.4018 1134.88 90.6928 979.344 187.719 979.344C279.808 979.344 272.501 1072.05 214.645 1072.05C156.79 1072.05 169.302 1004.74 183.515 1004.74C135.002 1004.74 121.022 1106.85 214.478 1106.85C307.001 1106.85 314.941 947.187 192.124 947.187C91.5269 947.187 96.5985 1064.71 96.5985 1064.71C96.5985 1064.71 70.3065 1035.45 39.8773 1035.45C9.44809 1035.45 2.14108 1051.55 4.84367 1069.57C6.01146 1068.12 29.7676 1039.83 92.4278 1093.97C85.7547 1093.97 71.2074 1083.74 48.4856 1083.74C25.7638 1083.74 -1.56247 1099.83 13.5854 1123.72C45.4493 1111.52 71.2074 1133.95 90.3258 1131.99C90.3258 1131.99 30.6685 1132.99 26.6313 1192.95C92.8615 1151.98 155.522 1149.08 155.522 1149.08C155.522 1149.08 122.657 1179.79 141.375 1207.02C160.593 1177.28 181.413 1156.81 211.642 1152.3C241.871 1147.79 475.963 1154.07 475.963 882.131C475.963 717.964 321.648 689.219 321.648 689.219C321.648 689.219 475.963 693.757 475.963 527.981C475.963 346.56 199.664 293.897 199.664 453.204C199.664 559.816 341.2 551.382 341.2 487.647C341.2 456.455 324.351 450.596 324.351 450.596C324.351 500.008 234.03 505.866 234.03 434.502C234.03 363.137 343.202 355.186 416.005 425.392C370.161 409.297 357.349 449.47 357.349 449.47C357.349 449.47 416.005 434.502 448.336 477.411C448.336 477.411 410.6 459.223 382.974 485.233C446.368 496.274 456.377 535.288 456.377 535.288C456.377 535.288 429.418 520.319 413.269 533.968C412.602 533.968 463.818 547.648 444.266 604.785C424.714 661.922 351.944 677.598 317.477 677.598C244.674 677.598 196.161 648.338 196.161 648.338C196.161 648.338 233.23 656.16 267.596 640.548C268.263 639.904 275.003 652.909 297.258 646.986C314.775 663.885 354.646 674.54 398.322 642.415C346.772 647.63 352.845 614.796 302.296 626.32C318.812 617.532 321.181 607.457 321.181 593.132C321.181 578.808 312.739 566.801 312.739 555.438C312.72 552.141 313.469 548.882 314.93 545.901C316.391 542.921 318.527 540.294 321.181 538.217C321.181 538.217 271.633 535.288 271.633 582.413C271.783 592.629 275.288 602.536 281.643 610.708C281.643 610.708 262.091 617.146 264.126 633.241C240.77 640.387 172.138 659.894 125.96 601.051C176.509 635.172 248.277 635.172 248.277 586.727C248.277 560.75 221.585 553.249 221.585 553.249C230.327 567.574 185.517 612.414 96.2315 567.22C89.158 556.179 84.4201 549.033 84.4201 549.033C84.4201 549.033 119.487 574.398 149.783 574.398C180.079 574.398 196.494 561.715 196.494 540.245C196.494 518.774 175.608 512.626 175.608 512.626C175.608 523.989 152.252 542.208 121.356 542.208C90.4593 542.208 60.3637 514.236 50.5876 484.653C96.098 528.56 157.357 511.982 157.357 480.115C157.357 448.247 133.768 452.142 133.768 452.142C146.58 471.456 53.8908 505.158 27.9659 417.377C27.9659 417.377 49.8536 454.749 85.5879 454.749C121.322 454.749 126.394 421.722 95.731 401.25Z" fill="white"/>
<path d="M90.3592 686.064C93.2957 686.064 96.1664 685.224 98.608 683.65C101.05 682.076 102.953 679.839 104.077 677.222C105.2 674.604 105.494 671.724 104.921 668.945C104.349 666.167 102.934 663.614 100.858 661.611C98.7815 659.608 96.1359 658.243 93.2558 657.691C90.3756 657.138 87.3903 657.422 84.6772 658.506C81.9642 659.59 79.6453 661.426 78.0138 663.782C76.3824 666.137 75.5116 668.907 75.5116 671.74C75.5072 673.622 75.8882 675.487 76.6328 677.227C77.3774 678.967 78.4709 680.547 79.8505 681.878C81.2301 683.209 82.8686 684.264 84.672 684.983C86.4754 685.701 88.4081 686.069 90.3592 686.064Z" fill="white"/>
<path d="M283.078 454.685C286.76 454.685 290.359 453.631 293.421 451.658C296.483 449.684 298.869 446.879 300.278 443.597C301.687 440.314 302.056 436.703 301.338 433.219C300.619 429.735 298.846 426.534 296.242 424.022C293.639 421.51 290.321 419.799 286.71 419.106C283.098 418.413 279.355 418.769 275.953 420.128C272.551 421.488 269.643 423.79 267.597 426.744C265.552 429.698 264.46 433.17 264.46 436.723C264.455 439.083 264.934 441.421 265.868 443.602C266.802 445.783 268.173 447.765 269.903 449.433C271.633 451.102 273.687 452.425 275.948 453.326C278.208 454.227 280.631 454.689 283.078 454.685Z" fill="white"/>
<path d="M64.501 851.455C57.561 846.401 55.5257 840.446 55.5257 831.819C55.5257 820.038 61.7984 814.63 65.5353 812.505C69.6066 810.321 74.2279 809.273 78.8815 809.48C88.0236 809.48 94.8301 816.497 101.436 825.188C106.508 804.876 118.653 795.734 116.084 779.672C109.711 739.692 63.0329 749.607 57.7946 773.234C34.7391 758.942 9.7818 786.11 29.8344 810.123C-10.2041 810.799 -7.73503 856.315 24.0955 856.315C34.5723 856.219 53.0567 852.066 64.501 851.455Z" fill="white"/>
<path d="M186.818 823.192C186.818 823.192 172.405 794.672 180.512 768.792C190.088 738.212 224.455 743.491 224.455 764.704C224.455 781.507 206.504 786.399 186.818 823.192Z" fill="white"/>
<path d="M367.993 693.5C366.958 693.307 447.869 694.788 470.791 637.265C472.96 639.389 486.94 667.491 460.782 684.39C473.928 684.39 480 701.354 480 701.354C480 701.354 470.725 715.614 457.245 716.58C457.245 716.58 485.872 731.548 470.925 769.114C471.492 768.599 440.462 707.149 367.993 693.5Z" fill="white"/>
<path d="M334.527 579.42C338.581 575.932 343.584 573.637 348.947 572.804C354.309 571.971 359.806 572.636 364.79 574.72C368.78 576.546 372.153 579.427 374.515 583.028C376.877 586.629 378.133 590.802 378.136 595.064C378.005 599.136 376.99 603.137 375.157 606.808C373.323 610.479 370.712 613.737 367.492 616.373L367.259 616.567C364.281 619.191 360.905 621.362 357.249 623.005C357.249 623.005 386.377 639.55 407.597 620.848C428.818 602.146 423.112 587.532 403.393 581.995C413.67 574.527 413.837 564.13 407.931 556.243C402.025 548.357 386.377 549.58 386.377 549.58C386.377 549.58 391.749 526.661 370.195 526.661C348.641 526.661 332.292 539.022 330.356 555.052C329.55 563.386 330.987 571.779 334.527 579.42Z" fill="white"/>
<path d="M327.921 614.507C340.032 611.095 347.273 617.919 359.084 607.682C376.1 592.07 357.549 576.619 342.401 588.658C332.625 596.802 333.293 607.843 327.921 614.507Z" fill="white"/>
<path d="M391.081 344.177C392.082 344.177 407.931 348.716 407.931 331.302C407.931 313.887 387.044 305.292 351.21 321.87C315.375 338.448 315.509 334.746 328.655 324.477C341.801 314.209 382.573 301.945 382.573 255.559C382.573 209.174 327.687 219.668 327.687 248.606C320.58 248.606 309.136 191.051 366.091 191.051C415.605 191.051 404.16 256.074 404.16 256.074C404.16 256.074 432.454 233.316 432.454 204.378C432.454 175.439 404.828 137.101 354.279 137.101C303.731 137.101 303.063 161.791 303.063 161.791C303.063 161.791 293.287 102.819 353.946 102.819C414.604 102.819 446.434 149.462 446.434 149.462C446.434 149.462 447.969 79.2242 344.87 79.2242C281.676 79.2242 270.566 126.06 270.566 126.06C270.566 126.06 232.662 51.4444 332.725 50.0924C378.102 50.0924 400.457 68.5049 400.457 68.5049C400.457 68.5049 367.092 30.9718 317.043 30.9718C232.662 30.9718 213.444 84.5998 213.444 84.5998C213.444 84.5998 175.541 49.9637 220.117 25.1133C248.411 10.467 295.923 13.879 295.923 13.879C240.303 1.22848 88.6908 4.64058 88.6908 138.711C88.6908 230.87 218.082 235.505 218.082 166.168C218.228 161.533 217.409 156.917 215.671 152.593C213.934 148.269 211.314 144.326 207.967 140.997C204.621 137.669 200.615 135.022 196.188 133.215C191.762 131.408 187.004 130.477 182.197 130.477C177.391 130.477 172.633 131.408 168.206 133.215C163.779 135.022 159.774 137.669 156.427 140.997C153.081 144.326 150.461 148.269 148.724 152.593C146.986 156.917 146.166 161.533 146.313 166.168C146.307 172.038 147.858 177.811 150.817 182.939C118.953 179.431 117.452 95.8018 185.751 95.8018C276.204 95.8018 281.776 251.375 175.741 251.375C80.4162 251.503 70.7736 152.391 70.7736 152.391C70.7736 178.143 32.3701 183.583 32.3701 154.805C67.7374 163.851 71.2741 116.178 71.2741 116.178C71.2741 116.178 56.1262 137.133 35.9068 137.133C15.6874 137.133 8.61394 119.912 8.61394 102.69C8.61394 102.69 71.2741 116.178 86.4553 72.2712C86.4553 72.2712 69.2722 87.8832 36.4073 87.8832C3.54238 87.8832 -0.995302 37.1844 4.37652 37.1844C42.2129 83.2479 107.809 49.6096 107.809 49.6096C107.809 49.6096 129.964 33.5148 134.501 31.004C134.501 31.004 102.471 44.6846 73.4095 44.6846C44.3483 44.6846 2.34123 29.8451 2.34124 -0.380981C2.34124 -18.9222 13.2851 -23.7829 13.2851 -23.7829C13.2851 -23.7829 42.1128 39.9205 159.092 17.1624C176.542 11.8189 179.578 6.82949 184.116 6.44321C164.33 6.44321 123.558 11.497 92.5612 -4.115C61.5648 -19.727 28.4997 -52.5605 4.24306 -39.5237C-2.43001 -76.574 28.1994 -81.3703 28.1994 -81.3703C8.14682 -115.459 40.7448 -135.642 44.0813 -152.864C56.2263 -142.627 92.5946 -158.239 110.812 -111.435C132.032 -138.249 163.863 -119.225 163.863 -119.225C163.863 -119.225 128.996 -80.5977 153.853 -41.1975C178.711 -1.79729 235.232 -4.14721 235.232 -4.14721C235.232 -4.14721 175.174 -17.7956 175.174 -52.9146C175.174 -88.0335 216.547 -96.3063 240.336 -85.5871C237.834 -85.1042 221.652 -71.4558 221.652 -53.8802C221.652 -36.3047 231.661 -9.45849 276.771 -4.11499C276.771 -5.6279 251.981 -9.52282 251.981 -38.2682C251.981 -63.1508 282.31 -59.7388 282.31 -59.7388C282.31 -59.7388 269.765 -49.6955 282.31 -35.854C301.195 -15.0272 466.954 51.0581 466.954 159.537C466.954 199.839 425.181 256.396 425.181 256.396C425.181 256.396 453.841 247.641 466.954 273.618C446.067 271.686 401.258 291.837 383.074 303.876C400.257 297.696 411.701 300.303 412.702 299.627C458.212 304.52 444.399 358.502 416.039 358.502C396.987 358.502 389.913 344.177 391.081 344.177ZM100.802 -78.8595C88.5907 -109.697 42.7467 -92.7654 60.5305 -62.7646C78.3142 -32.7638 136.57 -16.3149 136.57 -16.3149C116.951 -28.8367 112.714 -47.8608 100.502 -78.8595L100.802 -78.8595Z" fill="white"/>
<path d="M307.368 194.303C308.402 194.303 280.942 240.527 306.2 317.267C292.053 308.479 289.017 307.835 280.609 307.835C263.926 307.835 262.425 329.306 282.978 329.306C278.24 332.525 249.612 340.347 249.612 314.016C249.612 287.685 279.641 294.509 279.641 294.509C272.968 273.038 215.613 266.89 215.613 304.584C215.613 325.057 230.861 337.418 243.973 336.13C243.973 360.176 183.582 361.141 183.582 316.816C183.582 279.09 227.724 268.371 227.724 268.371C206.504 268.371 185.284 277.159 165.398 297.342C166.232 296.537 166.399 306.451 161.361 311.312C166.618 317.312 169.482 324.926 169.435 332.782C169.435 349.36 154.621 359.114 144.178 361.399C144.178 338.287 134.735 339.285 134.735 326.28C134.735 313.275 135.77 311.248 135.77 311.248C135.77 311.248 116.918 312.503 109.411 310.604C94.0962 306.709 85.221 291.483 68.3715 291.483C68.3715 289.874 82.8521 276.515 104.072 276.515C125.293 276.515 140.14 291.805 140.14 291.805C140.14 291.805 150.584 284.015 157.324 288.586C164.397 283.049 197.062 256.396 232.462 256.396C267.863 256.396 281.977 279.155 281.977 279.155C281.943 265.57 233.897 203.412 307.368 194.303Z" fill="white"/>
<path d="M126.26 339.253C119.854 347.525 111.279 350.712 104.206 349.811C100.49 349.412 97.0607 347.696 94.5823 344.996C92.1039 342.295 90.7535 338.803 90.793 335.197C90.8304 332.295 91.5976 329.445 93.0284 326.892C94.6688 323.932 96.8634 321.29 99.5013 319.102C99.5013 319.102 85.0541 307.159 67.2704 307.159C49.4866 307.159 47.2512 336.356 76.6127 341.216C61.2313 357.826 68.4715 382.548 100.135 363.749C102.871 392.72 132.733 382.258 132.733 354.704C132.872 351.83 132.366 348.962 131.248 346.295C130.131 343.628 128.43 341.226 126.26 339.253Z" fill="white"/>
<path d="M126.394 318.748C126.394 318.748 108.51 319.102 101.77 331.366C95.0303 343.63 118.586 346.817 126.394 318.748Z" fill="white"/>
<path d="M180.179 351.066C175.608 386.893 150.784 389.694 148.548 407.269C146.313 424.845 181.68 429.802 186.251 394.04C189.621 367.58 180.179 351.066 180.179 351.066Z" fill="white"/>
<path d="M119.087 264.862C119.087 254.143 51.9892 203.702 51.9892 238.885C51.9892 260.677 93.6625 250.892 119.087 264.862Z" fill="white"/>
<path d="M74.6775 270.302C50.8213 279.187 52.9233 295.539 41.3121 299.885C29.701 304.231 20.2586 282.47 44.1149 273.586C53.7531 269.641 64.376 268.5 74.6775 270.302Z" fill="white"/>
<path d="M182.014 184.131C185.696 184.131 189.296 183.077 192.358 181.104C195.419 179.13 197.806 176.325 199.215 173.042C200.624 169.76 200.992 166.149 200.274 162.665C199.556 159.18 197.783 155.98 195.179 153.468C192.575 150.956 189.258 149.245 185.646 148.552C182.035 147.859 178.291 148.215 174.889 149.574C171.487 150.934 168.58 153.236 166.534 156.19C164.488 159.143 163.396 162.616 163.396 166.169C163.396 170.932 165.358 175.501 168.849 178.87C172.341 182.238 177.076 184.131 182.014 184.131Z" fill="white"/>
<path d="M49.987 188.798C49.987 188.798 5.57771 221.953 5.5777 302.524C5.5777 359.436 26.9316 391.529 54.825 391.593C82.7185 391.658 58.9957 353.641 45.783 353.609C60.3637 367.869 25.5302 372.215 20.1584 321.967C14.9534 273.554 22.6274 245.709 49.987 188.798Z" fill="white"/>
</svg>
