<svg width="64" height="81" viewBox="0 0 64 81" fill="none" xmlns="http://www.w3.org/2000/svg">
<g filter="url(#filter0_dii_9119_11345)">
<path d="M37.9847 73.5661C32.9224 74.9138 27.6422 74.2173 23.1166 71.6049L13.853 66.2537C10.7376 64.4551 8.28449 62.0099 6.60932 59.1183C4.93384 56.2259 4.03671 52.8869 4.03166 49.2973L3.99965 25.03C3.99679 23.9501 4.4181 22.932 5.18591 22.1644C5.95398 21.3967 6.97323 20.9747 8.05607 20.9762C10.5245 20.9776 12.8327 21.8853 14.5546 23.5319C16.3096 25.2101 17.2778 27.495 17.281 29.966L17.2901 36.774L35.606 5.05219C36.4196 3.64208 37.7412 2.63275 39.3274 2.21054C40.9132 1.78842 42.5658 2.00554 43.9808 2.82177C45.3957 3.6382 46.4104 4.9605 46.8379 6.54542C47.2651 8.12983 47.0523 9.77909 46.2386 11.1896L37.7709 25.8571C39.183 25.5747 40.7011 25.7844 42.0459 26.5601C43.4614 27.3769 44.4764 28.6987 44.9042 30.2826C45.1206 31.0843 45.173 31.9026 45.0665 32.6983C45.1469 32.6735 45.228 32.6501 45.3098 32.6282C46.8955 32.2061 48.5483 32.4232 49.9632 33.2396C51.3781 34.0559 52.3927 35.3782 52.8202 36.9631C53.1114 38.0428 53.1053 39.1527 52.8143 40.1966C54.1577 39.9095 55.609 40.0991 56.8912 40.8394C58.2149 41.602 59.1649 42.8395 59.5653 44.3229C59.9655 45.8063 59.7661 47.3494 59.0038 48.6683L49.8736 64.4808C47.4068 68.7542 42.9327 72.5618 37.9847 73.5661Z" fill="white"/>
<path d="M43.8558 3.03828C45.2131 3.82145 46.1855 5.08926 46.5959 6.61058C47.006 8.13144 46.8025 9.7126 46.0223 11.0651L37.2782 26.2104L37.8197 26.1024C39.1746 25.8315 40.6307 26.0324 41.9208 26.7765C43.2787 27.5601 44.2521 28.8273 44.6628 30.3476C44.8706 31.1175 44.921 31.9024 44.819 32.6649L44.7664 33.0529L45.14 32.937C45.2171 32.9132 45.2949 32.8898 45.3733 32.8688L45.3737 32.8701C46.8958 32.4649 48.4807 32.6731 49.838 33.4562C51.1952 34.2392 52.1691 35.5067 52.5794 37.0281C52.859 38.0648 52.8527 39.1293 52.574 40.1293L52.4626 40.5274L52.8663 40.4413C54.1517 40.1666 55.5398 40.3476 56.7662 41.0556C58.0322 41.7849 58.9402 42.9682 59.3235 44.3881C59.7065 45.8078 59.5161 47.2823 58.7875 48.543L49.6568 64.3559C47.2174 68.5816 42.7976 72.334 37.9348 73.3211L37.9273 73.3223L37.9206 73.3241C32.9221 74.6549 27.7094 73.9674 23.2413 71.3882L13.9782 66.0379L13.9773 66.0374C10.8985 64.2598 8.47763 61.8452 6.82537 58.9933C5.17283 56.1404 4.28679 52.8447 4.28172 49.2974L4.24902 25.0298L4.24951 25.029C4.24693 24.0162 4.6417 23.0623 5.36242 22.3416C6.08359 21.6207 7.03928 21.2248 8.05536 21.2261L8.0562 21.2266C10.4627 21.228 12.7079 22.1123 14.3814 23.7125C16.0861 25.3426 17.0284 27.562 17.0315 29.9662L17.0398 36.774L17.0412 37.7052L17.5065 36.8992L35.8223 5.17726C36.6024 3.8253 37.8691 2.85755 39.3915 2.45225C40.9137 2.04706 42.4984 2.2553 43.8558 3.03828Z" stroke="#2A1010" stroke-opacity="0.56" stroke-width="0.5"/>
</g>
<defs>
<filter id="filter0_dii_9119_11345" x="0" y="-3" width="63.7666" height="83.2372" filterUnits="userSpaceOnUse" color-interpolation-filters="sRGB">
<feFlood flood-opacity="0" result="BackgroundImageFix"/>
<feColorMatrix in="SourceAlpha" type="matrix" values="0 0 0 0 0 0 0 0 0 0 0 0 0 0 0 0 0 0 127 0" result="hardAlpha"/>
<feOffset dy="2"/>
<feGaussianBlur stdDeviation="2"/>
<feComposite in2="hardAlpha" operator="out"/>
<feColorMatrix type="matrix" values="0 0 0 0 0.0779732 0 0 0 0 0.0976703 0 0 0 0 0.155448 0 0 0 0.25 0"/>
<feBlend mode="normal" in2="BackgroundImageFix" result="effect1_dropShadow_9119_11345"/>
<feBlend mode="normal" in="SourceGraphic" in2="effect1_dropShadow_9119_11345" result="shape"/>
<feColorMatrix in="SourceAlpha" type="matrix" values="0 0 0 0 0 0 0 0 0 0 0 0 0 0 0 0 0 0 127 0" result="hardAlpha"/>
<feOffset dx="-1" dy="-3"/>
<feGaussianBlur stdDeviation="3.45"/>
<feComposite in2="hardAlpha" operator="arithmetic" k2="-1" k3="1"/>
<feColorMatrix type="matrix" values="0 0 0 0 0.682282 0 0 0 0 0.678965 0 0 0 0 0.741987 0 0 0 1 0"/>
<feBlend mode="normal" in2="shape" result="effect2_innerShadow_9119_11345"/>
<feColorMatrix in="SourceAlpha" type="matrix" values="0 0 0 0 0 0 0 0 0 0 0 0 0 0 0 0 0 0 127 0" result="hardAlpha"/>
<feOffset dy="-6"/>
<feGaussianBlur stdDeviation="2.5"/>
<feComposite in2="hardAlpha" operator="arithmetic" k2="-1" k3="1"/>
<feColorMatrix type="matrix" values="0 0 0 0 1 0 0 0 0 1 0 0 0 0 1 0 0 0 0.9 0"/>
<feBlend mode="normal" in2="effect2_innerShadow_9119_11345" result="effect3_innerShadow_9119_11345"/>
</filter>
</defs>
</svg>
