<svg width="45" height="47" viewBox="0 0 45 47" fill="none" xmlns="http://www.w3.org/2000/svg">
<path d="M35.4424 0.958008V45.7412H0.958008V0.958008H35.4424Z" fill="url(#paint0_linear_0_412)"/>
<path d="M35.4424 0.958008V45.7412H0.958008V0.958008H35.4424Z" stroke="#141414" stroke-width="1.91697"/>
<path d="M35.4424 0.958008V45.7412H0.958008V0.958008H35.4424Z" stroke="white" stroke-width="1.91697"/>
<ellipse cx="11.1337" cy="10.7006" rx="5.79867" ry="5.41703" fill="white"/>
<path fill-rule="evenodd" clip-rule="evenodd" d="M7.72632 13.2437C8.6078 12.3967 9.84064 11.8705 11.205 11.8705C12.5699 11.8705 13.803 12.397 14.6846 13.2445C13.8998 14.2434 12.6338 14.8918 11.2058 14.8918C9.77732 14.8918 8.51108 14.243 7.72632 13.2437ZM12.8217 9.35292C12.8217 10.1873 12.0977 10.8636 11.2045 10.8636C10.3114 10.8636 9.58738 10.1873 9.58738 9.35292C9.58738 8.51857 10.3114 7.84219 11.2045 7.84219C12.0977 7.84219 12.8217 8.51857 12.8217 9.35292Z" fill="#141414"/>
<path d="M34.4683 23.9319C39.4757 23.9319 43.3873 27.6286 43.3873 32.0129C43.3871 36.3971 39.4756 40.093 34.4683 40.093C29.4611 40.0929 25.5496 36.3971 25.5494 32.0129C25.5494 27.6286 29.461 23.9319 34.4683 23.9319Z" fill="#141414" stroke="white" stroke-width="1.91697"/>
<path d="M38.7023 30.5058L32.9373 35.4018L29.8331 32.7655L31.1635 31.6356L32.9373 33.1421L37.3719 29.3759L38.7023 30.5058Z" fill="url(#paint1_linear_0_412)"/>
<rect x="5.17413" y="19.7854" width="19.4137" height="1.58689" fill="white"/>
<rect x="5.17413" y="23.6393" width="19.4137" height="1.58689" fill="white"/>
<rect x="5.17413" y="27.4926" width="9.70683" height="1.58689" fill="white"/>
<defs>
<linearGradient id="paint0_linear_0_412" x1="0" y1="23.35" x2="40.4545" y2="23.35" gradientUnits="userSpaceOnUse">
<stop offset="0.00110742" stop-color="#FF9900"/>
<stop offset="0.998551" stop-color="#FFD232"/>
</linearGradient>
<linearGradient id="paint1_linear_0_412" x1="29.8331" y1="32.3889" x2="39.69" y2="32.3889" gradientUnits="userSpaceOnUse">
<stop offset="0.00110742" stop-color="#FF9900"/>
<stop offset="0.998551" stop-color="#FFD232"/>
</linearGradient>
</defs>
</svg>
