<svg width="51" height="33" viewBox="0 0 51 33" fill="none" xmlns="http://www.w3.org/2000/svg">
<path d="M0.588439 1.98859C0.588439 1.21549 1.21479 0.588362 1.98785 0.588196L48.232 0.588194C49.0051 0.588266 49.6314 1.21542 49.6314 1.98858L49.6314 30.3616C49.6312 31.1346 49.005 31.761 48.232 31.761L1.98785 31.761C1.2149 31.7609 0.588606 31.1346 0.58844 30.3616L0.588439 1.98859Z" fill="white" stroke="#141414" stroke-width="1.17635"/>
<rect x="3.72931" y="3.72896" width="7.02055" height="7.02066" fill="white"/>
<rect x="3.72931" y="3.72896" width="7.02055" height="7.02066" fill="#3E3E3E"/>
<rect x="3.72931" y="3.72896" width="7.02055" height="7.02066" stroke="#141414" stroke-width="1.11583"/>
<rect x="12.6643" y="3.72864" width="7.02055" height="7.02066" stroke="#141414" stroke-width="1.11583"/>
<rect x="21.5995" y="3.72864" width="7.02055" height="7.02066" fill="white"/>
<rect x="21.5995" y="3.72864" width="7.02055" height="7.02066" fill="#3E3E3E"/>
<rect x="21.5995" y="3.72864" width="7.02055" height="7.02066" stroke="#141414" stroke-width="1.11583"/>
<rect x="30.5347" y="3.72864" width="7.02055" height="7.02066" stroke="#141414" stroke-width="1.11583"/>
<rect x="39.4699" y="3.72864" width="7.02055" height="7.02066" stroke="#141414" stroke-width="1.11583"/>
<rect x="3.72906" y="12.6639" width="7.02055" height="7.02066" stroke="#141414" stroke-width="1.11583"/>
<rect x="12.6641" y="12.6635" width="7.02055" height="7.02066" stroke="#141414" stroke-width="1.11583"/>
<rect x="21.5993" y="12.6635" width="7.02055" height="7.02066" fill="white"/>
<rect x="21.5993" y="12.6635" width="7.02055" height="7.02066" fill="#3E3E3E"/>
<rect x="21.5993" y="12.6635" width="7.02055" height="7.02066" stroke="#141414" stroke-width="1.11583"/>
<rect x="30.5349" y="12.6635" width="7.02055" height="7.02066" stroke="#141414" stroke-width="1.11583"/>
<rect x="39.4697" y="12.6635" width="7.02055" height="7.02066" stroke="#141414" stroke-width="1.11583"/>
<rect x="3.72906" y="21.599" width="7.02055" height="7.02066" stroke="#141414" stroke-width="1.11583"/>
<rect x="12.6641" y="21.5987" width="7.02055" height="7.02066" stroke="#141414" stroke-width="1.11583"/>
<rect x="21.5995" y="21.5987" width="7.02055" height="7.02066" stroke="#141414" stroke-width="1.11583"/>
<rect x="30.5349" y="21.5987" width="7.02055" height="7.02066" stroke="#141414" stroke-width="1.11583"/>
<rect x="39.4697" y="21.5987" width="7.02055" height="7.02066" fill="white"/>
<rect x="39.4697" y="21.5987" width="7.02055" height="7.02066" fill="#3E3E3E"/>
<rect x="39.4697" y="21.5987" width="7.02055" height="7.02066" stroke="#141414" stroke-width="1.11583"/>
<path d="M5.00574 5.00494L9.47338 9.47247M5.00574 9.47247L9.47338 5.00494" stroke="url(#paint0_linear_0_494)" stroke-width="2.43549" stroke-linecap="round"/>
<path d="M22.8762 5.00494L27.3438 9.47247M22.8762 9.47247L27.3438 5.00494" stroke="url(#paint1_linear_0_494)" stroke-width="2.43549" stroke-linecap="round"/>
<path d="M22.8762 13.9404L27.3438 18.4079M22.8762 18.4079L27.3438 13.9404" stroke="url(#paint2_linear_0_494)" stroke-width="2.43549" stroke-linecap="round"/>
<path d="M40.7464 22.8759L45.214 27.3434M40.7464 27.3434L45.214 22.8759" stroke="url(#paint3_linear_0_494)" stroke-width="2.43549" stroke-linecap="round"/>
<defs>
<linearGradient id="paint0_linear_0_494" x1="5.00574" y1="7.23871" x2="9.97093" y2="7.23871" gradientUnits="userSpaceOnUse">
<stop offset="0.00110742" stop-color="#FF7A00"/>
<stop offset="0.998551" stop-color="#FFB932"/>
</linearGradient>
<linearGradient id="paint1_linear_0_494" x1="22.8762" y1="7.23871" x2="27.8414" y2="7.23871" gradientUnits="userSpaceOnUse">
<stop offset="0.00110742" stop-color="#FF7A00"/>
<stop offset="0.998551" stop-color="#FFB932"/>
</linearGradient>
<linearGradient id="paint2_linear_0_494" x1="22.8762" y1="16.1742" x2="27.8414" y2="16.1742" gradientUnits="userSpaceOnUse">
<stop offset="0.00110742" stop-color="#FF7A00"/>
<stop offset="0.998551" stop-color="#FFB932"/>
</linearGradient>
<linearGradient id="paint3_linear_0_494" x1="40.7464" y1="25.1096" x2="45.7116" y2="25.1096" gradientUnits="userSpaceOnUse">
<stop offset="0.00110742" stop-color="#FF7A00"/>
<stop offset="0.998551" stop-color="#FFB932"/>
</linearGradient>
</defs>
</svg>
