<svg viewBox="0 0 24 24" fill="none" xmlns="http://www.w3.org/2000/svg">
<path d="M14.81 0.310998C13.8917 0.114476 12.9545 0.0102467 12.0136 0C11.0494 0.00999992 10.1114 0.114999 9.1921 0.310998C8.99607 0.353022 8.81866 0.452736 8.68469 0.596183C8.55073 0.739631 8.46692 0.919632 8.44499 1.11099L8.22691 2.98798C8.19565 3.25272 8.10016 3.50678 7.94808 3.72982C7.79599 3.95285 7.59155 4.13867 7.35109 4.27241C7.11064 4.40614 6.84086 4.48408 6.56334 4.49998C6.28583 4.51588 6.00828 4.4693 5.75291 4.36397L3.95819 3.60697C3.77603 3.53011 3.57343 3.50942 3.37845 3.54776C3.18348 3.5861 3.00575 3.68158 2.86988 3.82097C1.5719 5.15202 0.605475 6.74762 0.043199 8.48794C-0.0160391 8.67115 -0.0143142 8.86749 0.0481344 9.04972C0.110583 9.23196 0.23066 9.39105 0.391709 9.50493L1.98504 10.6299C2.20916 10.788 2.39136 10.9943 2.51693 11.2323C2.6425 11.4703 2.70792 11.7332 2.70792 11.9999C2.70792 12.2666 2.6425 12.5295 2.51693 12.7675C2.39136 13.0055 2.20916 13.2118 1.98504 13.3699L0.391709 14.4979C0.230867 14.6117 0.110925 14.7706 0.0484852 14.9527C-0.0139541 15.1347 -0.0158015 15.3308 0.043199 15.5139C0.604314 17.2557 1.57003 18.8531 2.8678 20.1858C3.00354 20.3254 3.18121 20.4211 3.37619 20.4596C3.57118 20.4981 3.77383 20.4776 3.95611 20.4008L5.75917 19.6419C6.01305 19.5356 6.28943 19.488 6.56602 19.503C6.8426 19.5179 7.11166 19.5949 7.35147 19.7279C7.83771 19.9979 8.16222 20.4728 8.22587 21.0088L8.44291 22.8858C8.4647 23.0746 8.54674 23.2524 8.67784 23.3948C8.80893 23.5373 8.98268 23.6375 9.1754 23.6818C11.0321 24.1061 12.9669 24.1061 14.8236 23.6818C15.0163 23.6375 15.19 23.5373 15.3211 23.3948C15.4522 23.2524 15.5343 23.0746 15.5561 22.8858L15.7731 21.0058C15.8025 20.7409 15.8968 20.4864 16.0482 20.263C16.1996 20.0396 16.4039 19.8536 16.6445 19.7201C16.8851 19.5866 17.1551 19.5094 17.4327 19.4947C17.7102 19.4801 17.9875 19.5285 18.2419 19.6359L20.0439 20.3948C20.2262 20.4716 20.4288 20.4921 20.6238 20.4536C20.8188 20.4151 20.9965 20.3194 21.1322 20.1798C22.4293 18.8485 23.3949 17.2529 23.9568 15.5129C24.016 15.3297 24.0143 15.1333 23.9519 14.9511C23.8894 14.7689 23.7693 14.6098 23.6083 14.4959L22.017 13.3699C21.7929 13.2119 21.6106 13.0056 21.4849 12.7677C21.3593 12.5298 21.2937 12.2668 21.2936 12.0002C21.2935 11.7335 21.3589 11.4705 21.4843 11.2325C21.6098 10.9945 21.7919 10.7881 22.016 10.6299L23.6073 9.50293C23.7679 9.38898 23.8876 9.23 23.9499 9.04799C24.0121 8.86597 24.0138 8.66991 23.9547 8.48694C23.3928 6.74668 22.4267 5.15108 21.1291 3.81997C20.9932 3.68058 20.8155 3.5851 20.6205 3.54676C20.4255 3.50842 20.2229 3.52911 20.0408 3.60597L18.246 4.36297C18.0227 4.45824 17.781 4.50731 17.5365 4.50697C17.0994 4.5062 16.678 4.35087 16.3529 4.07076C16.0279 3.79065 15.8222 3.40545 15.7752 2.98898L15.5561 1.10999C15.5342 0.919027 15.4507 0.739371 15.3171 0.596124C15.1835 0.452877 15.0066 0.353193 14.811 0.310998H14.81Z" fill="white"/>
<path fill-rule="evenodd" clip-rule="evenodd" d="M6.94785 11.8117C6.94785 14.6354 8.95543 16.5594 11.2104 16.9573C11.2718 16.9682 11.3304 16.9912 11.383 17.0252C11.4356 17.0591 11.4812 17.1033 11.517 17.1552C11.5529 17.2071 11.5783 17.2657 11.592 17.3277C11.6057 17.3896 11.6072 17.4537 11.5966 17.5162C11.5859 17.5788 11.5633 17.6386 11.53 17.6922C11.4967 17.7459 11.4534 17.7923 11.4025 17.8289C11.3516 17.8654 11.2942 17.8914 11.2334 17.9054C11.1727 17.9193 11.1099 17.9209 11.0485 17.91C8.40055 17.4425 6 15.166 6 11.8117C6 10.3859 6.63584 9.26531 7.37811 8.41373C7.91025 7.80334 8.5188 7.30705 9.00819 6.92764H7.52001C7.39939 6.92764 7.2837 6.87878 7.1984 6.79179C7.11311 6.70481 7.06519 6.58684 7.06519 6.46382C7.06519 6.34081 7.11311 6.22283 7.1984 6.13585C7.2837 6.04887 7.39939 6 7.52001 6H10.2489C10.3696 6 10.4852 6.04887 10.5705 6.13585C10.6558 6.22283 10.7038 6.34081 10.7038 6.46382V9.24675C10.7038 9.36977 10.6558 9.48774 10.5705 9.57472C10.4852 9.66171 10.3696 9.71057 10.2489 9.71057C10.1283 9.71057 10.0126 9.66171 9.92733 9.57472C9.84204 9.48774 9.79412 9.36977 9.79412 9.24675V7.53432L9.79321 7.53618C9.27289 7.93506 8.63796 8.42393 8.08763 9.05566C7.43723 9.80148 6.94785 10.7032 6.94785 11.8108V11.8117ZM17.0522 12.1883C17.0522 9.39425 15.0873 7.48237 12.8614 7.05566C12.7994 7.04492 12.7401 7.0217 12.6869 6.98733C12.6338 6.95297 12.5879 6.90816 12.5519 6.85551C12.5159 6.80287 12.4906 6.74344 12.4774 6.6807C12.4641 6.61797 12.4633 6.55317 12.4749 6.4901C12.4865 6.42703 12.5103 6.36694 12.5449 6.31335C12.5795 6.25976 12.6242 6.21373 12.6765 6.17795C12.7287 6.14217 12.7874 6.11736 12.8492 6.10497C12.9109 6.09257 12.9744 6.09284 13.0361 6.10575C15.6504 6.60668 18 8.87013 18 12.1883C18 13.6141 17.3642 14.7338 16.6219 15.5863C16.0898 16.1967 15.4812 16.693 14.9918 17.0724H16.48C16.6006 17.0724 16.7163 17.1212 16.8016 17.2082C16.8869 17.2952 16.9348 17.4132 16.9348 17.5362C16.9348 17.6592 16.8869 17.7772 16.8016 17.8641C16.7163 17.9511 16.6006 18 16.48 18H13.7511C13.6304 18 13.5147 17.9511 13.4295 17.8641C13.3442 17.7772 13.2962 17.6592 13.2962 17.5362V14.7532C13.2962 14.6302 13.3442 14.5123 13.4295 14.4253C13.5147 14.3383 13.6304 14.2894 13.7511 14.2894C13.8717 14.2894 13.9874 14.3383 14.0727 14.4253C14.158 14.5123 14.2059 14.6302 14.2059 14.7532V16.4647H14.2077C14.7271 16.064 15.3629 15.5761 15.9124 14.9434C16.5628 14.1985 17.0522 13.2968 17.0522 12.1883Z" fill="#424242"/>
</svg>
