<svg viewBox="0 0 25 24" fill="none" xmlns="http://www.w3.org/2000/svg">
<path fill-rule="evenodd" clip-rule="evenodd" d="M4.92177 11.7175C4.92177 15.9532 7.93314 18.8391 11.3156 19.436C11.4077 19.4523 11.4956 19.4868 11.5745 19.5378C11.6534 19.5887 11.7217 19.655 11.7755 19.7328C11.8293 19.8107 11.8675 19.8986 11.888 19.9915C11.9085 20.0844 11.9108 20.1805 11.8949 20.2743C11.8789 20.3682 11.845 20.4579 11.7951 20.5384C11.7451 20.6188 11.6801 20.6885 11.6038 20.7433C11.5274 20.7982 11.4413 20.8371 11.3501 20.858C11.259 20.8789 11.1648 20.8813 11.0728 20.865C7.10082 20.1637 3.5 16.7491 3.5 11.7175C3.5 9.57885 4.45376 7.89796 5.56716 6.62059C6.36537 5.70501 7.2782 4.96058 8.01228 4.39147H5.78002C5.59908 4.39147 5.42555 4.31817 5.29761 4.18769C5.16966 4.05721 5.09779 3.88025 5.09779 3.69573C5.09779 3.51121 5.16966 3.33425 5.29761 3.20378C5.42555 3.0733 5.59908 3 5.78002 3H9.87341C10.0543 3 10.2279 3.0733 10.3558 3.20378C10.4838 3.33425 10.5556 3.51121 10.5556 3.69573V7.87013C10.5556 8.05465 10.4838 8.23161 10.3558 8.36209C10.2279 8.49256 10.0543 8.56586 9.87341 8.56586C9.69247 8.56586 9.51894 8.49256 9.391 8.36209C9.26305 8.23161 9.19118 8.05465 9.19118 7.87013V5.30148L9.18981 5.30427C8.40934 5.9026 7.45694 6.6359 6.63144 7.58349C5.65585 8.70223 4.92177 10.0547 4.92177 11.7161V11.7175ZM20.0782 12.2825C20.0782 8.09137 17.131 5.22356 13.7921 4.58349C13.6991 4.56739 13.6101 4.53255 13.5304 4.481C13.4507 4.42946 13.3818 4.36224 13.3279 4.28327C13.2739 4.2043 13.2359 4.11517 13.216 4.02106C13.1962 3.92695 13.195 3.82976 13.2124 3.73515C13.2298 3.64054 13.2654 3.55041 13.3174 3.47002C13.3693 3.38963 13.4364 3.32059 13.5147 3.26693C13.5931 3.21326 13.6811 3.17604 13.7737 3.15745C13.8664 3.13886 13.9617 3.13926 14.0541 3.15863C17.9756 3.91002 21.5 7.30519 21.5 12.2825C21.5 14.4211 20.5462 16.1006 19.4328 17.3794C18.6346 18.295 17.7218 19.0394 16.9877 19.6085H19.22C19.4009 19.6085 19.5744 19.6818 19.7024 19.8123C19.8303 19.9428 19.9022 20.1197 19.9022 20.3043C19.9022 20.4888 19.8303 20.6657 19.7024 20.7962C19.5744 20.9267 19.4009 21 19.22 21H15.1266C14.9457 21 14.7721 20.9267 14.6442 20.7962C14.5162 20.6657 14.4444 20.4888 14.4444 20.3043V16.1299C14.4444 15.9454 14.5162 15.7684 14.6442 15.6379C14.7721 15.5074 14.9457 15.4341 15.1266 15.4341C15.3075 15.4341 15.4811 15.5074 15.609 15.6379C15.7369 15.7684 15.8088 15.9454 15.8088 16.1299V18.6971H15.8116C16.5907 18.096 17.5444 17.3641 18.3686 16.4151C19.3441 15.2978 20.0782 13.9453 20.0782 12.2825Z" fill="#00BCFF"/>
</svg>
