<svg viewBox="0 0 24 24" fill="none" xmlns="http://www.w3.org/2000/svg">
<path fill-rule="evenodd" clip-rule="evenodd" d="M4.42177 11.7175C4.42177 15.9532 7.43314 18.8391 10.8156 19.436C10.9077 19.4523 10.9956 19.4868 11.0745 19.5378C11.1534 19.5887 11.2217 19.655 11.2755 19.7328C11.3293 19.8107 11.3675 19.8986 11.388 19.9915C11.4085 20.0844 11.4108 20.1805 11.3949 20.2743C11.3789 20.3682 11.345 20.4579 11.2951 20.5384C11.2451 20.6188 11.1801 20.6885 11.1038 20.7433C11.0274 20.7982 10.9413 20.8371 10.8501 20.858C10.759 20.8789 10.6648 20.8813 10.5728 20.865C6.60082 20.1637 3 16.7491 3 11.7175C3 9.57885 3.95376 7.89796 5.06716 6.62059C5.86537 5.70501 6.7782 4.96058 7.51228 4.39147H5.28002C5.09908 4.39147 4.92555 4.31817 4.79761 4.18769C4.66966 4.05721 4.59779 3.88025 4.59779 3.69573C4.59779 3.51121 4.66966 3.33425 4.79761 3.20378C4.92555 3.0733 5.09908 3 5.28002 3H9.37341C9.55435 3 9.72788 3.0733 9.85582 3.20378C9.98376 3.33425 10.0556 3.51121 10.0556 3.69573V7.87013C10.0556 8.05465 9.98376 8.23161 9.85582 8.36209C9.72788 8.49256 9.55435 8.56586 9.37341 8.56586C9.19247 8.56586 9.01894 8.49256 8.891 8.36209C8.76305 8.23161 8.69118 8.05465 8.69118 7.87013V5.30148L8.68981 5.30427C7.90934 5.9026 6.95694 6.6359 6.13144 7.58349C5.15585 8.70223 4.42177 10.0547 4.42177 11.7161V11.7175ZM19.5782 12.2825C19.5782 8.09137 16.631 5.22356 13.2921 4.58349C13.1991 4.56739 13.1101 4.53255 13.0304 4.481C12.9507 4.42946 12.8818 4.36224 12.8279 4.28327C12.7739 4.2043 12.7359 4.11516 12.716 4.02106C12.6962 3.92695 12.695 3.82976 12.7124 3.73515C12.7298 3.64054 12.7654 3.55041 12.8174 3.47002C12.8693 3.38963 12.9364 3.32059 13.0147 3.26693C13.0931 3.21326 13.1811 3.17604 13.2737 3.15745C13.3664 3.13886 13.4617 3.13926 13.5541 3.15863C17.4756 3.91002 21 7.30519 21 12.2825C21 14.4211 20.0462 16.1006 18.9328 17.3794C18.1346 18.295 17.2218 19.0394 16.4877 19.6085H18.72C18.9009 19.6085 19.0744 19.6818 19.2024 19.8123C19.3303 19.9428 19.4022 20.1197 19.4022 20.3043C19.4022 20.4888 19.3303 20.6657 19.2024 20.7962C19.0744 20.9267 18.9009 21 18.72 21H14.6266C14.4457 21 14.2721 20.9267 14.1442 20.7962C14.0162 20.6657 13.9444 20.4888 13.9444 20.3043V16.1299C13.9444 15.9454 14.0162 15.7684 14.1442 15.6379C14.2721 15.5074 14.4457 15.4341 14.6266 15.4341C14.8075 15.4341 14.9811 15.5074 15.109 15.6379C15.2369 15.7684 15.3088 15.9454 15.3088 16.1299V18.6971H15.3116C16.0907 18.096 17.0444 17.3641 17.8686 16.4151C18.8441 15.2978 19.5782 13.9453 19.5782 12.2825Z" fill="#424242"/>
</svg>
