<svg xmlns="http://www.w3.org/2000/svg" viewBox="0 0 24 24">
<path fill="#0086F9" d="M20.8,22.5V6l-6-6h-10C3.9,0,3.3,0.7,3.3,1.5v21C3.3,23.3,4,24,4.8,24h14.5C20.1,24,20.8,23.3,20.8,22.5z"/>
<path fill="#0067D9" d="M14.8,6V0l6,6H14.8z"/>
<path fill-rule="evenodd" clip-rule="evenodd" fill="#FFFFFF" d="M6.9,14.1c0,2.8,2,4.7,4.3,5.1c0.1,0,0.1,0,0.2,0.1
	c0.1,0,0.1,0.1,0.1,0.1c0,0.1,0.1,0.1,0.1,0.2c0,0.1,0,0.1,0,0.2c0,0.1,0,0.1-0.1,0.2c0,0.1-0.1,0.1-0.1,0.1c-0.1,0-0.1,0.1-0.2,0.1
	c-0.1,0-0.1,0-0.2,0c-2.6-0.5-5-2.7-5-6.1c0-1.4,0.6-2.5,1.4-3.4C7.9,10.1,8.5,9.6,9,9.2H7.5c-0.1,0-0.2,0-0.3-0.1
	C7.1,9,7.1,8.8,7.1,8.7c0-0.1,0-0.2,0.1-0.3c0.1-0.1,0.2-0.1,0.3-0.1h2.7c0.1,0,0.2,0,0.3,0.1c0.1,0.1,0.1,0.2,0.1,0.3v2.8
	c0,0.1,0,0.2-0.1,0.3c-0.1,0.1-0.2,0.1-0.3,0.1c-0.1,0-0.2,0-0.3-0.1c-0.1-0.1-0.1-0.2-0.1-0.3V9.8l0,0c-0.5,0.4-1.2,0.9-1.7,1.5
	C7.4,12.1,6.9,13,6.9,14.1L6.9,14.1z M17.1,14.4c0-2.8-2-4.7-4.2-5.1c-0.1,0-0.1,0-0.2-0.1c-0.1,0-0.1-0.1-0.1-0.1
	c0-0.1-0.1-0.1-0.1-0.2c0-0.1,0-0.1,0-0.2c0-0.1,0-0.1,0.1-0.2s0.1-0.1,0.1-0.1c0.1,0,0.1-0.1,0.2-0.1c0.1,0,0.1,0,0.2,0
	c2.6,0.5,5,2.8,5,6.1c0,1.4-0.6,2.5-1.4,3.4c-0.5,0.6-1.1,1.1-1.6,1.5h1.5c0.1,0,0.2,0,0.3,0.1s0.1,0.2,0.1,0.3c0,0.1,0,0.2-0.1,0.3
	c-0.1,0.1-0.2,0.1-0.3,0.1h-2.7c-0.1,0-0.2,0-0.3-0.1c-0.1-0.1-0.1-0.2-0.1-0.3V17c0-0.1,0-0.2,0.1-0.3c0.1-0.1,0.2-0.1,0.3-0.1
	c0.1,0,0.2,0,0.3,0.1c0.1,0.1,0.1,0.2,0.1,0.3v1.7h0c0.5-0.4,1.2-0.9,1.7-1.5C16.6,16.4,17.1,15.5,17.1,14.4z"/>
</svg>
