<svg xmlns="http://www.w3.org/2000/svg" viewBox="0 0 512 512">
<path fill="#1ABCFE" d="M256,256c0-22.6,9-44.3,25-60.3c16-16,37.7-25,60.3-25c22.6,0,44.3,9,60.3,25c16,16,25,37.7,25,60.3
  s-9,44.3-25,60.3c-16,16-37.7,25-60.3,25c-22.6,0-44.3-9-60.3-25C265,300.3,256,278.6,256,256z"/>
<path fill="#0ACF83" d="M85.3,426.7c0-22.6,9-44.3,25-60.3c16-16,37.7-25,60.3-25H256v85.3c0,22.6-9,44.3-25,60.3s-37.7,25-60.3,25
  c-22.6,0-44.3-9-60.3-25C94.3,471,85.3,449.3,85.3,426.7L85.3,426.7z"/>
<path fill="#FF7262" d="M256,0v170.7h85.3c22.6,0,44.3-9,60.3-25c16-16,25-37.7,25-60.3c0-22.6-9-44.3-25-60.3
  C385.7,9,364,0,341.3,0H256z"/>
<path fill="#F24E1E" d="M85.3,85.3c0,22.6,9,44.3,25,60.3c16,16,37.7,25,60.3,25H256V0h-85.3c-22.6,0-44.3,9-60.3,25
  C94.3,41,85.3,62.7,85.3,85.3L85.3,85.3z"/>
<path fill="#A259FF" d="M85.3,256c0,22.6,9,44.3,25,60.3c16,16,37.7,25,60.3,25H256V170.7h-85.3c-22.6,0-44.3,9-60.3,25
  C94.3,211.7,85.3,233.4,85.3,256L85.3,256z"/>
</svg>
